<?xml version="1.0" encoding="utf-8"?>
<!-- Generator: Adobe Illustrator 19.2.1, SVG Export Plug-In . SVG Version: 6.00 Build 0)  -->
<svg version="1.1" id="Layer_1" xmlns="http://www.w3.org/2000/svg" xmlns:xlink="http://www.w3.org/1999/xlink" x="0px" y="0px"
	 viewBox="0 0 800.2 303" style="enable-background:new 0 0 800.2 303;" xml:space="preserve">
<style type="text/css">
	.st0{fill:#FFFFFF;}
	.st1{fill:#9BDAF1;}
</style>
<path class="st0" d="M304.7,24.6h-2.3v161.8c0,4-3.2,5.5-9.8,5.5c-6.7,0-9.8-1.9-9.8-5.5V25.9c0-7,0.8-12.2,2.8-14.6
	c1.9-2.3,5.9-4,12.2-4h5.5c11.4,0,19.3,1.2,23.3,4s7,9.5,9.8,19.7l32.2,130.3c1.5,5.9,2.8,9.8,4.3,11s4.7,2.3,9.8,2.3h2.3V12.8
	c0-4,3.2-5.5,9.8-5.5s9.8,1.9,9.8,5.5v160.6c0,7-0.8,12.2-2.8,14.6c-1.9,2.3-5.9,4-12.2,4h-5.5c-11.4,0-19.3-1.2-23.3-4
	s-7-9.5-9.8-19.7L318.9,38c-1.5-5.9-2.8-9.8-4.3-11C313.4,25,310.2,24.6,304.7,24.6z"/>
<path class="st0" d="M452,7h104.3c3.2,0,5.1,2.8,5.1,8.7s-1.5,8.7-5.1,8.7h-42.1v161.8c0,4-3.2,5.5-9.8,5.5c-6.7,0-9.8-1.9-9.8-5.5
	V24.6h-42.1c-3.2,0-5.1-2.8-5.1-8.7C447.2,10,448.4,7,452,7z"/>
<path class="st0" d="M625.6,11.7v174.7c0,4-3.2,5.5-9.8,5.5s-9.8-1.9-9.8-5.5V11.7c0-4,3.2-5.5,9.8-5.5S625.6,7.7,625.6,11.7z"/>
<path class="st0" d="M778.3,157.7v-27.9c0.4-4.7-1.9-9.5-6.3-11.8c-7-3.6-14.6-5.9-22.4-7.4l-22-5.1c-7.9-1.5-15.7-4-22.8-7.9
	c-11-5.9-16.5-17.7-16.5-35.8V42.4c0-13.8,4.7-23.7,14.6-29.9c9.8-6.3,22.8-9.5,39-9.5c16.1,0,29.2,3.2,39,9.5s14.6,16.1,14.6,29.9
	v11c0,4-3.2,5.5-9.8,5.5s-9.8-1.9-9.8-5.5V40c0-13-11.4-19.3-33.9-19.3s-34,6.2-34,19.3v21.2c0,9.1,1.2,15.3,4,18.9
	s7.9,5.9,15.4,7.4l22,5.1c9.1,1.5,18.2,4,27.1,7c2.3,1.5,5.1,2.8,7.9,4c2.3,0.8,4.3,2.8,5.9,4.7c1.2,1.5,2.3,3.6,4,5.9
	c2.8,5.5,4,11.4,3.6,17.7v23.7c0.8,12.2-5.5,23.7-16.1,29.9c-12.5,6.7-26.7,9.8-40.9,9.5c-14.2,0.4-27.9-2.8-40.5-9.5
	c-10.6-6.3-15.7-16.1-15.7-29.9v-11c0-4,3.2-5.5,9.8-5.5c6.7,0,9.8,1.9,9.8,5.5V158c0,6.7,4,12.6,10.2,14.6c8.3,3.6,16.9,5.1,26,4.7
	c9.1,0.4,18.2-1.2,26.4-4.7C774.7,169.2,778.3,164.4,778.3,157.7z"/>
<polygon class="st1" points="3.3,120.3 50.6,121.3 50.6,190.3 3.3,190.3 "/>
<rect x="74.2" class="st1" width="47.2" height="190.3"/>
<rect x="149.4" y="52.7" class="st1" width="47.2" height="137.9"/>
<g>
	<path class="st0" d="M30,254c0.2,0,0.3,0,0.4,0.1s0.1,0.2,0.1,0.4v32c0,0.4-0.2,0.5-0.6,0.5h-2.2c-0.2,0-0.4,0-0.6-0.1
		c-0.1,0-0.3-0.1-0.4-0.3l-17.2-25c-0.1-0.2-0.2-0.3-0.3-0.3S9,261.4,9,261.6v24.7c0,0.4-0.2,0.6-0.6,0.6H6c-0.4,0-0.6-0.2-0.6-0.6
		v-31.8c0-0.2,0-0.4,0.1-0.5c0.1,0,0.3,0,0.5,0h2.5c0.2,0,0.4,0,0.5,0.1s0.3,0.2,0.4,0.4l16.7,24.4c0.1,0.2,0.3,0.3,0.4,0.3
		c0.2,0,0.3-0.1,0.3-0.4v-24.2c0-0.4,0.2-0.5,0.5-0.5L30,254L30,254z"/>
	<path class="st0" d="M44,287.5c-2.3,0-4.1-0.6-5.5-1.8c-1.3-1.2-2-2.7-2-4.7c0-2.4,1-4.2,3-5.6s4.9-2.2,8.7-2.4l3.5-0.3
		c0.5-0.1,0.8-0.3,0.8-0.7v-1.2c0-1.6-0.5-2.9-1.5-3.8s-2.3-1.4-4-1.4c-2.6,0-4.7,1.2-6.4,3.6c-0.1,0.1-0.2,0.2-0.3,0.3
		s-0.2,0-0.4,0l-2.4-0.8c-0.1-0.1-0.2-0.2-0.2-0.3c0-0.1,0-0.2,0.1-0.4c0.9-1.6,2.2-2.8,3.8-3.7s3.6-1.3,5.9-1.3
		c2.9,0,5.1,0.7,6.7,2c1.5,1.3,2.3,3.2,2.3,5.6v15.8c0,0.3,0,0.4-0.1,0.5s-0.3,0.1-0.5,0.1h-2.2c-0.4,0-0.6-0.2-0.6-0.7l-0.1-2
		c0-0.2-0.1-0.3-0.2-0.3c-0.1,0-0.3,0.1-0.4,0.2C49.6,286.4,47,287.5,44,287.5z M51.8,275l-2.9,0.3c-2.8,0.2-4.9,0.7-6.4,1.6
		s-2.2,2.1-2.2,3.7c0,1.3,0.5,2.3,1.4,3s2.1,1.1,3.6,1.1c0.9,0,1.8-0.2,2.7-0.5s1.7-0.8,2.4-1.3s1.2-1.1,1.6-1.7
		c0.4-0.6,0.6-1.2,0.6-1.8v-3.7C52.5,275.2,52.3,275,51.8,275z"/>
	<path class="st0" d="M68.8,266.2c-0.2,0-0.4,0.1-0.4,0.4v14.1c0,1.3,0.2,2.3,0.7,2.8c0.4,0.5,1.2,0.8,2.2,0.8h3.1
		c0.3,0,0.5,0.2,0.5,0.5v1.5c0,0.3-0.2,0.5-0.5,0.6c-0.8,0.1-2.2,0.2-4.2,0.2c-1.9,0-3.2-0.4-4.1-1.3s-1.3-2.3-1.3-4.2v-14.9
		c0-0.3-0.1-0.5-0.4-0.5h-3.6c-0.3,0-0.5-0.1-0.5-0.4v-1.9c0-0.3,0.1-0.4,0.4-0.4h3.8c0.2,0,0.3-0.1,0.3-0.4l0.5-7.1
		c0-0.4,0.2-0.6,0.5-0.6H68c0.4,0,0.5,0.2,0.5,0.6v7c0,0.2,0.1,0.4,0.4,0.4h5.6c0.3,0,0.5,0.1,0.5,0.4v1.9c0,0.3-0.2,0.4-0.5,0.4
		h-5.7V266.2z"/>
	<path class="st0" d="M83.7,258.4c0,0.3-0.1,0.5-0.2,0.6s-0.3,0.2-0.6,0.2h-2.6c-0.4,0-0.7-0.3-0.7-0.8v-3.7c0-0.5,0.2-0.7,0.6-0.7
		H83c0.2,0,0.3,0.1,0.4,0.2c0.1,0.1,0.2,0.3,0.2,0.5L83.7,258.4L83.7,258.4z M83.6,286.3c0,0.3-0.1,0.5-0.2,0.6s-0.3,0.2-0.6,0.2
		h-2.3c-0.3,0-0.4,0-0.5-0.1s-0.1-0.3-0.1-0.5v-22.3c0-0.4,0.2-0.6,0.5-0.6h2.7c0.3,0,0.5,0.2,0.5,0.6V286.3z"/>
	<path class="st0" d="M94.4,285.9c-1.7-1-3-2.5-4-4.3c-0.9-1.8-1.4-3.9-1.4-6.3s0.5-4.5,1.4-6.4c1-1.9,2.3-3.3,4-4.4
		s3.7-1.6,5.9-1.6c2.2,0,4.1,0.5,5.9,1.6c1.7,1.1,3,2.5,4,4.4c0.9,1.9,1.4,4,1.4,6.4c0,2.3-0.5,4.4-1.4,6.3c-0.9,1.8-2.3,3.3-4,4.3
		s-3.7,1.6-5.9,1.6S96.2,287,94.4,285.9z M105.8,282.1c1.3-1.7,1.9-4,1.9-6.9s-0.7-5.2-2-6.9c-1.3-1.7-3.1-2.6-5.4-2.6
		s-4.1,0.9-5.5,2.6s-2,4-2,6.9s0.7,5.2,2,6.9c1.3,1.7,3.2,2.5,5.5,2.5C102.7,284.7,104.5,283.8,105.8,282.1z"/>
	<path class="st0" d="M117.1,286.4V264c0-0.4,0.2-0.6,0.5-0.6h2.7c0.3,0,0.5,0.2,0.5,0.5v2.6c0,0.3,0.1,0.4,0.4,0.1
		c1.7-1.3,3.1-2.2,4.2-2.8c1.2-0.6,2.5-0.8,3.9-0.8c2.3,0,4,0.6,5.3,1.8c1.3,1.2,1.9,2.8,1.9,4.9v16.6c0,0.5-0.2,0.7-0.7,0.7h-2.5
		c-0.4,0-0.6-0.2-0.6-0.6v-15.9c0-1.5-0.4-2.6-1.1-3.4c-0.8-0.8-1.9-1.2-3.5-1.2c-1.2,0-2.4,0.3-3.4,0.8c-1.1,0.5-2.3,1.5-3.8,2.8
		v16.8c0,0.2-0.1,0.4-0.2,0.5s-0.3,0.2-0.5,0.2h-2.4C117.3,287,117.1,286.8,117.1,286.4z"/>
	<path class="st0" d="M148.9,287.5c-2.3,0-4.1-0.6-5.5-1.8c-1.3-1.2-2-2.7-2-4.7c0-2.4,1-4.2,3-5.6s4.9-2.2,8.7-2.4l3.5-0.3
		c0.5-0.1,0.8-0.3,0.8-0.7v-1.2c0-1.6-0.5-2.9-1.5-3.8s-2.3-1.4-4-1.4c-2.6,0-4.7,1.2-6.4,3.6c-0.1,0.1-0.2,0.2-0.3,0.3
		s-0.2,0-0.4,0l-2.4-0.8c-0.1-0.1-0.2-0.2-0.2-0.3c0-0.1,0-0.2,0.1-0.4c0.9-1.6,2.2-2.8,3.8-3.7s3.6-1.3,5.9-1.3
		c2.9,0,5.1,0.7,6.7,2c1.5,1.3,2.3,3.2,2.3,5.6v15.8c0,0.3,0,0.4-0.1,0.5s-0.3,0.1-0.5,0.1h-2.2c-0.4,0-0.6-0.2-0.6-0.7l-0.1-2
		c0-0.2-0.1-0.3-0.2-0.3c-0.1,0-0.3,0.1-0.4,0.2C154.5,286.4,151.9,287.5,148.9,287.5z M156.7,275l-2.9,0.3
		c-2.8,0.2-4.9,0.7-6.4,1.6s-2.2,2.1-2.2,3.7c0,1.3,0.5,2.3,1.4,3s2.1,1.1,3.6,1.1c0.9,0,1.8-0.2,2.7-0.5s1.7-0.8,2.4-1.3
		s1.2-1.1,1.6-1.7c0.4-0.6,0.6-1.2,0.6-1.8v-3.7C157.4,275.2,157.2,275,156.7,275z"/>
	<path class="st0" d="M171.3,286.3c0,0.3-0.1,0.5-0.2,0.6c-0.1,0.1-0.3,0.2-0.6,0.2h-2.3c-0.3,0-0.4,0-0.5-0.1s-0.1-0.3-0.1-0.5
		v-31.8c0-0.4,0.2-0.6,0.5-0.6h2.7c0.4,0,0.5,0.2,0.5,0.6L171.3,286.3L171.3,286.3z"/>
	<path class="st0" d="M186.1,254.5c0-0.3,0.2-0.5,0.5-0.5h23.9c0.4,0,0.5,0.2,0.5,0.5v2.3c0,0.2,0,0.3-0.1,0.4s-0.2,0.1-0.4,0.1h-9
		c-0.2,0-0.3,0-0.4,0.1c-0.1,0.1-0.1,0.2-0.1,0.4v28.7c0,0.4-0.2,0.6-0.5,0.6h-3.2c-0.4,0-0.5-0.2-0.5-0.6v-28.7
		c0-0.2,0-0.3-0.1-0.4s-0.2-0.1-0.4-0.1h-9.7c-0.2,0-0.3,0-0.4-0.1s-0.1-0.2-0.1-0.4V254.5z"/>
	<path class="st0" d="M215.2,280.7c0.7,1.2,1.6,2.2,2.8,2.9c1.2,0.7,2.5,1.1,3.9,1.1c3,0,5.3-1.2,6.9-3.7c0.1-0.1,0.2-0.2,0.3-0.2
		s0.2,0,0.3,0.1l1.9,0.9c0.2,0.1,0.3,0.4,0.1,0.6c-1.2,1.8-2.5,3.1-4.1,3.9s-3.5,1.2-5.7,1.2s-4.1-0.5-5.8-1.5s-3.1-2.4-4-4.2
		c-1-1.8-1.4-3.9-1.4-6.3c0-2.5,0.5-4.7,1.5-6.6s2.3-3.3,4-4.3s3.6-1.5,5.8-1.5c2.1,0,4,0.5,5.6,1.4c1.6,1,2.9,2.3,3.8,4.2
		c0.9,1.8,1.3,4,1.3,6.5v0.2c0,0.3,0,0.5-0.1,0.6s-0.3,0.2-0.5,0.2h-17c-0.3,0-0.4,0.2-0.4,0.7C214.2,278.1,214.5,279.4,215.2,280.7
		z M227.8,273.6c0.3,0,0.5,0,0.6-0.1s0.1-0.2,0.1-0.5c0-1.3-0.3-2.5-0.8-3.6s-1.4-2-2.4-2.7c-1.1-0.7-2.3-1-3.7-1
		c-1.5,0-2.8,0.4-4,1.1c-1.1,0.8-2,1.7-2.6,2.9c-0.6,1.2-0.9,2.5-0.8,3.8h13.6V273.6z"/>
	<path class="st0" d="M252.9,264.5c1.5,1,2.8,2.3,3.7,4l0.1,0.4c0,0.2-0.1,0.3-0.3,0.3l-2.4,0.6h-0.1c-0.1,0-0.3-0.1-0.4-0.4
		c-1-1.3-1.9-2.2-2.7-2.8c-0.9-0.6-1.9-0.9-3-0.9c-2.3,0-4.2,0.9-5.5,2.6c-1.4,1.7-2,4-2,6.9s0.7,5.3,2.1,6.9
		c1.4,1.7,3.2,2.5,5.6,2.5c1.4,0,2.6-0.3,3.7-1c1.1-0.7,2-1.7,2.9-3.2c0.1-0.1,0.2-0.2,0.3-0.2s0.2,0,0.3,0.1l1.9,0.7
		c0.2,0.1,0.3,0.3,0.2,0.6c-0.9,1.7-2.2,3.1-3.8,4.2s-3.5,1.6-5.7,1.6s-4.1-0.5-5.8-1.5s-3-2.5-4-4.3s-1.4-3.9-1.4-6.3
		s0.5-4.5,1.4-6.4s2.3-3.3,4-4.4c1.7-1,3.6-1.6,5.8-1.6C249.5,263,251.3,263.5,252.9,264.5z"/>
	<path class="st0" d="M261.7,286.4v-31.9c0-0.4,0.2-0.6,0.5-0.6h2.6c0.3,0,0.5,0.2,0.5,0.5v11.9c0,0.3,0.1,0.4,0.4,0.1
		c1.7-1.3,3.1-2.2,4.3-2.8c1.2-0.5,2.5-0.8,3.9-0.8c2.3,0,4,0.6,5.3,1.8c1.2,1.2,1.8,2.9,1.8,4.9v16.6c0,0.5-0.2,0.7-0.7,0.7h-2.5
		c-0.4,0-0.6-0.2-0.6-0.6v-15.9c0-1.5-0.4-2.6-1.1-3.4c-0.8-0.8-1.9-1.2-3.5-1.2c-1.2,0-2.4,0.3-3.4,0.8s-2.3,1.5-3.8,2.8v16.8
		c0,0.4-0.2,0.7-0.7,0.7h-2.4C261.9,287,261.7,286.8,261.7,286.4z"/>
	<path class="st0" d="M287.6,286.4V264c0-0.4,0.2-0.6,0.5-0.6h2.7c0.3,0,0.5,0.2,0.5,0.5v2.6c0,0.3,0.1,0.4,0.4,0.1
		c1.7-1.3,3.1-2.2,4.2-2.8c1.2-0.6,2.5-0.8,3.9-0.8c2.3,0,4,0.6,5.3,1.8c1.3,1.2,1.9,2.8,1.9,4.9v16.6c0,0.5-0.2,0.7-0.7,0.7h-2.5
		c-0.4,0-0.6-0.2-0.6-0.6v-15.9c0-1.5-0.4-2.6-1.1-3.4c-0.8-0.8-1.9-1.2-3.5-1.2c-1.2,0-2.4,0.3-3.4,0.8c-1.1,0.5-2.3,1.5-3.8,2.8
		v16.8c0,0.2-0.1,0.4-0.2,0.5s-0.3,0.2-0.5,0.2h-2.4C287.8,287,287.6,286.8,287.6,286.4z"/>
	<path class="st0" d="M317.5,258.4c0,0.3-0.1,0.5-0.2,0.6s-0.3,0.2-0.6,0.2h-2.6c-0.4,0-0.7-0.3-0.7-0.8v-3.7c0-0.5,0.2-0.7,0.6-0.7
		h2.8c0.2,0,0.3,0.1,0.4,0.2c0.1,0.1,0.2,0.3,0.2,0.5v3.7H317.5z M317.4,286.3c0,0.3-0.1,0.5-0.2,0.6s-0.3,0.2-0.6,0.2h-2.3
		c-0.3,0-0.4,0-0.5-0.1s-0.1-0.3-0.1-0.5v-22.3c0-0.4,0.2-0.6,0.5-0.6h2.7c0.3,0,0.5,0.2,0.5,0.6V286.3z"/>
	<path class="st0" d="M339.6,264.5c1.5,1,2.8,2.3,3.7,4l0.1,0.4c0,0.2-0.1,0.3-0.3,0.3l-2.4,0.6h-0.1c-0.1,0-0.3-0.1-0.4-0.4
		c-1-1.3-1.9-2.2-2.7-2.8c-0.9-0.6-1.9-0.9-3-0.9c-2.3,0-4.2,0.9-5.5,2.6c-1.4,1.7-2,4-2,6.9s0.7,5.3,2.1,6.9
		c1.4,1.7,3.2,2.5,5.6,2.5c1.4,0,2.6-0.3,3.7-1s2-1.7,2.9-3.2c0.1-0.1,0.2-0.2,0.3-0.2c0.1,0,0.2,0,0.3,0.1l1.9,0.7
		c0.2,0.1,0.3,0.3,0.2,0.6c-0.9,1.7-2.2,3.1-3.8,4.2c-1.6,1.1-3.5,1.6-5.7,1.6s-4.1-0.5-5.8-1.5s-3-2.5-4-4.3s-1.4-3.9-1.4-6.3
		s0.5-4.5,1.4-6.4s2.3-3.3,4-4.4c1.7-1,3.6-1.6,5.8-1.6C336.2,263,338.1,263.5,339.6,264.5z"/>
	<path class="st0" d="M354.2,287.5c-2.3,0-4.1-0.6-5.5-1.8c-1.3-1.2-2-2.7-2-4.7c0-2.4,1-4.2,3-5.6s4.9-2.2,8.7-2.4l3.5-0.3
		c0.5-0.1,0.8-0.3,0.8-0.7v-1.2c0-1.6-0.5-2.9-1.5-3.8s-2.3-1.4-4-1.4c-2.6,0-4.7,1.2-6.4,3.6c-0.1,0.1-0.2,0.2-0.3,0.3
		s-0.2,0-0.4,0l-2.4-0.8c-0.1-0.1-0.2-0.2-0.2-0.3c0-0.1,0-0.2,0.1-0.4c0.9-1.6,2.2-2.8,3.8-3.7s3.6-1.3,5.9-1.3
		c2.9,0,5.1,0.7,6.7,2c1.5,1.3,2.3,3.2,2.3,5.6v15.8c0,0.3,0,0.4-0.1,0.5s-0.3,0.1-0.5,0.1h-2.2c-0.4,0-0.6-0.2-0.6-0.7l-0.1-2
		c0-0.2-0.1-0.3-0.2-0.3s-0.3,0.1-0.4,0.2C359.8,286.4,357.2,287.5,354.2,287.5z M362,275l-2.9,0.3c-2.8,0.2-4.9,0.7-6.4,1.6
		s-2.2,2.1-2.2,3.7c0,1.3,0.5,2.3,1.4,3s2.1,1.1,3.6,1.1c0.9,0,1.8-0.2,2.7-0.5c0.9-0.3,1.7-0.8,2.4-1.3c0.7-0.5,1.2-1.1,1.6-1.7
		s0.6-1.2,0.6-1.8v-3.7C362.7,275.2,362.4,275,362,275z"/>
	<path class="st0" d="M376.6,286.3c0,0.3-0.1,0.5-0.2,0.6s-0.3,0.2-0.6,0.2h-2.3c-0.3,0-0.4,0-0.5-0.1s-0.1-0.3-0.1-0.5v-31.8
		c0-0.4,0.2-0.6,0.5-0.6h2.7c0.4,0,0.5,0.2,0.5,0.6V286.3z"/>
	<path class="st0" d="M397.6,254c0.4,0,0.5,0.2,0.5,0.6v31.7c0,0.3-0.1,0.5-0.2,0.6s-0.3,0.2-0.6,0.2h-2.8c-0.3,0-0.4,0-0.5-0.1
		s-0.1-0.3-0.1-0.5v-31.8c0-0.4,0.2-0.6,0.5-0.6h3.2V254z"/>
	<path class="st0" d="M405.9,286.4V264c0-0.4,0.2-0.6,0.5-0.6h2.7c0.3,0,0.5,0.2,0.5,0.5v2.6c0,0.3,0.1,0.4,0.4,0.1
		c1.7-1.3,3.1-2.2,4.2-2.8c1.2-0.6,2.5-0.8,3.9-0.8c2.3,0,4,0.6,5.3,1.8c1.3,1.2,1.9,2.8,1.9,4.9v16.6c0,0.5-0.2,0.7-0.7,0.7h-2.5
		c-0.4,0-0.6-0.2-0.6-0.6v-15.9c0-1.5-0.4-2.6-1.1-3.4c-0.8-0.8-1.9-1.2-3.5-1.2c-1.2,0-2.4,0.3-3.4,0.8c-1.1,0.5-2.3,1.5-3.8,2.8
		v16.8c0,0.2-0.1,0.4-0.2,0.5s-0.3,0.2-0.5,0.2h-2.4C406.1,287,405.9,286.8,405.9,286.4z"/>
	<path class="st0" d="M444.2,263.9v1.9c0,0.3-0.1,0.4-0.4,0.4h-5.1c-0.2,0-0.4,0.1-0.4,0.4v19.8c0,0.4-0.2,0.6-0.5,0.6h-2.7
		c-0.3,0-0.5-0.2-0.5-0.6v-19.9c0-0.2-0.1-0.4-0.3-0.4h-4.4c-0.3,0-0.4-0.1-0.4-0.4v-1.9c0-0.3,0.2-0.4,0.5-0.4h4.2
		c0.3,0,0.4-0.1,0.4-0.4v-3.2c0-3.8,1.9-5.7,5.6-5.7h3.7c0.4,0,0.6,0.2,0.6,0.5v1.7c0,0.3-0.2,0.4-0.5,0.4h-3.1
		c-1.7,0-2.6,1.1-2.6,3.2v3.1c0,0.3,0.1,0.4,0.4,0.4h5.1C444.1,263.4,444.2,263.6,444.2,263.9z"/>
	<path class="st0" d="M451.8,285.9c-1.7-1-3-2.5-4-4.3c-0.9-1.8-1.4-3.9-1.4-6.3s0.5-4.5,1.4-6.4c1-1.9,2.3-3.3,4-4.4
		s3.7-1.6,5.9-1.6c2.2,0,4.1,0.5,5.9,1.6c1.7,1.1,3,2.5,4,4.4c0.9,1.9,1.4,4,1.4,6.4c0,2.3-0.5,4.4-1.4,6.3c-0.9,1.8-2.3,3.3-4,4.3
		s-3.7,1.6-5.9,1.6C455.4,287.5,453.5,287,451.8,285.9z M463.2,282.1c1.3-1.7,1.9-4,1.9-6.9s-0.7-5.2-2-6.9
		c-1.3-1.7-3.1-2.6-5.4-2.6s-4.1,0.9-5.5,2.6s-2,4-2,6.9s0.7,5.2,2,6.9c1.3,1.7,3.2,2.5,5.5,2.5
		C460.1,284.7,461.9,283.8,463.2,282.1z"/>
	<path class="st0" d="M474.4,286.4V264c0-0.4,0.2-0.6,0.5-0.6h2.6c0.3,0,0.5,0.2,0.5,0.5v2.9c0,0.2,0.1,0.3,0.2,0.3s0.2,0,0.3-0.2
		c2.3-2.6,4.6-4,6.9-4c1,0,1.6,0.2,1.6,0.6v2.7c0,0.3-0.1,0.4-0.4,0.4c-0.5-0.1-1.2-0.1-2-0.1c-0.9,0-1.8,0.3-2.8,0.8
		s-1.9,1.2-2.5,2c-0.7,0.8-1,1.6-1,2.4v14.7c0,0.4-0.2,0.7-0.7,0.7h-2.4C474.7,287,474.4,286.8,474.4,286.4z"/>
	<path class="st0" d="M491.5,286.4V264c0-0.4,0.2-0.6,0.5-0.6h2.7c0.3,0,0.4,0.2,0.4,0.5v2.6c0,0.4,0.1,0.4,0.4,0.1
		c1.6-1.3,3-2.2,4.1-2.8c1.1-0.6,2.4-0.8,3.8-0.8c1.7,0,3,0.4,4.1,1.1s1.8,1.7,2.2,2.8c0.1,0.1,0.1,0.1,0.2,0.1s0.2-0.1,0.4-0.2
		c1.5-1.3,2.9-2.3,4.2-2.9c1.2-0.6,2.5-0.9,3.9-0.9c2.1,0,3.8,0.6,5,1.8c1.2,1.2,1.8,2.9,1.8,4.9v16.6c0,0.5-0.2,0.7-0.7,0.7H522
		c-0.4,0-0.6-0.2-0.6-0.6v-15.9c0-1.5-0.4-2.6-1.1-3.4s-1.8-1.2-3.2-1.2c-1.2,0-2.3,0.3-3.3,0.9s-2,1.3-3,2.2
		c-0.2,0.2-0.4,0.4-0.5,0.6s-0.1,0.4-0.1,0.7v16.1c0,0.5-0.2,0.7-0.7,0.7H507c-0.4,0-0.6-0.2-0.6-0.6v-15.9c0-3.1-1.4-4.6-4.3-4.6
		c-1.2,0-2.3,0.3-3.3,0.8s-2.2,1.5-3.7,2.8v16.8c0,0.2-0.1,0.4-0.2,0.5s-0.3,0.2-0.5,0.2H492C491.7,287,491.5,286.8,491.5,286.4z"/>
	<path class="st0" d="M537.6,287.5c-2.3,0-4.1-0.6-5.5-1.8c-1.3-1.2-2-2.7-2-4.7c0-2.4,1-4.2,3-5.6s4.9-2.2,8.7-2.4l3.5-0.3
		c0.5-0.1,0.8-0.3,0.8-0.7v-1.2c0-1.6-0.5-2.9-1.5-3.8s-2.3-1.4-4-1.4c-2.6,0-4.7,1.2-6.4,3.6c-0.1,0.1-0.2,0.2-0.3,0.3
		s-0.2,0-0.4,0l-2.4-0.8c-0.1-0.1-0.2-0.2-0.2-0.3c0-0.1,0-0.2,0.1-0.4c0.9-1.6,2.2-2.8,3.8-3.7s3.6-1.3,5.9-1.3
		c2.9,0,5.1,0.7,6.7,2c1.5,1.3,2.3,3.2,2.3,5.6v15.8c0,0.3,0,0.4-0.1,0.5s-0.3,0.1-0.5,0.1h-2.2c-0.4,0-0.6-0.2-0.6-0.7l-0.1-2
		c0-0.2-0.1-0.3-0.2-0.3c-0.1,0-0.3,0.1-0.4,0.2C543.2,286.4,540.6,287.5,537.6,287.5z M545.4,275l-2.9,0.3
		c-2.8,0.2-4.9,0.7-6.4,1.6s-2.2,2.1-2.2,3.7c0,1.3,0.5,2.3,1.4,3s2.1,1.1,3.6,1.1c0.9,0,1.8-0.2,2.7-0.5s1.7-0.8,2.4-1.3
		s1.2-1.1,1.6-1.7c0.4-0.6,0.6-1.2,0.6-1.8v-3.7C546.1,275.2,545.9,275,545.4,275z"/>
	<path class="st0" d="M562.4,266.2c-0.2,0-0.4,0.1-0.4,0.4v14.1c0,1.3,0.2,2.3,0.7,2.8c0.4,0.5,1.2,0.8,2.2,0.8h3.1
		c0.3,0,0.5,0.2,0.5,0.5v1.5c0,0.3-0.2,0.5-0.5,0.6c-0.8,0.1-2.2,0.2-4.2,0.2c-1.9,0-3.2-0.4-4.1-1.3c-0.9-0.9-1.3-2.3-1.3-4.2
		v-14.9c0-0.3-0.1-0.5-0.4-0.5h-3.6c-0.3,0-0.5-0.1-0.5-0.4v-1.9c0-0.3,0.1-0.4,0.4-0.4h3.8c0.2,0,0.3-0.1,0.3-0.4l0.5-7.1
		c0-0.4,0.2-0.6,0.5-0.6h2.2c0.4,0,0.5,0.2,0.5,0.6v7c0,0.2,0.1,0.4,0.4,0.4h5.6c0.3,0,0.5,0.1,0.5,0.4v1.9c0,0.3-0.2,0.4-0.5,0.4
		h-5.7V266.2z"/>
	<path class="st0" d="M577.3,258.4c0,0.3-0.1,0.5-0.2,0.6c-0.1,0.1-0.3,0.2-0.6,0.2h-2.6c-0.4,0-0.7-0.3-0.7-0.8v-3.7
		c0-0.5,0.2-0.7,0.6-0.7h2.8c0.2,0,0.3,0.1,0.4,0.2c0.1,0.1,0.2,0.3,0.2,0.5L577.3,258.4L577.3,258.4z M577.2,286.3
		c0,0.3-0.1,0.5-0.2,0.6c-0.1,0.1-0.3,0.2-0.6,0.2h-2.3c-0.3,0-0.4,0-0.5-0.1s-0.1-0.3-0.1-0.5v-22.3c0-0.4,0.2-0.6,0.5-0.6h2.7
		c0.3,0,0.5,0.2,0.5,0.6L577.2,286.3L577.2,286.3z"/>
	<path class="st0" d="M588,285.9c-1.7-1-3-2.5-4-4.3c-0.9-1.8-1.4-3.9-1.4-6.3s0.5-4.5,1.4-6.4c1-1.9,2.3-3.3,4-4.4s3.7-1.6,5.9-1.6
		s4.1,0.5,5.9,1.6c1.7,1.1,3,2.5,4,4.4c0.9,1.9,1.4,4,1.4,6.4c0,2.3-0.5,4.4-1.4,6.3c-0.9,1.8-2.3,3.3-4,4.3s-3.7,1.6-5.9,1.6
		S589.7,287,588,285.9z M599.4,282.1c1.3-1.7,1.9-4,1.9-6.9s-0.7-5.2-2-6.9c-1.3-1.7-3.1-2.6-5.4-2.6c-2.3,0-4.1,0.9-5.5,2.6
		s-2,4-2,6.9s0.7,5.2,2,6.9c1.3,1.7,3.2,2.5,5.5,2.5C596.3,284.7,598.1,283.8,599.4,282.1z"/>
	<path class="st0" d="M610.7,286.4V264c0-0.4,0.2-0.6,0.5-0.6h2.7c0.3,0,0.5,0.2,0.5,0.5v2.6c0,0.3,0.1,0.4,0.4,0.1
		c1.7-1.3,3.1-2.2,4.2-2.8c1.2-0.6,2.5-0.8,3.9-0.8c2.3,0,4,0.6,5.3,1.8c1.3,1.2,1.9,2.8,1.9,4.9v16.6c0,0.5-0.2,0.7-0.7,0.7h-2.5
		c-0.4,0-0.6-0.2-0.6-0.6v-15.9c0-1.5-0.4-2.6-1.1-3.4c-0.8-0.8-1.9-1.2-3.5-1.2c-1.2,0-2.4,0.3-3.4,0.8c-1.1,0.5-2.3,1.5-3.8,2.8
		v16.8c0,0.2-0.1,0.4-0.2,0.5c-0.1,0.1-0.3,0.2-0.5,0.2h-2.4C610.9,287,610.7,286.8,610.7,286.4z"/>
	<path class="st0" d="M657.4,256.8c-2.2,0-4,0.5-5.3,1.5s-1.9,2.3-1.9,4.1c0,2.3,1.6,4,4.8,5.1l6.5,2.1c2.6,0.9,4.5,2,5.7,3.4
		s1.8,3.2,1.8,5.3c0,2.8-1.1,5.1-3.2,6.7c-2.1,1.6-5,2.4-8.6,2.4c-2.7,0-5-0.5-7.1-1.4c-2-0.9-3.7-2.3-4.9-4.1
		c-0.1-0.2-0.2-0.4-0.2-0.4c0-0.2,0.1-0.4,0.4-0.6l1.6-1.1c0.3-0.2,0.5-0.3,0.6-0.3c0.2,0,0.3,0.1,0.5,0.3c1.3,1.6,2.5,2.8,3.8,3.5
		c1.2,0.7,2.9,1,5,1c2.5,0,4.4-0.4,5.8-1.3c1.4-0.9,2.1-2.3,2.1-4.1c0-1.2-0.4-2.1-1.1-3c-0.7-0.8-2-1.6-3.9-2.3l-6.8-2.3
		c-2.3-0.8-4.1-2-5.2-3.4c-1.1-1.5-1.7-3.2-1.7-5s0.5-3.5,1.4-4.8s2.3-2.5,4-3.2c1.7-0.8,3.7-1.1,5.9-1.1s4.1,0.4,5.9,1.2
		c1.8,0.8,3.3,1.9,4.5,3.2c0.1,0.1,0.2,0.3,0.2,0.4s-0.1,0.3-0.2,0.4l-2,1.6c-0.1,0.1-0.2,0.1-0.3,0.1s-0.3-0.1-0.5-0.4
		C663.1,257.9,660.6,256.8,657.4,256.8z"/>
	<path class="st0" d="M678.3,280.7c0.7,1.2,1.6,2.2,2.8,2.9c1.2,0.7,2.5,1.1,3.9,1.1c3,0,5.3-1.2,6.9-3.7c0.1-0.1,0.2-0.2,0.3-0.2
		s0.2,0,0.3,0.1l1.9,0.9c0.2,0.1,0.3,0.4,0.1,0.6c-1.2,1.8-2.5,3.1-4.1,3.9s-3.5,1.2-5.7,1.2s-4.1-0.5-5.8-1.5s-3.1-2.4-4-4.2
		c-1-1.8-1.4-3.9-1.4-6.3c0-2.5,0.5-4.7,1.5-6.6s2.3-3.3,4-4.3s3.6-1.5,5.8-1.5c2.1,0,4,0.5,5.6,1.4c1.6,1,2.9,2.3,3.8,4.2
		c0.9,1.8,1.3,4,1.3,6.5v0.2c0,0.3,0,0.5-0.1,0.6s-0.3,0.2-0.5,0.2h-17c-0.3,0-0.4,0.2-0.4,0.7C677.3,278.1,677.6,279.4,678.3,280.7
		z M690.9,273.6c0.3,0,0.5,0,0.6-0.1s0.1-0.2,0.1-0.5c0-1.3-0.3-2.5-0.8-3.6s-1.4-2-2.4-2.7c-1.1-0.7-2.3-1-3.7-1
		c-1.5,0-2.8,0.4-4,1.1c-1.1,0.8-2,1.7-2.6,2.9c-0.6,1.2-0.9,2.5-0.8,3.8h13.6V273.6z"/>
	<path class="st0" d="M700.6,286.4V264c0-0.4,0.2-0.6,0.5-0.6h2.6c0.3,0,0.5,0.2,0.5,0.5v2.9c0,0.2,0.1,0.3,0.2,0.3
		c0.1,0,0.2,0,0.3-0.2c2.3-2.6,4.6-4,6.9-4c1,0,1.6,0.2,1.6,0.6v2.7c0,0.3-0.1,0.4-0.4,0.4c-0.5-0.1-1.2-0.1-2-0.1
		c-0.9,0-1.8,0.3-2.8,0.8s-1.9,1.2-2.5,2c-0.7,0.8-1,1.6-1,2.4v14.7c0,0.4-0.2,0.7-0.7,0.7h-2.4C700.8,287,700.6,286.8,700.6,286.4z
		"/>
	<path class="st0" d="M737.3,263.6c0.1,0.1,0.1,0.3,0,0.4l-9,22.3c-0.1,0.4-0.5,0.7-1,0.7h-1.6c-0.6,0-0.9-0.2-1.1-0.6l-9-22.3
		c0-0.1,0-0.1,0-0.2c0-0.3,0.2-0.4,0.5-0.4h2.8c0.3,0,0.6,0.2,0.7,0.5l7,17.5c0.1,0.3,0.2,0.4,0.3,0.4s0.3-0.2,0.4-0.5l6.9-17.4
		c0.1-0.3,0.3-0.5,0.7-0.5h2C737.1,263.4,737.2,263.5,737.3,263.6z"/>
	<path class="st0" d="M745.9,258.4c0,0.3-0.1,0.5-0.2,0.6c-0.1,0.1-0.3,0.2-0.6,0.2h-2.6c-0.4,0-0.7-0.3-0.7-0.8v-3.7
		c0-0.5,0.2-0.7,0.6-0.7h2.8c0.2,0,0.3,0.1,0.4,0.2c0.1,0.1,0.2,0.3,0.2,0.5L745.9,258.4L745.9,258.4z M745.8,286.3
		c0,0.3-0.1,0.5-0.2,0.6c-0.1,0.1-0.3,0.2-0.6,0.2h-2.3c-0.3,0-0.4,0-0.5-0.1s-0.1-0.3-0.1-0.5v-22.3c0-0.4,0.2-0.6,0.5-0.6h2.7
		c0.3,0,0.5,0.2,0.5,0.6L745.8,286.3L745.8,286.3z"/>
	<path class="st0" d="M768,264.5c1.5,1,2.8,2.3,3.7,4l0.1,0.4c0,0.2-0.1,0.3-0.3,0.3l-2.4,0.6H769c-0.1,0-0.3-0.1-0.4-0.4
		c-1-1.3-1.9-2.2-2.7-2.8c-0.9-0.6-1.9-0.9-3-0.9c-2.3,0-4.2,0.9-5.5,2.6c-1.4,1.7-2,4-2,6.9s0.7,5.3,2.1,6.9
		c1.4,1.7,3.2,2.5,5.6,2.5c1.4,0,2.6-0.3,3.7-1c1.1-0.7,2-1.7,2.9-3.2c0.1-0.1,0.2-0.2,0.3-0.2s0.2,0,0.3,0.1l1.9,0.7
		c0.2,0.1,0.3,0.3,0.2,0.6c-0.9,1.7-2.2,3.1-3.8,4.2s-3.5,1.6-5.7,1.6s-4.1-0.5-5.8-1.5s-3-2.5-4-4.3s-1.4-3.9-1.4-6.3
		s0.5-4.5,1.4-6.4s2.3-3.3,4-4.4c1.7-1,3.6-1.6,5.8-1.6C764.6,263,766.5,263.5,768,264.5z"/>
	<path class="st0" d="M780.3,280.7c0.7,1.2,1.6,2.2,2.8,2.9c1.2,0.7,2.5,1.1,3.9,1.1c3,0,5.3-1.2,6.9-3.7c0.1-0.1,0.2-0.2,0.3-0.2
		s0.2,0,0.3,0.1l1.9,0.9c0.2,0.1,0.3,0.4,0.1,0.6c-1.2,1.8-2.5,3.1-4.1,3.9s-3.5,1.2-5.7,1.2s-4.1-0.5-5.8-1.5s-3.1-2.4-4-4.2
		c-1-1.8-1.4-3.9-1.4-6.3c0-2.5,0.5-4.7,1.5-6.6s2.3-3.3,4-4.3s3.6-1.5,5.8-1.5c2.1,0,4,0.5,5.6,1.4c1.6,1,2.9,2.3,3.8,4.2
		c0.9,1.8,1.3,4,1.3,6.5v0.2c0,0.3,0,0.5-0.1,0.6s-0.3,0.2-0.5,0.2h-17c-0.3,0-0.4,0.2-0.4,0.7C779.3,278.1,779.6,279.4,780.3,280.7
		z M792.9,273.6c0.3,0,0.5,0,0.6-0.1s0.1-0.2,0.1-0.5c0-1.3-0.3-2.5-0.8-3.6s-1.4-2-2.4-2.7c-1.1-0.7-2.3-1-3.7-1
		c-1.5,0-2.8,0.4-4,1.1c-1.1,0.8-2,1.7-2.6,2.9c-0.6,1.2-0.9,2.5-0.8,3.8h13.6V273.6z"/>
</g>
</svg>
