<?xml version="1.0" encoding="utf-8"?>
<!-- Generator: Adobe Illustrator 19.2.1, SVG Export Plug-In . SVG Version: 6.00 Build 0)  -->
<svg version="1.1" id="Layer_1" xmlns="http://www.w3.org/2000/svg" xmlns:xlink="http://www.w3.org/1999/xlink" x="0px" y="0px"
	 viewBox="0 0 1624.7 188.4" style="enable-background:new 0 0 1624.7 188.4;" xml:space="preserve">
<style type="text/css">
	.st0{fill:#FFFFFF;}
	.st1{fill:#9BDAF1;}
</style>
<path class="st0" d="M316.8,21.2h-2.3v158.6c0,3.9-3.1,5.4-9.6,5.4c-6.6,0-9.6-1.9-9.6-5.4V22.4c0-6.9,0.8-12,2.7-14.3
	c1.9-2.3,5.8-3.9,12-3.9h5.4c11.2,0,18.9,1.2,22.8,3.9s6.9,9.3,9.6,19.3l31.6,127.7c1.5,5.8,2.7,9.6,4.2,10.8s4.6,2.3,9.6,2.3h2.3
	V9.6c0-3.9,3.1-5.4,9.6-5.4s9.6,1.9,9.6,5.4v157.5c0,6.9-0.8,12-2.7,14.3c-1.9,2.3-5.8,3.9-12,3.9h-5.4c-11.2,0-18.9-1.2-22.8-3.9
	s-6.9-9.3-9.6-19.3L330.7,34.3c-1.5-5.8-2.7-9.6-4.2-10.8C325.3,21.6,322.2,21.2,316.8,21.2z"/>
<path class="st0" d="M461.2,3.9h102.3c3.1,0,5,2.7,5,8.5s-1.5,8.5-5,8.5h-41.3v158.6c0,3.9-3.1,5.4-9.6,5.4c-6.6,0-9.6-1.9-9.6-5.4
	V21.2h-41.3c-3.1,0-5-2.7-5-8.5C456.5,6.9,457.7,3.9,461.2,3.9z"/>
<path class="st0" d="M631.4,8.5v171.3c0,3.9-3.1,5.4-9.6,5.4s-9.6-1.9-9.6-5.4V8.5c0-3.9,3.1-5.4,9.6-5.4S631.4,4.6,631.4,8.5z"/>
<path class="st0" d="M781.1,151.7v-27.4c0.4-4.6-1.9-9.3-6.2-11.6c-6.9-3.5-14.3-5.8-22-7.3l-21.6-5c-7.7-1.5-15.4-3.9-22.4-7.7
	c-10.8-5.8-16.2-17.4-16.2-35.1v-19c0-13.5,4.6-23.2,14.3-29.3c9.6-6.2,22.4-9.3,38.2-9.3s28.6,3.1,38.2,9.3
	c9.6,6.2,14.3,15.8,14.3,29.3v10.8c0,3.9-3.1,5.4-9.6,5.4s-9.6-1.9-9.6-5.4V36.3c0-12.7-11.2-18.9-33.2-18.9S712,23.5,712,36.3v20.8
	c0,8.9,1.2,15,3.9,18.5s7.7,5.8,15.1,7.3l21.6,5c8.9,1.5,17.8,3.9,26.6,6.9c2.3,1.5,5,2.7,7.7,3.9c2.3,0.8,4.2,2.7,5.8,4.6
	c1.2,1.5,2.3,3.5,3.9,5.8c2.7,5.4,3.9,11.2,3.5,17.4v23.2c0.8,12-5.4,23.2-15.8,29.3c-12.3,6.6-26.2,9.6-40.1,9.3
	c-13.9,0.4-27.4-2.7-39.7-9.3c-10.4-6.2-15.4-15.8-15.4-29.3v-10.8c0-3.9,3.1-5.4,9.6-5.4c6.6,0,9.6,1.9,9.6,5.4V152
	c0,6.6,3.9,12.4,10,14.3c8.1,3.5,16.6,5,25.5,4.6c8.9,0.4,17.8-1.2,25.9-4.6C777.6,162.9,781.1,158.2,781.1,151.7z"/>
<polygon class="st1" points="0,118.9 46.3,119.9 46.3,187.6 0,187.6 "/>
<rect x="69.5" y="1" class="st1" width="46.3" height="186.6"/>
<rect x="143.2" y="52.7" class="st1" width="46.3" height="135.2"/>
<g>
	<path class="st0" d="M943.4,13c0.3,0,0.5,0.1,0.7,0.2c0.1,0.1,0.2,0.4,0.2,0.8v57.4c0,0.6-0.3,1-1,1h-3.9c-0.4,0-0.8,0-1-0.1
		s-0.5-0.3-0.7-0.5l-30.9-44.9c-0.2-0.4-0.4-0.5-0.6-0.5s-0.3,0.2-0.3,0.6v44.4c0,0.7-0.4,1-1.1,1h-4.5c-0.7,0-1-0.3-1-1V14.1
		c0-0.4,0.1-0.7,0.2-0.9c0.1-0.2,0.4-0.2,0.8-0.2h4.6c0.4,0,0.7,0.1,1,0.2c0.2,0.1,0.5,0.3,0.7,0.6l30,43.9c0.3,0.3,0.5,0.5,0.7,0.5
		c0.3,0,0.5-0.2,0.5-0.7V14c0-0.6,0.3-1,1-1H943.4L943.4,13z"/>
	<path class="st0" d="M968.6,73.2c-4.2,0-7.4-1.1-9.8-3.2c-2.4-2.1-3.6-4.9-3.6-8.4c0-4.3,1.8-7.6,5.4-10.1
		c3.6-2.5,8.8-3.9,15.6-4.3l6.2-0.5c0.9-0.1,1.4-0.5,1.4-1.2v-2.2c0-2.9-0.9-5.2-2.7-6.8c-1.8-1.7-4.2-2.5-7.2-2.5
		c-4.7,0-8.5,2.1-11.5,6.4c-0.2,0.3-0.3,0.4-0.5,0.5s-0.4,0.1-0.6,0l-4.3-1.4c-0.3-0.1-0.4-0.3-0.4-0.6c0-0.2,0.1-0.4,0.2-0.7
		c1.6-2.8,3.9-5,6.8-6.6c3-1.6,6.5-2.4,10.5-2.4c5.2,0,9.2,1.2,12,3.6c2.8,2.4,4.2,5.8,4.2,10v28.3c0,0.5-0.1,0.8-0.2,1
		c-0.2,0.2-0.5,0.2-0.9,0.2h-4c-0.6,0-1-0.4-1.1-1.3l-0.2-3.7c-0.1-0.4-0.2-0.6-0.4-0.6s-0.5,0.1-0.7,0.4
		C978.8,71.2,974,73.2,968.6,73.2z M982.7,50.8l-5.2,0.5c-5,0.3-8.8,1.3-11.5,2.9c-2.7,1.6-4,3.8-4,6.6c0,2.3,0.8,4.1,2.4,5.4
		c1.6,1.3,3.8,2,6.5,2c1.7,0,3.3-0.3,4.9-0.9c1.6-0.6,3-1.4,4.2-2.4s2.2-2,2.8-3.1c0.7-1.1,1-2.1,1-3.2V52
		C983.9,51.2,983.5,50.8,982.7,50.8z"/>
	<path class="st0" d="M1013.3,34.9c-0.4,0-0.6,0.2-0.6,0.7V61c0,2.4,0.4,4.1,1.2,5s2.1,1.4,3.9,1.4h5.5c0.6,0,0.9,0.3,0.9,0.9
		l-0.1,2.7c0,0.5-0.3,0.9-1,1c-1.4,0.3-3.9,0.4-7.5,0.4c-3.4,0-5.8-0.8-7.4-2.4c-1.5-1.6-2.3-4.1-2.3-7.5V35.8
		c0-0.6-0.3-0.9-0.8-0.9h-6.4c-0.6,0-0.9-0.3-0.9-0.8v-3.4c0-0.5,0.3-0.8,0.8-0.8h6.8c0.4,0,0.6-0.2,0.6-0.6l0.9-12.7
		c0-0.7,0.3-1,0.9-1h4c0.6,0,1,0.4,1,1.1v12.6c0,0.4,0.2,0.6,0.6,0.6h10.1c0.6,0,0.9,0.2,0.9,0.7V34c0,0.5-0.3,0.8-0.9,0.8h-10.2
		V34.9z"/>
	<path class="st0" d="M1040.1,20.8c0,0.5-0.1,0.9-0.3,1.2c-0.2,0.2-0.6,0.4-1.1,0.4h-4.6c-0.8,0-1.2-0.5-1.2-1.4v-6.7
		c0-0.9,0.4-1.3,1.1-1.3h5c0.3,0,0.6,0.1,0.8,0.3c0.2,0.2,0.3,0.5,0.3,0.9L1040.1,20.8L1040.1,20.8z M1039.7,71
		c0,0.5-0.1,0.9-0.3,1.1c-0.2,0.2-0.6,0.3-1.1,0.3h-4.1c-0.5,0-0.8-0.1-1-0.2c-0.2-0.2-0.2-0.5-0.2-0.9V31.1c0-0.7,0.3-1.1,1-1.1
		h4.9c0.6,0,0.9,0.3,0.9,1L1039.7,71L1039.7,71z"/>
	<path class="st0" d="M1059.3,70.4c-3.1-1.8-5.4-4.4-7.1-7.7s-2.5-7.1-2.5-11.3c0-4.3,0.9-8.2,2.6-11.5c1.7-3.4,4.1-6,7.2-7.9
		c3.1-1.9,6.6-2.8,10.5-2.8s7.5,0.9,10.5,2.8c3.1,1.9,5.4,4.5,7.1,7.9s2.5,7.2,2.5,11.4s-0.9,8-2.6,11.3s-4.1,5.9-7.2,7.8
		s-6.6,2.8-10.5,2.8C1065.9,73.2,1062.4,72.2,1059.3,70.4z M1079.8,63.6c2.3-3,3.5-7.2,3.5-12.4s-1.2-9.4-3.6-12.4
		c-2.4-3.1-5.6-4.6-9.7-4.6c-4.2,0-7.4,1.5-9.8,4.6s-3.6,7.2-3.6,12.4s1.2,9.4,3.6,12.4s5.7,4.6,9.9,4.6
		C1074.2,68.1,1077.5,66.6,1079.8,63.6z"/>
	<path class="st0" d="M1100.1,71.3V31c0-0.7,0.3-1,0.9-1h4.8c0.6,0,0.9,0.3,0.9,0.9v4.6c0,0.6,0.2,0.7,0.7,0.2c3-2.3,5.5-4,7.6-5
		s4.5-1.5,7.1-1.5c4.1,0,7.2,1.1,9.5,3.3s3.4,5.1,3.4,8.8v29.8c0,0.9-0.4,1.3-1.2,1.3h-4.5c-0.7,0-1-0.3-1-1V42.8
		c0-2.7-0.7-4.7-2-6.2c-1.4-1.4-3.5-2.2-6.3-2.2c-2.2,0-4.3,0.5-6.2,1.5c-1.9,1-4.2,2.7-6.9,5v30.2c0,0.4-0.1,0.7-0.3,0.9
		c-0.2,0.2-0.5,0.3-0.9,0.3h-4.4C1100.4,72.4,1100.1,72,1100.1,71.3z"/>
	<path class="st0" d="M1157.2,73.2c-4.2,0-7.4-1.1-9.8-3.2s-3.6-4.9-3.6-8.4c0-4.3,1.8-7.6,5.4-10.1s8.8-3.9,15.6-4.3l6.2-0.5
		c0.9-0.1,1.4-0.5,1.4-1.2v-2.2c0-2.9-0.9-5.2-2.7-6.8c-1.8-1.7-4.2-2.5-7.2-2.5c-4.7,0-8.5,2.1-11.5,6.4c-0.2,0.3-0.3,0.4-0.5,0.5
		s-0.4,0.1-0.6,0l-4.3-1.4c-0.3-0.1-0.4-0.3-0.4-0.6c0-0.2,0.1-0.4,0.2-0.7c1.6-2.8,3.9-5,6.8-6.6c3-1.6,6.5-2.4,10.5-2.4
		c5.2,0,9.2,1.2,12,3.6c2.8,2.4,4.2,5.8,4.2,10v28.3c0,0.5-0.1,0.8-0.2,1c-0.2,0.2-0.5,0.2-0.9,0.2h-4c-0.6,0-1-0.4-1.1-1.3
		l-0.2-3.7c-0.1-0.4-0.2-0.6-0.4-0.6s-0.5,0.1-0.7,0.4C1167.3,71.2,1162.6,73.2,1157.2,73.2z M1171.3,50.8l-5.2,0.5
		c-5,0.3-8.8,1.3-11.5,2.9c-2.7,1.6-4,3.8-4,6.6c0,2.3,0.8,4.1,2.4,5.4c1.6,1.3,3.8,2,6.5,2c1.7,0,3.3-0.3,4.9-0.9s3-1.4,4.2-2.4
		s2.2-2,2.8-3.1c0.7-1.1,1-2.1,1-3.2V52C1172.5,51.2,1172.1,50.8,1171.3,50.8z"/>
	<path class="st0" d="M1197.4,71c0,0.5-0.1,0.9-0.3,1.1c-0.2,0.2-0.6,0.3-1.1,0.3h-4.2c-0.5,0-0.8-0.1-1-0.2
		c-0.2-0.2-0.2-0.5-0.2-0.9l0.1-57.1c0-0.7,0.3-1.1,1-1.1h4.8c0.6,0,1,0.3,1,1L1197.4,71L1197.4,71z"/>
	<path class="st0" d="M1224.1,13.9c0-0.6,0.3-0.9,1-0.9h43c0.6,0,1,0.3,1,0.9V18c0,0.3-0.1,0.5-0.2,0.6c-0.2,0.1-0.4,0.2-0.7,0.2
		H1252c-0.3,0-0.5,0.1-0.7,0.2c-0.1,0.1-0.2,0.3-0.2,0.6v51.7c0,0.7-0.3,1-1,1h-5.8c-0.6,0-1-0.3-1-1V19.7c0-0.4-0.1-0.6-0.2-0.7
		s-0.3-0.2-0.6-0.2h-17.4c-0.3,0-0.6-0.1-0.7-0.2c-0.2-0.1-0.2-0.3-0.2-0.6L1224.1,13.9L1224.1,13.9z"/>
	<path class="st0" d="M1276.4,60.9c1.3,2.2,2.9,3.9,5.1,5.2c2.1,1.3,4.5,1.9,7,1.9c5.3,0,9.5-2.2,12.5-6.6c0.2-0.2,0.4-0.3,0.6-0.4
		c0.2,0,0.3,0,0.6,0.1l3.4,1.7c0.4,0.3,0.5,0.6,0.2,1.1c-2.1,3.2-4.6,5.5-7.4,7c-2.9,1.5-6.3,2.2-10.3,2.2c-3.9,0-7.4-0.9-10.5-2.7
		c-3.1-1.8-5.5-4.4-7.2-7.6c-1.7-3.3-2.6-7-2.6-11.2c0-4.5,0.9-8.5,2.6-11.9c1.8-3.4,4.2-6,7.2-7.8c3.1-1.8,6.5-2.7,10.4-2.7
		s7.2,0.9,10.1,2.6c2.9,1.7,5.2,4.2,6.8,7.5c1.6,3.3,2.4,7.2,2.4,11.6v0.3c0,0.5-0.1,0.8-0.2,1.1c-0.2,0.2-0.5,0.4-1,0.4h-30.6
		c-0.5,0-0.7,0.4-0.7,1.2C1274.5,56.4,1275.2,58.7,1276.4,60.9z M1299,48.2c0.6,0,1-0.1,1.1-0.2c0.2-0.1,0.2-0.4,0.2-0.9
		c0-2.3-0.5-4.5-1.5-6.5s-2.4-3.6-4.3-4.8s-4.1-1.8-6.6-1.8c-2.7,0-5.1,0.7-7.1,2c-2,1.4-3.6,3.1-4.6,5.3c-1.1,2.2-1.6,4.5-1.5,6.9
		H1299L1299,48.2z"/>
	<path class="st0" d="M1344.1,31.9c2.7,1.8,4.9,4.2,6.6,7.2l0.2,0.6c0,0.3-0.2,0.5-0.6,0.6l-4.4,1l-0.2,0.1c-0.3,0-0.5-0.2-0.8-0.6
		c-1.7-2.3-3.3-4-4.9-5c-1.6-1.1-3.4-1.6-5.4-1.6c-4.2,0-7.5,1.5-9.9,4.6c-2.5,3.1-3.7,7.2-3.7,12.4c0,5.3,1.2,9.4,3.7,12.5
		c2.5,3,5.8,4.6,10,4.6c2.5,0,4.7-0.6,6.6-1.8c1.9-1.2,3.6-3.1,5.2-5.7c0.2-0.3,0.3-0.4,0.5-0.4s0.3,0,0.6,0.1l3.4,1.3
		c0.4,0.2,0.5,0.5,0.3,1c-1.7,3.1-3.9,5.6-6.8,7.6c-2.9,1.9-6.3,2.9-10.3,2.9c-3.9,0-7.4-0.9-10.4-2.8s-5.4-4.4-7.1-7.7
		s-2.6-7.1-2.6-11.4s0.9-8.1,2.6-11.5s4.1-6,7.2-7.9s6.5-2.8,10.4-2.8C1338,29.2,1341.3,30.1,1344.1,31.9z"/>
	<path class="st0" d="M1360,71.3V14c0-0.7,0.3-1,0.9-1h4.7c0.6,0,0.9,0.3,0.9,1v21.4c0,0.6,0.2,0.7,0.7,0.2c3-2.3,5.6-4,7.8-5
		c2.1-1,4.5-1.4,7-1.4c4.1,0,7.3,1.1,9.5,3.3s3.3,5.1,3.3,8.9v29.8c0,0.9-0.4,1.3-1.2,1.3h-4.5c-0.7,0-1-0.3-1-1V42.8
		c0-2.7-0.7-4.7-2-6.2c-1.4-1.4-3.5-2.2-6.3-2.2c-2.2,0-4.3,0.5-6.1,1.5c-1.8,1-4.1,2.7-6.9,5v30.2c0,0.8-0.4,1.2-1.3,1.2h-4.4
		C1360.3,72.4,1360,72,1360,71.3z"/>
	<path class="st0" d="M1406.6,71.3V31c0-0.7,0.3-1,0.9-1h4.8c0.6,0,0.9,0.3,0.9,0.9v4.6c0,0.6,0.2,0.7,0.7,0.2c3-2.3,5.5-4,7.6-5
		s4.5-1.5,7.1-1.5c4.1,0,7.2,1.1,9.5,3.3s3.4,5.1,3.4,8.8v29.8c0,0.9-0.4,1.3-1.2,1.3h-4.5c-0.7,0-1-0.3-1-1V42.8
		c0-2.7-0.7-4.7-2-6.2c-1.4-1.4-3.5-2.2-6.3-2.2c-2.2,0-4.3,0.5-6.2,1.5c-1.9,1-4.2,2.7-6.9,5v30.2c0,0.4-0.1,0.7-0.3,0.9
		c-0.2,0.2-0.5,0.3-0.9,0.3h-4.4C1407,72.4,1406.6,72,1406.6,71.3z"/>
	<path class="st0" d="M1460.4,20.8c0,0.5-0.1,0.9-0.3,1.2c-0.2,0.2-0.6,0.4-1.1,0.4h-4.6c-0.8,0-1.2-0.5-1.2-1.4v-6.7
		c0-0.9,0.4-1.3,1.1-1.3h5c0.3,0,0.6,0.1,0.8,0.3c0.2,0.2,0.3,0.5,0.3,0.9L1460.4,20.8L1460.4,20.8z M1460.1,71
		c0,0.5-0.1,0.9-0.3,1.1c-0.2,0.2-0.6,0.3-1.1,0.3h-4.1c-0.5,0-0.8-0.1-1-0.2c-0.2-0.2-0.2-0.5-0.2-0.9V31.1c0-0.7,0.3-1.1,1-1.1
		h4.9c0.6,0,0.9,0.3,0.9,1L1460.1,71L1460.1,71z"/>
	<path class="st0" d="M1500,31.9c2.7,1.8,4.9,4.2,6.6,7.2l0.2,0.6c0,0.3-0.2,0.5-0.6,0.6l-4.4,1l-0.2,0.1c-0.3,0-0.5-0.2-0.8-0.6
		c-1.7-2.3-3.3-4-4.9-5c-1.6-1.1-3.4-1.6-5.4-1.6c-4.2,0-7.5,1.5-9.9,4.6c-2.5,3.1-3.7,7.2-3.7,12.4c0,5.3,1.2,9.4,3.7,12.5
		c2.5,3,5.8,4.6,10,4.6c2.5,0,4.7-0.6,6.6-1.8c1.9-1.2,3.6-3.1,5.2-5.7c0.2-0.3,0.3-0.4,0.5-0.4s0.3,0,0.6,0.1l3.4,1.3
		c0.4,0.2,0.5,0.5,0.3,1c-1.7,3.1-3.9,5.6-6.8,7.6c-2.9,1.9-6.3,2.9-10.3,2.9c-3.9,0-7.4-0.9-10.4-2.8s-5.4-4.4-7.1-7.7
		s-2.6-7.1-2.6-11.4s0.9-8.1,2.6-11.5s4.1-6,7.2-7.9s6.5-2.8,10.4-2.8C1493.9,29.2,1497.3,30.1,1500,31.9z"/>
	<path class="st0" d="M1526.2,73.2c-4.2,0-7.4-1.1-9.8-3.2s-3.6-4.9-3.6-8.4c0-4.3,1.8-7.6,5.4-10.1s8.8-3.9,15.6-4.3l6.2-0.5
		c0.9-0.1,1.4-0.5,1.4-1.2v-2.2c0-2.9-0.9-5.2-2.7-6.8c-1.8-1.7-4.2-2.5-7.2-2.5c-4.7,0-8.5,2.1-11.5,6.4c-0.2,0.3-0.3,0.4-0.5,0.5
		s-0.4,0.1-0.6,0l-4.3-1.4c-0.3-0.1-0.4-0.3-0.4-0.6c0-0.2,0.1-0.4,0.2-0.7c1.6-2.8,3.9-5,6.8-6.6c3-1.6,6.5-2.4,10.5-2.4
		c5.2,0,9.2,1.2,12,3.6c2.8,2.4,4.2,5.8,4.2,10v28.3c0,0.5-0.1,0.8-0.2,1c-0.2,0.2-0.5,0.2-0.9,0.2h-4c-0.6,0-1-0.4-1.1-1.3
		l-0.2-3.7c-0.1-0.4-0.2-0.6-0.4-0.6s-0.5,0.1-0.7,0.4C1536.3,71.2,1531.6,73.2,1526.2,73.2z M1540.3,50.8l-5.2,0.5
		c-5,0.3-8.8,1.3-11.5,2.9c-2.7,1.6-4,3.8-4,6.6c0,2.3,0.8,4.1,2.4,5.4c1.6,1.3,3.8,2,6.5,2c1.7,0,3.3-0.3,4.9-0.9s3-1.4,4.2-2.4
		s2.2-2,2.8-3.1c0.7-1.1,1-2.1,1-3.2V52C1541.5,51.2,1541.1,50.8,1540.3,50.8z"/>
	<path class="st0" d="M1566.5,71c0,0.5-0.1,0.9-0.3,1.1c-0.2,0.2-0.6,0.3-1.1,0.3h-4.2c-0.5,0-0.8-0.1-1-0.2
		c-0.2-0.2-0.2-0.5-0.2-0.9l0.1-57.1c0-0.7,0.3-1.1,1-1.1h4.8c0.6,0,1,0.3,1,1L1566.5,71L1566.5,71z"/>
	<path class="st0" d="M906,117c0.6,0,1,0.3,1,1v57c0,0.5-0.1,0.9-0.3,1.1c-0.2,0.2-0.6,0.3-1.1,0.3h-5c-0.5,0-0.8-0.1-1-0.2
		s-0.2-0.5-0.2-0.9v-57.1c0-0.7,0.3-1.1,1-1.1h5.6V117z"/>
	<path class="st0" d="M920.9,175.3V135c0-0.7,0.3-1,0.9-1h4.8c0.6,0,0.9,0.3,0.9,0.9v4.6c0,0.6,0.2,0.7,0.7,0.2c3-2.3,5.5-4,7.6-5
		s4.5-1.5,7.1-1.5c4.1,0,7.2,1.1,9.5,3.3s3.4,5.1,3.4,8.8v29.8c0,0.9-0.4,1.3-1.2,1.3h-4.5c-0.7,0-1-0.3-1-1v-28.6
		c0-2.7-0.7-4.7-2-6.2c-1.4-1.4-3.5-2.2-6.3-2.2c-2.2,0-4.3,0.5-6.2,1.5s-4.2,2.7-6.9,5v30.2c0,0.4-0.1,0.7-0.3,0.9
		s-0.5,0.3-0.9,0.3H922C921.2,176.4,920.9,176,920.9,175.3z"/>
	<path class="st0" d="M989.8,134.8v3.4c0,0.5-0.3,0.7-0.8,0.7h-9.1c-0.4,0-0.6,0.2-0.6,0.7v35.6c0,0.7-0.3,1.1-1,1.1h-4.9
		c-0.6,0-0.9-0.3-0.9-1v-35.8c0-0.4-0.2-0.6-0.6-0.6h-7.8c-0.5,0-0.8-0.2-0.8-0.7v-3.4c0-0.5,0.3-0.8,0.9-0.8h7.6
		c0.5,0,0.7-0.3,0.7-0.8v-5.8c0-6.9,3.3-10.3,10-10.3h6.6c0.7,0,1,0.3,1,1v3.1c0,0.5-0.3,0.8-0.9,0.8h-5.6c-3.1,0-4.6,1.9-4.6,5.8
		v5.6c0,0.5,0.2,0.7,0.7,0.7h9.2C989.6,134,989.8,134.2,989.8,134.8z"/>
	<path class="st0" d="M1003.4,174.4c-3.1-1.8-5.4-4.4-7.1-7.7c-1.7-3.3-2.5-7.1-2.5-11.3c0-4.3,0.9-8.2,2.6-11.5
		c1.7-3.4,4.1-6,7.2-7.9c3.1-1.9,6.6-2.8,10.5-2.8s7.5,0.9,10.5,2.8c3.1,1.9,5.4,4.5,7.1,7.9s2.5,7.2,2.5,11.4s-0.9,8-2.6,11.3
		s-4.1,5.9-7.2,7.8c-3.1,1.9-6.6,2.8-10.5,2.8C1010,177.2,1006.4,176.2,1003.4,174.4z M1023.9,167.6c2.3-3,3.5-7.2,3.5-12.4
		s-1.2-9.4-3.6-12.4c-2.4-3.1-5.6-4.6-9.7-4.6c-4.2,0-7.4,1.5-9.8,4.6c-2.4,3.1-3.6,7.2-3.6,12.4s1.2,9.4,3.6,12.4
		c2.4,3,5.7,4.6,9.9,4.6C1018.3,172.1,1021.5,170.6,1023.9,167.6z"/>
	<path class="st0" d="M1044.1,175.3V135c0-0.7,0.3-1,0.9-1h4.6c0.6,0,0.9,0.3,0.9,0.9v5.2c0,0.3,0.1,0.5,0.3,0.6
		c0.2,0.1,0.4-0.1,0.6-0.3c4.1-4.7,8.2-7.1,12.4-7.1c1.9,0,2.8,0.3,2.8,1v4.8c0,0.5-0.2,0.7-0.7,0.6c-1-0.2-2.2-0.2-3.6-0.2
		c-1.5,0-3.2,0.5-5,1.4s-3.3,2.1-4.6,3.5c-1.2,1.4-1.8,2.9-1.8,4.4v26.5c0,0.8-0.4,1.2-1.2,1.2h-4.4
		C1044.5,176.4,1044.1,176,1044.1,175.3z"/>
	<path class="st0" d="M1074.8,175.3V135c0-0.7,0.3-1,0.9-1h4.8c0.5,0,0.8,0.3,0.8,0.9v4.6c0,0.6,0.3,0.7,0.8,0.2
		c2.9-2.3,5.3-4,7.4-5c2-1,4.3-1.5,6.8-1.5c3,0,5.5,0.7,7.4,2s3.3,3,4,5c0.1,0.2,0.2,0.2,0.3,0.2c0.2,0,0.4-0.1,0.8-0.4
		c2.8-2.3,5.3-4.1,7.5-5.2c2.2-1.1,4.5-1.7,7-1.7c3.8,0,6.8,1.1,9,3.3s3.2,5.1,3.2,8.9v29.8c0,0.9-0.4,1.3-1.2,1.3h-4.5
		c-0.7,0-1-0.3-1-1v-28.6c0-2.7-0.6-4.7-1.9-6.2s-3.2-2.2-5.8-2.2c-2.1,0-4.1,0.5-6,1.6c-1.9,1-3.7,2.3-5.4,3.9
		c-0.4,0.4-0.7,0.8-0.9,1.1c-0.2,0.3-0.2,0.7-0.2,1.2v28.9c0,0.9-0.4,1.3-1.2,1.3h-4.5c-0.7,0-1-0.3-1-1v-28.6
		c0-5.5-2.6-8.3-7.7-8.3c-2.1,0-4.1,0.5-5.9,1.5s-4,2.7-6.7,5v30.2c0,0.4-0.1,0.7-0.3,0.9c-0.2,0.2-0.5,0.3-0.9,0.3h-4.4
		C1075.2,176.4,1074.8,176,1074.8,175.3z"/>
	<path class="st0" d="M1157.7,177.2c-4.2,0-7.4-1.1-9.8-3.2c-2.4-2.1-3.6-4.9-3.6-8.4c0-4.3,1.8-7.6,5.4-10.1s8.8-3.9,15.6-4.3
		l6.2-0.5c0.9-0.1,1.4-0.5,1.4-1.2v-2.2c0-2.9-0.9-5.2-2.7-6.8c-1.8-1.7-4.2-2.5-7.2-2.5c-4.7,0-8.5,2.1-11.5,6.4
		c-0.2,0.3-0.3,0.4-0.5,0.5s-0.4,0.1-0.6,0l-4.3-1.4c-0.3-0.1-0.4-0.3-0.4-0.6c0-0.2,0.1-0.4,0.2-0.7c1.6-2.8,3.9-5,6.8-6.6
		c3-1.6,6.5-2.4,10.5-2.4c5.2,0,9.2,1.2,12,3.6c2.8,2.4,4.2,5.8,4.2,10v28.3c0,0.5-0.1,0.8-0.2,1s-0.5,0.2-0.9,0.2h-4
		c-0.6,0-1-0.4-1.1-1.3l-0.2-3.7c-0.1-0.4-0.2-0.6-0.4-0.6c-0.2,0-0.5,0.1-0.7,0.4C1167.8,175.2,1163,177.2,1157.7,177.2z
		 M1171.7,154.8l-5.2,0.5c-5,0.3-8.8,1.3-11.5,2.9c-2.7,1.6-4,3.8-4,6.6c0,2.3,0.8,4.1,2.4,5.4c1.6,1.3,3.8,2,6.5,2
		c1.7,0,3.3-0.3,4.9-0.9c1.6-0.6,3-1.4,4.2-2.4s2.2-2,2.8-3.1c0.7-1.1,1-2.1,1-3.2V156C1172.9,155.2,1172.5,154.8,1171.7,154.8z"/>
	<path class="st0" d="M1202.3,138.9c-0.4,0-0.6,0.2-0.6,0.7V165c0,2.4,0.4,4.1,1.2,5c0.8,0.9,2.1,1.4,3.9,1.4h5.5
		c0.6,0,0.9,0.3,0.9,0.9l-0.1,2.7c0,0.5-0.3,0.9-1,1c-1.4,0.3-3.9,0.4-7.5,0.4c-3.4,0-5.8-0.8-7.4-2.4c-1.5-1.6-2.3-4.1-2.3-7.5
		v-26.7c0-0.6-0.3-0.9-0.8-0.9h-6.4c-0.6,0-0.9-0.3-0.9-0.8v-3.4c0-0.5,0.3-0.8,0.8-0.8h6.8c0.4,0,0.6-0.2,0.6-0.6l0.9-12.7
		c0-0.7,0.3-1,0.9-1h4c0.6,0,1,0.4,1,1.1v12.6c0,0.4,0.2,0.6,0.6,0.6h10.1c0.6,0,0.9,0.2,0.9,0.7v3.4c0,0.5-0.3,0.8-0.9,0.8
		L1202.3,138.9L1202.3,138.9z"/>
	<path class="st0" d="M1229.1,124.8c0,0.5-0.1,0.9-0.3,1.2c-0.2,0.2-0.6,0.4-1.1,0.4h-4.6c-0.8,0-1.2-0.5-1.2-1.4v-6.7
		c0-0.9,0.4-1.3,1.1-1.3h5c0.3,0,0.6,0.1,0.8,0.3c0.2,0.2,0.3,0.5,0.3,0.9L1229.1,124.8L1229.1,124.8z M1228.8,175
		c0,0.5-0.1,0.9-0.3,1.1c-0.2,0.2-0.6,0.3-1.1,0.3h-4.1c-0.5,0-0.8-0.1-1-0.2c-0.2-0.2-0.2-0.5-0.2-0.9v-40.2c0-0.7,0.3-1.1,1-1.1
		h4.9c0.6,0,0.9,0.3,0.9,1L1228.8,175L1228.8,175z"/>
	<path class="st0" d="M1248.3,174.4c-3.1-1.8-5.4-4.4-7.1-7.7s-2.5-7.1-2.5-11.3c0-4.3,0.9-8.2,2.6-11.5c1.7-3.4,4.1-6,7.2-7.9
		s6.6-2.8,10.5-2.8s7.5,0.9,10.5,2.8c3.1,1.9,5.4,4.5,7.1,7.9s2.5,7.2,2.5,11.4s-0.9,8-2.6,11.3s-4.1,5.9-7.2,7.8
		c-3.1,1.9-6.6,2.8-10.5,2.8S1251.4,176.2,1248.3,174.4z M1268.8,167.6c2.3-3,3.5-7.2,3.5-12.4s-1.2-9.4-3.6-12.4
		c-2.4-3.1-5.6-4.6-9.7-4.6c-4.2,0-7.4,1.5-9.8,4.6s-3.6,7.2-3.6,12.4s1.2,9.4,3.6,12.4s5.7,4.6,9.9,4.6
		C1263.3,172.1,1266.5,170.6,1268.8,167.6z"/>
	<path class="st0" d="M1289.1,175.3V135c0-0.7,0.3-1,0.9-1h4.8c0.6,0,0.9,0.3,0.9,0.9v4.6c0,0.6,0.2,0.7,0.7,0.2c3-2.3,5.5-4,7.6-5
		s4.5-1.5,7.1-1.5c4.1,0,7.2,1.1,9.5,3.3s3.4,5.1,3.4,8.8v29.8c0,0.9-0.4,1.3-1.2,1.3h-4.5c-0.7,0-1-0.3-1-1v-28.6
		c0-2.7-0.7-4.7-2-6.2s-3.5-2.2-6.3-2.2c-2.2,0-4.3,0.5-6.2,1.5c-1.9,1-4.2,2.7-6.9,5v30.2c0,0.4-0.1,0.7-0.3,0.9
		c-0.2,0.2-0.5,0.3-0.9,0.3h-4.4C1289.5,176.4,1289.1,176,1289.1,175.3z"/>
	<path class="st0" d="M1373.1,122c-4,0-7.1,0.9-9.4,2.6c-2.3,1.8-3.4,4.2-3.4,7.4c0,4.2,2.9,7.2,8.6,9.1l11.6,3.8
		c4.7,1.5,8.1,3.6,10.2,6.2c2.1,2.6,3.2,5.7,3.2,9.5c0,5.1-1.9,9.1-5.7,12.1c-3.8,2.9-9,4.4-15.5,4.4c-4.8,0-9-0.9-12.7-2.6
		c-3.7-1.7-6.6-4.2-8.8-7.4c-0.2-0.4-0.3-0.7-0.3-0.8c0-0.4,0.3-0.7,0.8-1.1l2.9-2c0.5-0.3,0.9-0.5,1.1-0.5c0.3,0,0.6,0.2,0.9,0.5
		c2.3,2.9,4.6,5,6.8,6.2c2.2,1.2,5.3,1.8,9,1.8c4.5,0,8-0.8,10.4-2.4s3.7-4.1,3.7-7.4c0-2.1-0.7-3.9-2-5.3s-3.7-2.8-7.1-4.1
		l-12.2-4.2c-4.2-1.4-7.3-3.5-9.3-6.2s-3-5.7-3-8.9c0-3.3,0.8-6.2,2.5-8.7s4.1-4.4,7.1-5.8c3.1-1.4,6.6-2,10.6-2
		c3.9,0,7.4,0.7,10.6,2.1s5.9,3.3,8.1,5.8c0.3,0.3,0.4,0.5,0.4,0.8s-0.1,0.5-0.4,0.7l-3.7,2.9c-0.2,0.2-0.3,0.2-0.5,0.2
		s-0.5-0.2-1-0.7C1383.3,124,1378.7,122,1373.1,122z"/>
	<path class="st0" d="M1410.7,164.9c1.3,2.2,2.9,3.9,5.1,5.2c2.1,1.3,4.5,1.9,7,1.9c5.3,0,9.5-2.2,12.5-6.6c0.2-0.2,0.4-0.3,0.6-0.4
		c0.2,0,0.3,0,0.6,0.1l3.4,1.7c0.4,0.3,0.5,0.6,0.2,1.1c-2.1,3.2-4.6,5.5-7.4,7c-2.9,1.5-6.3,2.2-10.3,2.2c-3.9,0-7.4-0.9-10.5-2.7
		s-5.5-4.4-7.2-7.6c-1.7-3.3-2.6-7-2.6-11.2c0-4.5,0.9-8.5,2.6-11.9c1.8-3.4,4.2-6,7.2-7.8c3.1-1.8,6.5-2.7,10.4-2.7
		s7.2,0.9,10.1,2.6c2.9,1.7,5.2,4.2,6.8,7.5s2.4,7.2,2.4,11.6v0.3c0,0.5-0.1,0.8-0.2,1.1s-0.5,0.4-1,0.4h-30.6
		c-0.5,0-0.7,0.4-0.7,1.2C1408.8,160.4,1409.4,162.7,1410.7,164.9z M1433.3,152.2c0.6,0,1-0.1,1.1-0.2c0.2-0.1,0.2-0.4,0.2-0.9
		c0-2.3-0.5-4.5-1.5-6.5s-2.4-3.6-4.3-4.8s-4.1-1.8-6.6-1.8c-2.7,0-5.1,0.7-7.1,2c-2,1.4-3.6,3.1-4.6,5.3s-1.6,4.5-1.5,6.9H1433.3
		L1433.3,152.2z"/>
	<path class="st0" d="M1450.8,175.3V135c0-0.7,0.3-1,0.9-1h4.6c0.6,0,0.9,0.3,0.9,0.9v5.2c0,0.3,0.1,0.5,0.3,0.6s0.4-0.1,0.6-0.3
		c4.1-4.7,8.2-7.1,12.4-7.1c1.9,0,2.8,0.3,2.8,1v4.8c0,0.5-0.2,0.7-0.7,0.6c-1-0.2-2.2-0.2-3.6-0.2c-1.5,0-3.2,0.5-5,1.4
		s-3.3,2.1-4.6,3.5c-1.2,1.4-1.8,2.9-1.8,4.4v26.5c0,0.8-0.4,1.2-1.2,1.2h-4.4C1451.1,176.4,1450.8,176,1450.8,175.3z"/>
	<path class="st0" d="M1516.7,134.3c0.1,0.2,0.1,0.5,0,0.8l-16.2,40.1c-0.3,0.8-0.9,1.2-1.8,1.2h-2.9c-1,0-1.7-0.4-2-1.1l-16.2-40.1
		c-0.1-0.1-0.1-0.2-0.1-0.4c0-0.5,0.3-0.8,1-0.8h5c0.6,0,1,0.3,1.3,0.9l12.6,31.4c0.2,0.5,0.3,0.8,0.6,0.8s0.5-0.3,0.7-0.9
		l12.5-31.4c0.2-0.6,0.6-0.9,1.2-0.9h3.7C1516.3,134,1516.5,134.1,1516.7,134.3z"/>
	<path class="st0" d="M1532.2,124.8c0,0.5-0.1,0.9-0.3,1.2c-0.2,0.2-0.6,0.4-1.1,0.4h-4.6c-0.8,0-1.2-0.5-1.2-1.4v-6.7
		c0-0.9,0.4-1.3,1.1-1.3h5c0.3,0,0.6,0.1,0.8,0.3c0.2,0.2,0.3,0.5,0.3,0.9L1532.2,124.8L1532.2,124.8z M1531.9,175
		c0,0.5-0.1,0.9-0.3,1.1c-0.2,0.2-0.6,0.3-1.1,0.3h-4.1c-0.5,0-0.8-0.1-1-0.2c-0.2-0.2-0.2-0.5-0.2-0.9v-40.2c0-0.7,0.3-1.1,1-1.1
		h4.9c0.6,0,0.9,0.3,0.9,1L1531.9,175L1531.9,175z"/>
	<path class="st0" d="M1571.9,135.9c2.7,1.8,4.9,4.2,6.6,7.2l0.2,0.6c0,0.3-0.2,0.5-0.6,0.6l-4.4,1l-0.2,0.1c-0.3,0-0.5-0.2-0.8-0.6
		c-1.7-2.3-3.3-4-4.9-5c-1.6-1.1-3.4-1.6-5.4-1.6c-4.2,0-7.5,1.5-9.9,4.6c-2.5,3.1-3.7,7.2-3.7,12.4c0,5.3,1.2,9.4,3.7,12.5
		c2.5,3,5.8,4.6,10,4.6c2.5,0,4.7-0.6,6.6-1.8s3.6-3.1,5.2-5.7c0.2-0.3,0.3-0.4,0.5-0.4s0.3,0,0.6,0.1l3.4,1.3
		c0.4,0.2,0.5,0.5,0.3,1c-1.7,3.1-3.9,5.6-6.8,7.6s-6.3,2.9-10.3,2.9c-3.9,0-7.4-0.9-10.4-2.8c-3-1.8-5.4-4.4-7.1-7.7
		s-2.6-7.1-2.6-11.4c0-4.3,0.9-8.1,2.6-11.5s4.1-6,7.2-7.9s6.5-2.8,10.4-2.8C1565.8,133.2,1569.1,134.1,1571.9,135.9z"/>
	<path class="st0" d="M1594,164.9c1.3,2.2,2.9,3.9,5.1,5.2c2.1,1.3,4.5,1.9,7,1.9c5.3,0,9.5-2.2,12.5-6.6c0.2-0.2,0.4-0.3,0.6-0.4
		c0.2,0,0.3,0,0.6,0.1l3.4,1.7c0.4,0.3,0.5,0.6,0.2,1.1c-2.1,3.2-4.6,5.5-7.4,7c-2.9,1.5-6.3,2.2-10.3,2.2c-3.9,0-7.4-0.9-10.5-2.7
		s-5.5-4.4-7.2-7.6c-1.7-3.3-2.6-7-2.6-11.2c0-4.5,0.9-8.5,2.6-11.9c1.8-3.4,4.2-6,7.2-7.8c3.1-1.8,6.5-2.7,10.4-2.7
		s7.2,0.9,10.1,2.6c2.9,1.7,5.2,4.2,6.8,7.5c1.6,3.3,2.4,7.2,2.4,11.6v0.3c0,0.5-0.1,0.8-0.2,1.1s-0.5,0.4-1,0.4h-30.6
		c-0.5,0-0.7,0.4-0.7,1.2C1592.1,160.4,1592.8,162.7,1594,164.9z M1616.6,152.2c0.6,0,1-0.1,1.1-0.2c0.2-0.1,0.2-0.4,0.2-0.9
		c0-2.3-0.5-4.5-1.5-6.5s-2.4-3.6-4.3-4.8s-4.1-1.8-6.6-1.8c-2.7,0-5.1,0.7-7.1,2c-2,1.4-3.6,3.1-4.6,5.3s-1.6,4.5-1.5,6.9H1616.6
		L1616.6,152.2z"/>
</g>
</svg>
