<?xml version="1.0" encoding="utf-8"?>
<!-- Generator: Adobe Illustrator 19.2.1, SVG Export Plug-In . SVG Version: 6.00 Build 0)  -->
<svg version="1.1" id="Layer_1" xmlns="http://www.w3.org/2000/svg" xmlns:xlink="http://www.w3.org/1999/xlink" x="0px" y="0px"
	 viewBox="0 0 800.2 192" style="enable-background:new 0 0 800.2 192;" xml:space="preserve">
<style type="text/css">
	.st0{fill:#FFFFFF;}
	.st1{fill:#9BDAF1;}
</style>
<path class="st0" d="M304.7,24.6h-2.3v161.8c0,4-3.2,5.5-9.8,5.5c-6.7,0-9.8-1.9-9.8-5.5V25.9c0-7,0.8-12.2,2.8-14.6
	c1.9-2.3,5.9-4,12.2-4h5.5c11.4,0,19.3,1.2,23.3,4s7,9.5,9.8,19.7l32.2,130.3c1.5,5.9,2.8,9.8,4.3,11s4.7,2.3,9.8,2.3h2.3V12.8
	c0-4,3.2-5.5,9.8-5.5s9.8,1.9,9.8,5.5v160.6c0,7-0.8,12.2-2.8,14.6c-1.9,2.3-5.9,4-12.2,4h-5.5c-11.4,0-19.3-1.2-23.3-4
	s-7-9.5-9.8-19.7L318.9,38c-1.5-5.9-2.8-9.8-4.3-11C313.4,25,310.2,24.6,304.7,24.6z"/>
<path class="st0" d="M452,7h104.3c3.2,0,5.1,2.8,5.1,8.7s-1.5,8.7-5.1,8.7h-42.1v161.8c0,4-3.2,5.5-9.8,5.5c-6.7,0-9.8-1.9-9.8-5.5
	V24.6h-42.1c-3.2,0-5.1-2.8-5.1-8.7C447.2,10,448.4,7,452,7z"/>
<path class="st0" d="M625.6,11.7v174.7c0,4-3.2,5.5-9.8,5.5s-9.8-1.9-9.8-5.5V11.7c0-4,3.2-5.5,9.8-5.5S625.6,7.7,625.6,11.7z"/>
<path class="st0" d="M778.3,157.7v-27.9c0.4-4.7-1.9-9.5-6.3-11.8c-7-3.6-14.6-5.9-22.4-7.4l-22-5.1c-7.9-1.5-15.7-4-22.8-7.9
	c-11-5.9-16.5-17.7-16.5-35.8V42.4c0-13.8,4.7-23.7,14.6-29.9c9.8-6.3,22.8-9.5,39-9.5c16.1,0,29.2,3.2,39,9.5s14.6,16.1,14.6,29.9
	v11c0,4-3.2,5.5-9.8,5.5s-9.8-1.9-9.8-5.5V40c0-13-11.4-19.3-33.9-19.3s-34,6.2-34,19.3v21.2c0,9.1,1.2,15.3,4,18.9
	s7.9,5.9,15.4,7.4l22,5.1c9.1,1.5,18.2,4,27.1,7c2.3,1.5,5.1,2.8,7.9,4c2.3,0.8,4.3,2.8,5.9,4.7c1.2,1.5,2.3,3.6,4,5.9
	c2.8,5.5,4,11.4,3.6,17.7v23.7c0.8,12.2-5.5,23.7-16.1,29.9c-12.5,6.7-26.7,9.8-40.9,9.5c-14.2,0.4-27.9-2.8-40.5-9.5
	c-10.6-6.3-15.7-16.1-15.7-29.9v-11c0-4,3.2-5.5,9.8-5.5c6.7,0,9.8,1.9,9.8,5.5V158c0,6.7,4,12.6,10.2,14.6c8.3,3.6,16.9,5.1,26,4.7
	c9.1,0.4,18.2-1.2,26.4-4.7C774.7,169.2,778.3,164.4,778.3,157.7z"/>
<polygon class="st1" points="3.3,120.3 50.6,121.3 50.6,190.3 3.3,190.3 "/>
<rect x="74.2" class="st1" width="47.2" height="190.3"/>
<rect x="149.4" y="52.7" class="st1" width="47.2" height="137.9"/>
</svg>
