<?xml version="1.0" encoding="utf-8"?>
<!-- Generator: Adobe Illustrator 19.2.1, SVG Export Plug-In . SVG Version: 6.00 Build 0)  -->
<svg version="1.1" id="Layer_1" xmlns="http://www.w3.org/2000/svg" xmlns:xlink="http://www.w3.org/1999/xlink" x="0px" y="0px"
	 viewBox="0 0 150 150" style="enable-background:new 0 0 150 150;" xml:space="preserve">
<path d="M84.8,60.3v-9.4c0-1.4,0.1-2.5,0.2-3.3c0.1-0.8,0.4-1.5,0.9-2.3c0.5-0.7,1.2-1.3,2.2-1.6c1-0.3,2.4-0.4,4.1-0.4h9.4V24.6
	h-15c-8.7,0-14.9,2.1-18.7,6.2C64.2,34.9,62.3,41,62.3,49v11.3H51.1V79h11.2v54.4h22.5V79h15l2-18.7C101.8,60.3,84.8,60.3,84.8,60.3
	z"/>
</svg>
