<?xml version="1.0" encoding="utf-8"?>
<!-- Generator: Adobe Illustrator 19.2.1, SVG Export Plug-In . SVG Version: 6.00 Build 0)  -->
<svg version="1.1" id="Layer_1" xmlns="http://www.w3.org/2000/svg" xmlns:xlink="http://www.w3.org/1999/xlink" x="0px" y="0px"
	 viewBox="0 0 150 150" style="enable-background:new 0 0 150 150;" xml:space="preserve">
<path d="M127,47.8c-4.1,1.8-8.2,2.9-12.3,3.3c4.6-2.8,7.7-6.7,9.4-11.7c-4.2,2.5-8.7,4.2-13.5,5.1c-4.2-4.5-9.4-6.7-15.6-6.7
	c-5.9,0-10.9,2.1-15.1,6.2c-4.2,4.2-6.2,9.2-6.2,15.1c0,1.6,0.2,3.2,0.5,4.9c-8.7-0.4-16.9-2.6-24.5-6.6
	c-7.6-3.9-14.1-9.2-19.4-15.7c-1.9,3.3-2.9,6.9-2.9,10.8c0,3.7,0.9,7,2.6,10.2c1.7,3.1,4,5.7,6.9,7.6c-3.4-0.1-6.6-1-9.6-2.7v0.3
	c0,5.1,1.6,9.7,4.9,13.6c3.2,3.9,7.3,6.3,12.2,7.4c-1.8,0.5-3.7,0.7-5.6,0.7c-1.2,0-2.6-0.1-4-0.3c1.4,4.3,3.9,7.8,7.5,10.5
	c3.7,2.8,7.8,4.2,12.4,4.3c-7.7,6.1-16.6,9.1-26.5,9.1c-1.9,0-3.6-0.1-5.1-0.3c9.9,6.4,20.8,9.6,32.7,9.6c7.6,0,14.7-1.2,21.3-3.6
	c6.6-2.4,12.3-5.6,17-9.6c4.7-4,8.8-8.7,12.2-13.9c3.4-5.2,5.9-10.7,7.6-16.4c1.7-5.7,2.5-11.4,2.5-17.1c0-1.2,0-2.2-0.1-2.8
	C120.5,55.8,124.1,52.1,127,47.8L127,47.8z"/>
</svg>
