<?xml version="1.0" encoding="utf-8"?>
<!-- Generator: Adobe Illustrator 19.2.1, SVG Export Plug-In . SVG Version: 6.00 Build 0)  -->
<svg version="1.1" id="Layer_1" xmlns="http://www.w3.org/2000/svg" xmlns:xlink="http://www.w3.org/1999/xlink" x="0px" y="0px"
	 viewBox="0 0 221.5 61.6" style="enable-background:new 0 0 221.5 61.6;" xml:space="preserve">
<style type="text/css">
	.st0{fill:#ED1F24;}
	.st1{fill:#FFFFFF;}
	.st2{fill:none;stroke:#000000;stroke-miterlimit:10;}
</style>
<g>
	<path class="st0" d="M96.1,18.4h-0.6v41.1c0,1-0.8,1.4-2.5,1.4c-1.7,0-2.5-0.5-2.5-1.4V18.8c0-1.8,0.2-3.1,0.7-3.7
		c0.4-0.7,1.5-1,3.1-1h1.4c2.9,0,4.9,0.3,5.9,1c1,0.7,1.8,2.4,2.5,5l8.2,33.1c0.4,1.5,0.7,2.5,1.1,2.8c0.3,0.4,1.2,0.6,2.5,0.6h0.6
		V15.5c0-1,0.8-1.4,2.5-1.4c1.7,0,2.5,0.5,2.5,1.4v40.8c0,1.8-0.2,3.1-0.7,3.7c-0.4,0.7-1.5,1-3.1,1h-1.4c-2.9,0-4.9-0.3-5.9-1
		c-1-0.7-1.8-2.4-2.5-5l-8.2-33.1c-0.4-1.5-0.7-2.5-1.1-2.8C98.3,18.6,97.5,18.4,96.1,18.4z"/>
	<path class="st0" d="M133.5,14h26.5c0.8,0,1.3,0.7,1.3,2.2c0,1.5-0.4,2.2-1.3,2.2h-10.7v41.1c0,1-0.8,1.4-2.5,1.4
		c-1.7,0-2.5-0.5-2.5-1.4V18.4h-10.7c-0.8,0-1.3-0.7-1.3-2.2C132.2,14.8,132.6,14,133.5,14z"/>
	<path class="st0" d="M177.6,15.2v44.4c0,1-0.8,1.4-2.5,1.4c-1.7,0-2.5-0.5-2.5-1.4V15.2c0-1,0.8-1.4,2.5-1.4
		C176.7,13.7,177.6,14.2,177.6,15.2z"/>
	<path class="st0" d="M216.4,52.3v-7.1c0-1.4-0.5-2.4-1.6-3c-1.1-0.6-3-1.3-5.7-1.9l-5.6-1.3c-2.6-0.6-4.5-1.2-5.8-2
		c-2.8-1.5-4.2-4.5-4.2-9.1V23c0-3.5,1.2-6,3.7-7.6c2.5-1.6,5.8-2.4,9.9-2.4c4.1,0,7.4,0.8,9.9,2.4c2.5,1.6,3.7,4.1,3.7,7.6v2.8
		c0,1-0.8,1.4-2.5,1.4c-1.7,0-2.5-0.5-2.5-1.4v-3.4c0-3.3-2.9-4.9-8.6-4.9s-8.6,1.6-8.6,4.9v5.4c0,2.3,0.3,3.9,1,4.8
		c0.7,0.9,2,1.5,3.9,1.9l5.6,1.3c4,0.9,6.3,1.5,6.9,1.8c0.6,0.3,1.2,0.7,2,1c0.8,0.4,1.3,0.8,1.5,1.2c0.3,0.4,0.6,0.9,1,1.5
		c0.6,1,0.9,2.5,0.9,4.5v6c0,3.4-1.4,6-4.1,7.6c-2.8,1.6-6.2,2.4-10.4,2.4c-4.2,0-7.6-0.8-10.3-2.4c-2.7-1.6-4-4.1-4-7.6v-2.8
		c0-1,0.8-1.4,2.5-1.4c1.7,0,2.5,0.5,2.5,1.4v3.4c0,1.7,0.9,3,2.6,3.7c1.7,0.8,3.9,1.2,6.6,1.2c2.7,0,4.9-0.4,6.7-1.2
		C215.5,55.2,216.4,54,216.4,52.3z"/>
</g>
<rect x="-0.3" y="40.2" transform="matrix(8.742346e-11 -1 1 8.742346e-11 -31.1338 61.3098)" class="st1" width="30.8" height="12"/>
<rect x="4.9" y="24.8" transform="matrix(8.742346e-11 -1 1 8.742346e-11 4.9394 66.5685)" class="st1" width="61.6" height="12"/>
<rect x="32.3" y="31.5" transform="matrix(8.381213e-11 -1 1 8.381213e-11 18.9573 93.8826)" class="st1" width="48.3" height="12"/>
<path class="st2" d="M6.8,41.7c15.3,0,46.9-4.2,56.7-23.8"/>
</svg>
