<?xml version="1.0" encoding="utf-8"?>
<!-- Generator: Adobe Illustrator 19.2.1, SVG Export Plug-In . SVG Version: 6.00 Build 0)  -->
<svg version="1.1" id="Layer_1" xmlns="http://www.w3.org/2000/svg" xmlns:xlink="http://www.w3.org/1999/xlink" x="0px" y="0px"
	 viewBox="0 0 207.3 61.8" style="enable-background:new 0 0 207.3 61.8;" xml:space="preserve">
<style type="text/css">
	.st0{fill:#010101;}
	.st1{fill:#FFFFFF;}
</style>
<title>ntis-logo</title>
<path class="st0" d="M82.1,18.5h-0.6v41.1c0,1-0.8,1.4-2.5,1.4s-2.5-0.5-2.5-1.4V18.8c0-1.8,0.2-3.1,0.7-3.7s1.5-1,3.1-1h1.4
	c2.9,0,4.9,0.3,5.9,1s1.8,2.4,2.5,5l8.2,33.1c0.4,1.5,0.7,2.5,1.1,2.8s1.2,0.6,2.5,0.6h0.6V15.5c0-1,0.8-1.4,2.5-1.4
	s2.5,0.5,2.5,1.4v40.8c0,1.8-0.2,3.1-0.7,3.7s-1.5,1-3.1,1h-1.4c-2.9,0-4.9-0.3-5.9-1s-1.8-2.4-2.5-5l-8.2-33.1
	c-0.4-1.5-0.7-2.5-1.1-2.8C84.3,18.6,83.5,18.5,82.1,18.5z"/>
<path class="st0" d="M119.5,14H146c0.8,0,1.3,0.7,1.3,2.2s-0.4,2.2-1.3,2.2h-10.7v41.1c0,1-0.8,1.4-2.5,1.4s-2.5-0.5-2.5-1.4v-41
	h-10.7c-0.8,0-1.3-0.7-1.3-2.2S118.6,14,119.5,14z"/>
<path class="st0" d="M163.6,15.2v44.4c0,1-0.8,1.4-2.5,1.4s-2.5-0.5-2.5-1.4V15.2c0-1,0.8-1.4,2.5-1.4S163.6,14.2,163.6,15.2z"/>
<path class="st0" d="M202.4,52.3v-7.1c0.1-1.2-0.5-2.4-1.6-3c-1.8-0.9-3.7-1.5-5.7-1.9l-5.6-1.3c-2-0.4-4-1-5.8-2
	c-2.8-1.5-4.2-4.5-4.2-9.1V23c0-3.5,1.2-6,3.7-7.6s5.8-2.4,9.9-2.4s7.4,0.8,9.9,2.4s3.7,4.1,3.7,7.6v2.8c0,1-0.8,1.4-2.5,1.4
	s-2.5-0.5-2.5-1.4v-3.4c0-3.3-2.9-4.9-8.6-4.9s-8.6,1.6-8.6,4.9v5.4c0,2.3,0.3,3.9,1,4.8s2,1.5,3.9,1.9l5.6,1.3
	c2.3,0.4,4.6,1,6.9,1.8c0.6,0.4,1.3,0.7,2,1c0.6,0.2,1.1,0.7,1.5,1.2c0.3,0.4,0.6,0.9,1,1.5c0.7,1.4,1,2.9,0.9,4.5v6
	c0.2,3.1-1.4,6-4.1,7.6c-3.2,1.7-6.8,2.5-10.4,2.4c-3.6,0.1-7.1-0.7-10.3-2.4c-2.7-1.6-4-4.1-4-7.6V49c0-1,0.8-1.4,2.5-1.4
	s2.5,0.5,2.5,1.4v3.4c0,1.7,1,3.2,2.6,3.7c2.1,0.9,4.3,1.3,6.6,1.2c2.3,0.1,4.6-0.3,6.7-1.2C201.5,55.2,202.4,54,202.4,52.3z"/>
<rect y="30.8" class="st1" width="12" height="30.8"/>
<rect x="18" class="st1" width="12" height="61.6"/>
<rect x="37.1" y="13.4" class="st1" width="12" height="48.3"/>
</svg>
