<?xml version="1.0" encoding="utf-8"?>
<!-- Generator: Adobe Illustrator 15.1.0, SVG Export Plug-In . SVG Version: 6.00 Build 0)  -->
<!DOCTYPE svg PUBLIC "-//W3C//DTD SVG 1.1//EN" "http://www.w3.org/Graphics/SVG/1.1/DTD/svg11.dtd">
<svg version="1.1" id="Layer_1" xmlns="http://www.w3.org/2000/svg" xmlns:xlink="http://www.w3.org/1999/xlink" x="0px" y="0px"
	 width="1624.693px" height="280.414px" viewBox="0 277.921 1624.693 280.414" enable-background="new 0 277.921 1624.693 280.414"
	 xml:space="preserve">
<title>ntis-logo</title>
<path fill="#FFFFFF" d="M316.836,299.146h-2.316v158.611c0,3.858-3.087,5.402-9.647,5.402s-9.648-1.93-9.648-5.402V300.304
	c0-6.946,0.772-11.963,2.702-14.279s5.789-3.859,11.963-3.859h5.403c11.191,0,18.909,1.158,22.769,3.859
	c3.859,2.702,6.946,9.262,9.648,19.296l31.645,127.737c1.544,5.789,2.701,9.648,4.245,10.806c1.544,1.158,4.631,2.315,9.647,2.315
	h2.315v-158.61c0-3.859,3.088-5.403,9.648-5.403s9.647,1.93,9.647,5.403v157.453c0,6.946-0.771,11.963-2.701,14.278
	s-5.789,3.859-11.963,3.859h-5.403c-11.191,0-18.91-1.158-22.769-3.859c-3.859-2.701-6.946-9.262-9.648-19.296l-31.645-127.737
	c-1.544-5.789-2.701-9.647-4.245-10.806C325.325,299.533,322.238,299.146,316.836,299.146z"/>
<path fill="#FFFFFF" d="M461.167,281.781h102.268c3.087,0,5.017,2.701,5.017,8.49c0,5.789-1.543,8.49-5.017,8.49h-41.293v158.61
	c0,3.859-3.087,5.403-9.647,5.403s-9.648-1.93-9.648-5.403V299.146h-41.292c-3.088,0-5.018-2.701-5.018-8.49
	C456.536,284.868,457.694,281.781,461.167,281.781z"/>
<path fill="#FFFFFF" d="M631.355,286.412v171.346c0,3.858-3.087,5.402-9.647,5.402s-9.648-1.93-9.648-5.402V286.412
	c0-3.859,3.088-5.403,9.648-5.403S631.355,282.552,631.355,286.412z"/>
<path fill="#FFFFFF" d="M781.09,429.586v-27.4c0.387-4.631-1.93-9.262-6.174-11.577c-6.947-3.474-14.279-5.789-21.998-7.332
	l-21.61-5.018c-7.719-1.543-15.437-3.858-22.384-7.718c-10.806-5.789-16.208-17.366-16.208-35.118v-18.91
	c0-13.507,4.631-23.155,14.278-29.329c9.648-6.175,22.384-9.262,38.206-9.262s28.558,3.087,38.205,9.262
	c9.648,6.174,14.279,15.822,14.279,29.329v10.806c0,3.859-3.088,5.403-9.648,5.403s-9.647-1.93-9.647-5.403v-13.121
	c0-12.735-11.191-18.91-33.188-18.91s-33.188,6.174-33.188,18.91v20.839c0,8.876,1.157,15.05,3.858,18.524
	c2.702,3.474,7.719,5.789,15.051,7.332l21.611,5.018c8.876,1.543,17.752,3.858,26.628,6.946c2.315,1.544,5.018,2.701,7.719,3.859
	c2.315,0.771,4.245,2.701,5.788,4.631c1.158,1.543,2.316,3.473,3.859,5.788c2.701,5.403,3.859,11.191,3.474,17.366v23.155
	c0.771,11.963-5.403,23.154-15.822,29.329c-12.35,6.561-26.242,9.648-40.136,9.262c-13.893,0.387-27.399-2.701-39.749-9.262
	c-10.42-6.175-15.437-15.822-15.437-29.329v-10.806c0-3.859,3.087-5.403,9.647-5.403s9.648,1.93,9.648,5.403v13.121
	c0,6.561,3.859,12.35,10.033,14.278c8.104,3.474,16.595,5.018,25.471,4.632c8.876,0.386,17.752-1.158,25.856-4.632
	C777.617,440.777,781.09,436.146,781.09,429.586z"/>
<polygon fill="#9BDAF1" points="0,396.783 46.31,397.783 46.31,465.476 0,465.476 "/>
<rect x="69.464" y="278.921" fill="#9BDAF1" width="46.31" height="186.554"/>
<rect x="143.174" y="330.634" fill="#9BDAF1" width="46.31" height="135.228"/>
<g>
	<path fill="#FFFFFF" d="M943.42,290.92c0.32,0,0.546,0.067,0.68,0.2c0.133,0.134,0.2,0.388,0.2,0.76v57.44
		c0,0.641-0.348,0.96-1.04,0.96h-3.92c-0.428,0-0.76-0.04-1-0.12s-0.468-0.252-0.68-0.52l-30.88-44.88
		c-0.214-0.373-0.414-0.533-0.601-0.48c-0.188,0.054-0.279,0.24-0.279,0.56v44.4c0,0.693-0.374,1.04-1.12,1.04h-4.48
		c-0.693,0-1.04-0.347-1.04-1.04v-57.2c0-0.426,0.066-0.72,0.2-0.88c0.133-0.16,0.412-0.24,0.84-0.24h4.561
		c0.426,0,0.746,0.054,0.96,0.16c0.212,0.108,0.452,0.32,0.72,0.64l30,43.92c0.267,0.32,0.506,0.48,0.72,0.48
		c0.32,0,0.48-0.24,0.48-0.72v-43.52c0-0.64,0.319-0.96,0.96-0.96H943.42z"/>
	<path fill="#FFFFFF" d="M968.618,351.08c-4.159,0-7.427-1.053-9.8-3.16c-2.373-2.106-3.56-4.919-3.56-8.439
		c0-4.267,1.8-7.626,5.399-10.08c3.601-2.453,8.812-3.893,15.641-4.32l6.24-0.48c0.906-0.106,1.359-0.506,1.359-1.2v-2.16
		c0-2.88-0.894-5.16-2.68-6.84c-1.788-1.68-4.2-2.52-7.24-2.52c-4.693,0-8.533,2.134-11.52,6.4c-0.16,0.268-0.32,0.44-0.48,0.52
		s-0.374,0.067-0.64-0.04l-4.32-1.44c-0.268-0.106-0.4-0.292-0.4-0.56c0-0.16,0.08-0.4,0.24-0.72c1.601-2.826,3.88-5.026,6.84-6.6
		c2.96-1.573,6.467-2.36,10.521-2.36c5.227,0,9.227,1.214,12,3.64c2.772,2.428,4.16,5.774,4.16,10.04v28.32
		c0,0.48-0.08,0.801-0.24,0.96c-0.16,0.16-0.454,0.24-0.88,0.24h-4c-0.641,0-1.014-0.427-1.12-1.28l-0.16-3.68
		c-0.054-0.373-0.188-0.56-0.4-0.56s-0.453,0.134-0.72,0.4C978.751,349.107,974.005,351.08,968.618,351.08z M982.698,328.68
		l-5.199,0.48c-4.96,0.32-8.788,1.28-11.48,2.88c-2.693,1.6-4.04,3.814-4.04,6.64c0,2.294,0.812,4.107,2.44,5.44
		c1.626,1.334,3.8,2,6.52,2c1.652,0,3.28-0.292,4.88-0.88c1.601-0.586,3.013-1.386,4.24-2.4c1.227-0.96,2.173-1.986,2.84-3.08
		c0.666-1.092,1-2.146,1-3.16v-6.64C983.898,329.108,983.499,328.68,982.698,328.68z"/>
	<path fill="#FFFFFF" d="M1013.258,312.84c-0.428,0-0.641,0.24-0.641,0.72v25.36c0,2.4,0.4,4.054,1.2,4.96
		c0.8,0.907,2.106,1.36,3.92,1.36h5.521c0.586,0,0.88,0.294,0.88,0.88l-0.08,2.72c0,0.534-0.32,0.881-0.96,1.041
		c-1.388,0.268-3.894,0.399-7.521,0.399c-3.359,0-5.813-0.786-7.359-2.36c-1.548-1.572-2.32-4.066-2.32-7.479v-26.72
		c0-0.586-0.268-0.88-0.8-0.88h-6.4c-0.587,0-0.88-0.266-0.88-0.8v-3.36c0-0.532,0.267-0.8,0.8-0.8h6.8
		c0.373,0,0.561-0.212,0.561-0.64l0.88-12.72c0-0.693,0.293-1.04,0.88-1.04h4c0.641,0,0.96,0.374,0.96,1.12v12.64
		c0,0.428,0.213,0.64,0.641,0.64h10.079c0.587,0,0.881,0.24,0.881,0.72v3.44c0,0.534-0.294,0.8-0.881,0.8H1013.258z"/>
	<path fill="#FFFFFF" d="M1040.058,298.76c0,0.534-0.107,0.92-0.32,1.16c-0.214,0.24-0.587,0.36-1.12,0.36h-4.64
		c-0.8,0-1.2-0.453-1.2-1.36v-6.72c0-0.853,0.373-1.28,1.12-1.28h5.04c0.32,0,0.586,0.107,0.8,0.32
		c0.213,0.214,0.32,0.507,0.32,0.88V298.76z M1039.737,348.92c0,0.534-0.107,0.895-0.32,1.08c-0.213,0.188-0.587,0.28-1.119,0.28
		h-4.08c-0.48,0-0.801-0.08-0.96-0.24c-0.16-0.159-0.24-0.452-0.24-0.88V309c0-0.747,0.32-1.12,0.96-1.12h4.88
		c0.586,0,0.88,0.347,0.88,1.04V348.92z"/>
	<path fill="#FFFFFF" d="M1059.298,348.32c-3.067-1.84-5.44-4.413-7.12-7.72c-1.681-3.306-2.521-7.066-2.521-11.28
		c0-4.32,0.866-8.16,2.601-11.52c1.732-3.36,4.132-5.986,7.2-7.88c3.065-1.893,6.572-2.84,10.52-2.84
		c3.946,0,7.452,0.948,10.52,2.84c3.066,1.894,5.44,4.52,7.12,7.88c1.681,3.36,2.521,7.174,2.521,11.44
		c0,4.214-0.854,7.974-2.561,11.28c-1.707,3.307-4.094,5.894-7.159,7.76c-3.068,1.868-6.574,2.8-10.521,2.8
		C1065.897,351.08,1062.364,350.16,1059.298,348.32z M1079.777,341.521c2.32-3.013,3.48-7.16,3.48-12.44
		c0-5.226-1.188-9.372-3.561-12.44c-2.373-3.066-5.613-4.6-9.72-4.6c-4.16,0-7.44,1.534-9.84,4.6
		c-2.4,3.068-3.601,7.214-3.601,12.44c0,5.228,1.2,9.36,3.601,12.4c2.399,3.04,5.706,4.56,9.92,4.56
		C1074.218,346.04,1077.458,344.534,1079.777,341.521z"/>
	<path fill="#FFFFFF" d="M1100.058,349.24v-40.32c0-0.693,0.292-1.04,0.88-1.04h4.8c0.586,0,0.88,0.293,0.88,0.88v4.64
		c0,0.587,0.24,0.667,0.721,0.24c2.985-2.346,5.532-4.026,7.64-5.04c2.106-1.012,4.466-1.52,7.08-1.52
		c4.053,0,7.212,1.094,9.479,3.28c2.267,2.188,3.4,5.12,3.4,8.8V349c0,0.854-0.4,1.28-1.2,1.28h-4.479
		c-0.694,0-1.04-0.347-1.04-1.04v-28.56c0-2.666-0.681-4.72-2.04-6.16c-1.36-1.44-3.454-2.16-6.28-2.16
		c-2.24,0-4.308,0.494-6.2,1.48c-1.894,0.987-4.2,2.654-6.92,5v30.24c0,0.428-0.094,0.734-0.28,0.92
		c-0.188,0.188-0.493,0.28-0.92,0.28h-4.399C1100.43,350.28,1100.058,349.934,1100.058,349.24z"/>
	<path fill="#FFFFFF" d="M1157.177,351.08c-4.159,0-7.427-1.053-9.8-3.16c-2.373-2.106-3.56-4.919-3.56-8.439
		c0-4.267,1.8-7.626,5.399-10.08c3.601-2.453,8.812-3.893,15.641-4.32l6.24-0.48c0.906-0.106,1.359-0.506,1.359-1.2v-2.16
		c0-2.88-0.894-5.16-2.68-6.84c-1.788-1.68-4.2-2.52-7.24-2.52c-4.693,0-8.533,2.134-11.52,6.4c-0.16,0.268-0.32,0.44-0.48,0.52
		s-0.374,0.067-0.64-0.04l-4.32-1.44c-0.268-0.106-0.4-0.292-0.4-0.56c0-0.16,0.08-0.4,0.24-0.72c1.601-2.826,3.88-5.026,6.84-6.6
		c2.96-1.573,6.467-2.36,10.521-2.36c5.227,0,9.227,1.214,12,3.64c2.772,2.428,4.16,5.774,4.16,10.04v28.32
		c0,0.48-0.08,0.801-0.24,0.96c-0.16,0.16-0.454,0.24-0.88,0.24h-4c-0.641,0-1.014-0.427-1.12-1.28l-0.16-3.68
		c-0.054-0.373-0.188-0.56-0.4-0.56s-0.453,0.134-0.72,0.4C1167.31,349.107,1162.563,351.08,1157.177,351.08z M1171.257,328.68
		l-5.199,0.48c-4.96,0.32-8.788,1.28-11.48,2.88c-2.693,1.6-4.04,3.814-4.04,6.64c0,2.294,0.812,4.107,2.44,5.44
		c1.626,1.334,3.8,2,6.52,2c1.652,0,3.28-0.292,4.88-0.88c1.601-0.586,3.013-1.386,4.24-2.4c1.227-0.96,2.173-1.986,2.84-3.08
		c0.666-1.092,1-2.146,1-3.16v-6.64C1172.457,329.108,1172.058,328.68,1171.257,328.68z"/>
	<path fill="#FFFFFF" d="M1197.416,348.92c0,0.534-0.107,0.895-0.32,1.08c-0.214,0.188-0.587,0.28-1.12,0.28h-4.159
		c-0.48,0-0.801-0.08-0.96-0.24c-0.16-0.159-0.24-0.452-0.24-0.88l0.08-57.12c0-0.746,0.319-1.12,0.96-1.12h4.8
		c0.64,0,0.96,0.347,0.96,1.04V348.92z"/>
	<path fill="#FFFFFF" d="M1224.136,291.8c0-0.586,0.319-0.88,0.96-0.88h43.04c0.64,0,0.96,0.293,0.96,0.88v4.16
		c0,0.32-0.08,0.534-0.24,0.64c-0.16,0.108-0.4,0.16-0.72,0.16h-16.24c-0.32,0-0.548,0.054-0.68,0.16
		c-0.134,0.107-0.2,0.32-0.2,0.64v51.68c0,0.693-0.32,1.04-0.96,1.04h-5.761c-0.64,0-0.96-0.347-0.96-1.04v-51.6
		c0-0.373-0.054-0.612-0.159-0.72c-0.107-0.106-0.32-0.16-0.641-0.16h-17.439c-0.32,0-0.561-0.052-0.721-0.16
		c-0.159-0.106-0.239-0.32-0.239-0.64V291.8z"/>
	<path fill="#FFFFFF" d="M1276.416,338.84c1.253,2.188,2.946,3.92,5.08,5.2c2.133,1.28,4.48,1.92,7.04,1.92
		c5.333,0,9.493-2.213,12.48-6.64c0.212-0.212,0.399-0.333,0.56-0.36c0.16-0.026,0.347,0.014,0.561,0.12l3.359,1.68
		c0.427,0.268,0.48,0.64,0.16,1.12c-2.08,3.2-4.56,5.534-7.439,7c-2.88,1.466-6.32,2.199-10.32,2.199
		c-3.894,0-7.388-0.906-10.48-2.72c-3.094-1.812-5.507-4.36-7.239-7.64c-1.734-3.28-2.601-7.026-2.601-11.24
		c0-4.533,0.88-8.493,2.641-11.88c1.76-3.386,4.172-5.986,7.239-7.8c3.066-1.812,6.521-2.72,10.36-2.72s7.213,0.854,10.12,2.56
		c2.906,1.708,5.16,4.2,6.76,7.48c1.601,3.28,2.4,7.16,2.4,11.64v0.32c0,0.48-0.08,0.84-0.24,1.08c-0.16,0.24-0.479,0.36-0.96,0.36
		h-30.64c-0.48,0-0.721,0.4-0.721,1.2C1274.536,334.28,1275.163,336.654,1276.416,338.84z M1299.017,326.12
		c0.586,0,0.96-0.066,1.12-0.2c0.16-0.133,0.24-0.44,0.24-0.92c0-2.347-0.494-4.52-1.48-6.52c-0.987-2-2.428-3.6-4.32-4.8
		c-1.894-1.2-4.094-1.8-6.6-1.8c-2.72,0-5.094,0.68-7.12,2.04c-2.027,1.36-3.573,3.12-4.64,5.28c-1.067,2.16-1.574,4.468-1.521,6.92
		H1299.017z"/>
	<path fill="#FFFFFF" d="M1344.095,309.8c2.746,1.814,4.946,4.214,6.601,7.2l0.16,0.64c0,0.32-0.188,0.508-0.561,0.56l-4.4,1.04
		l-0.239,0.08c-0.268,0-0.534-0.212-0.8-0.64c-1.708-2.292-3.348-3.972-4.921-5.04c-1.573-1.066-3.373-1.6-5.399-1.6
		c-4.16,0-7.468,1.534-9.92,4.6c-2.454,3.068-3.681,7.214-3.681,12.44c0,5.28,1.24,9.44,3.721,12.48
		c2.479,3.04,5.826,4.56,10.04,4.56c2.506,0,4.706-0.612,6.6-1.84c1.893-1.226,3.612-3.12,5.16-5.68
		c0.16-0.266,0.32-0.412,0.479-0.44c0.16-0.026,0.347,0.014,0.561,0.12l3.439,1.28c0.373,0.16,0.48,0.508,0.32,1.04
		c-1.653,3.094-3.92,5.614-6.8,7.56c-2.88,1.947-6.32,2.92-10.32,2.92c-3.894,0-7.359-0.92-10.399-2.76s-5.414-4.413-7.12-7.72
		c-1.708-3.306-2.561-7.092-2.561-11.36c0-4.266,0.853-8.092,2.561-11.48c1.706-3.386,4.092-6.013,7.16-7.88
		c3.065-1.866,6.52-2.8,10.359-2.8C1338.027,307.08,1341.348,307.988,1344.095,309.8z"/>
	<path fill="#FFFFFF" d="M1359.975,349.24v-57.28c0-0.693,0.292-1.04,0.88-1.04h4.72c0.586,0,0.88,0.32,0.88,0.96v21.36
		c0,0.587,0.24,0.667,0.721,0.24c3.04-2.347,5.626-4,7.76-4.96c2.132-0.96,4.479-1.44,7.04-1.44c4.106,0,7.266,1.094,9.479,3.28
		c2.213,2.188,3.32,5.147,3.32,8.88V349c0,0.854-0.4,1.28-1.2,1.28h-4.479c-0.694,0-1.04-0.347-1.04-1.04v-28.56
		c0-2.666-0.681-4.72-2.04-6.16c-1.36-1.44-3.454-2.16-6.28-2.16c-2.24,0-4.28,0.494-6.12,1.48c-1.84,0.987-4.147,2.654-6.92,5
		v30.24c0,0.801-0.428,1.2-1.28,1.2h-4.399C1360.32,350.28,1359.975,349.934,1359.975,349.24z"/>
	<path fill="#FFFFFF" d="M1406.615,349.24v-40.32c0-0.693,0.292-1.04,0.88-1.04h4.8c0.586,0,0.88,0.293,0.88,0.88v4.64
		c0,0.587,0.24,0.667,0.721,0.24c2.985-2.346,5.532-4.026,7.64-5.04c2.106-1.012,4.466-1.52,7.08-1.52
		c4.053,0,7.212,1.094,9.479,3.28c2.267,2.188,3.4,5.12,3.4,8.8V349c0,0.854-0.4,1.28-1.2,1.28h-4.479
		c-0.694,0-1.04-0.347-1.04-1.04v-28.56c0-2.666-0.681-4.72-2.04-6.16c-1.36-1.44-3.454-2.16-6.28-2.16
		c-2.24,0-4.308,0.494-6.2,1.48c-1.894,0.987-4.2,2.654-6.92,5v30.24c0,0.428-0.094,0.734-0.28,0.92
		c-0.188,0.188-0.493,0.28-0.92,0.28h-4.399C1406.987,350.28,1406.615,349.934,1406.615,349.24z"/>
	<path fill="#FFFFFF" d="M1460.374,298.76c0,0.534-0.107,0.92-0.32,1.16c-0.214,0.24-0.587,0.36-1.12,0.36h-4.64
		c-0.8,0-1.2-0.453-1.2-1.36v-6.72c0-0.853,0.373-1.28,1.12-1.28h5.04c0.32,0,0.586,0.107,0.8,0.32
		c0.213,0.214,0.32,0.507,0.32,0.88V298.76z M1460.054,348.92c0,0.534-0.107,0.895-0.32,1.08c-0.213,0.188-0.587,0.28-1.119,0.28
		h-4.08c-0.48,0-0.801-0.08-0.96-0.24c-0.16-0.159-0.24-0.452-0.24-0.88V309c0-0.747,0.32-1.12,0.96-1.12h4.88
		c0.586,0,0.88,0.347,0.88,1.04V348.92z"/>
	<path fill="#FFFFFF" d="M1500.015,309.8c2.746,1.814,4.946,4.214,6.601,7.2l0.16,0.64c0,0.32-0.188,0.508-0.561,0.56l-4.4,1.04
		l-0.239,0.08c-0.268,0-0.534-0.212-0.8-0.64c-1.708-2.292-3.348-3.972-4.921-5.04c-1.573-1.066-3.373-1.6-5.399-1.6
		c-4.16,0-7.468,1.534-9.92,4.6c-2.454,3.068-3.681,7.214-3.681,12.44c0,5.28,1.24,9.44,3.721,12.48
		c2.479,3.04,5.826,4.56,10.04,4.56c2.506,0,4.706-0.612,6.6-1.84c1.893-1.226,3.612-3.12,5.16-5.68
		c0.16-0.266,0.32-0.412,0.479-0.44c0.16-0.026,0.347,0.014,0.561,0.12l3.439,1.28c0.373,0.16,0.48,0.508,0.32,1.04
		c-1.653,3.094-3.92,5.614-6.8,7.56c-2.88,1.947-6.32,2.92-10.32,2.92c-3.894,0-7.359-0.92-10.399-2.76s-5.414-4.413-7.12-7.72
		c-1.708-3.306-2.561-7.092-2.561-11.36c0-4.266,0.853-8.092,2.561-11.48c1.706-3.386,4.092-6.013,7.16-7.88
		c3.065-1.866,6.52-2.8,10.359-2.8C1493.947,307.08,1497.268,307.988,1500.015,309.8z"/>
	<path fill="#FFFFFF" d="M1526.214,351.08c-4.159,0-7.427-1.053-9.8-3.16c-2.373-2.106-3.56-4.919-3.56-8.439
		c0-4.267,1.8-7.626,5.399-10.08c3.601-2.453,8.812-3.893,15.641-4.32l6.24-0.48c0.906-0.106,1.359-0.506,1.359-1.2v-2.16
		c0-2.88-0.894-5.16-2.68-6.84c-1.788-1.68-4.2-2.52-7.24-2.52c-4.693,0-8.533,2.134-11.52,6.4c-0.16,0.268-0.32,0.44-0.48,0.52
		s-0.374,0.067-0.64-0.04l-4.32-1.44c-0.268-0.106-0.4-0.292-0.4-0.56c0-0.16,0.08-0.4,0.24-0.72c1.601-2.826,3.88-5.026,6.84-6.6
		c2.96-1.573,6.467-2.36,10.521-2.36c5.227,0,9.227,1.214,12,3.64c2.772,2.428,4.16,5.774,4.16,10.04v28.32
		c0,0.48-0.08,0.801-0.24,0.96c-0.16,0.16-0.454,0.24-0.88,0.24h-4c-0.641,0-1.014-0.427-1.12-1.28l-0.16-3.68
		c-0.054-0.373-0.188-0.56-0.4-0.56s-0.453,0.134-0.72,0.4C1536.347,349.107,1531.601,351.08,1526.214,351.08z M1540.294,328.68
		l-5.199,0.48c-4.96,0.32-8.788,1.28-11.48,2.88c-2.693,1.6-4.04,3.814-4.04,6.64c0,2.294,0.812,4.107,2.44,5.44
		c1.626,1.334,3.8,2,6.52,2c1.652,0,3.28-0.292,4.88-0.88c1.601-0.586,3.013-1.386,4.24-2.4c1.227-0.96,2.173-1.986,2.84-3.08
		c0.666-1.092,1-2.146,1-3.16v-6.64C1541.494,329.108,1541.095,328.68,1540.294,328.68z"/>
	<path fill="#FFFFFF" d="M1566.452,348.92c0,0.534-0.107,0.895-0.32,1.08c-0.214,0.188-0.587,0.28-1.12,0.28h-4.159
		c-0.48,0-0.801-0.08-0.96-0.24c-0.16-0.159-0.24-0.452-0.24-0.88l0.08-57.12c0-0.746,0.319-1.12,0.96-1.12h4.8
		c0.64,0,0.96,0.347,0.96,1.04V348.92z"/>
	<path fill="#FFFFFF" d="M905.98,394.92c0.64,0,0.96,0.348,0.96,1.04v56.96c0,0.534-0.108,0.895-0.32,1.08
		c-0.214,0.188-0.588,0.28-1.12,0.28h-5.04c-0.479,0-0.8-0.08-0.96-0.24s-0.24-0.452-0.24-0.88v-57.12c0-0.746,0.32-1.12,0.96-1.12
		H905.98z"/>
	<path fill="#FFFFFF" d="M920.859,453.24v-40.32c0-0.692,0.292-1.04,0.88-1.04h4.8c0.586,0,0.88,0.294,0.88,0.881v4.64
		c0,0.587,0.24,0.667,0.721,0.24c2.985-2.347,5.532-4.026,7.64-5.04c2.106-1.013,4.466-1.521,7.08-1.521
		c4.053,0,7.212,1.094,9.479,3.28c2.267,2.188,3.4,5.12,3.4,8.8V453c0,0.854-0.4,1.28-1.2,1.28h-4.479
		c-0.694,0-1.04-0.347-1.04-1.04v-28.56c0-2.667-0.681-4.721-2.04-6.16c-1.36-1.44-3.454-2.16-6.28-2.16
		c-2.24,0-4.308,0.494-6.2,1.479c-1.894,0.988-4.2,2.654-6.92,5v30.24c0,0.428-0.094,0.734-0.28,0.92
		c-0.188,0.188-0.493,0.28-0.92,0.28h-4.399C921.231,454.28,920.859,453.934,920.859,453.24z"/>
	<path fill="#FFFFFF" d="M989.819,412.681v3.439c0,0.48-0.268,0.72-0.801,0.72h-9.119c-0.428,0-0.641,0.24-0.641,0.721v35.6
		c0,0.748-0.32,1.12-0.96,1.12h-4.88c-0.588,0-0.88-0.347-0.88-1.04v-35.76c0-0.427-0.188-0.641-0.561-0.641h-7.84
		c-0.533,0-0.8-0.239-0.8-0.72v-3.439c0-0.533,0.293-0.801,0.88-0.801h7.601c0.479,0,0.72-0.266,0.72-0.8v-5.84
		c0-6.88,3.332-10.32,10-10.32h6.64c0.692,0,1.04,0.32,1.04,0.96V399c0,0.534-0.294,0.8-0.88,0.8h-5.6
		c-3.094,0-4.641,1.921-4.641,5.761v5.6c0,0.48,0.24,0.72,0.721,0.72h9.199C989.552,411.88,989.819,412.147,989.819,412.681z"/>
	<path fill="#FFFFFF" d="M1003.379,452.32c-3.067-1.84-5.44-4.412-7.12-7.72c-1.681-3.307-2.521-7.066-2.521-11.28
		c0-4.32,0.866-8.16,2.601-11.521c1.732-3.359,4.132-5.985,7.2-7.88c3.065-1.893,6.572-2.84,10.52-2.84
		c3.946,0,7.452,0.947,10.52,2.84c3.066,1.895,5.44,4.521,7.12,7.88c1.681,3.36,2.521,7.174,2.521,11.44
		c0,4.214-0.854,7.974-2.561,11.28c-1.707,3.308-4.094,5.894-7.159,7.76c-3.068,1.867-6.574,2.8-10.521,2.8
		C1009.979,455.08,1006.445,454.16,1003.379,452.32z M1023.858,445.521c2.32-3.013,3.48-7.16,3.48-12.44
		c0-5.226-1.188-9.372-3.561-12.439c-2.373-3.066-5.613-4.601-9.72-4.601c-4.16,0-7.44,1.534-9.84,4.601
		c-2.4,3.067-3.601,7.214-3.601,12.439c0,5.228,1.2,9.36,3.601,12.4c2.399,3.04,5.706,4.56,9.92,4.56
		C1018.299,450.04,1021.539,448.534,1023.858,445.521z"/>
	<path fill="#FFFFFF" d="M1044.139,453.24v-40.32c0-0.692,0.292-1.04,0.88-1.04h4.64c0.587,0,0.88,0.294,0.88,0.881v5.199
		c0,0.32,0.093,0.508,0.28,0.561c0.187,0.054,0.387-0.053,0.601-0.32c4.052-4.746,8.186-7.12,12.399-7.12
		c1.866,0,2.8,0.348,2.8,1.04v4.8c0,0.534-0.239,0.748-0.72,0.641c-0.96-0.16-2.16-0.24-3.6-0.24c-1.548,0-3.228,0.454-5.04,1.36
		c-1.814,0.907-3.334,2.08-4.561,3.52c-1.228,1.44-1.84,2.907-1.84,4.4v26.479c0,0.8-0.399,1.2-1.2,1.2h-4.399
		C1044.511,454.28,1044.139,453.934,1044.139,453.24z"/>
	<path fill="#FFFFFF" d="M1074.778,453.24v-40.32c0-0.692,0.292-1.04,0.88-1.04h4.8c0.532,0,0.8,0.294,0.8,0.881v4.64
		c0,0.64,0.267,0.72,0.801,0.24c2.88-2.347,5.332-4.026,7.359-5.04c2.026-1.013,4.293-1.521,6.8-1.521c2.986,0,5.453,0.668,7.4,2
		c1.946,1.334,3.267,3.014,3.96,5.04c0.106,0.16,0.213,0.24,0.32,0.24c0.16,0,0.426-0.133,0.8-0.4
		c2.772-2.346,5.267-4.08,7.479-5.199c2.213-1.12,4.547-1.681,7-1.681c3.841,0,6.841,1.094,9,3.28c2.16,2.188,3.24,5.147,3.24,8.88
		V453c0,0.854-0.399,1.28-1.2,1.28h-4.479c-0.694,0-1.04-0.347-1.04-1.04v-28.56c0-2.667-0.64-4.721-1.92-6.16
		c-1.28-1.44-3.2-2.16-5.76-2.16c-2.134,0-4.134,0.52-6,1.56c-1.868,1.04-3.681,2.334-5.44,3.88c-0.428,0.428-0.72,0.801-0.88,1.12
		c-0.16,0.32-0.24,0.721-0.24,1.2V453c0,0.854-0.399,1.28-1.2,1.28h-4.479c-0.694,0-1.04-0.347-1.04-1.04v-28.56
		c0-5.547-2.561-8.32-7.68-8.32c-2.134,0-4.094,0.494-5.881,1.479c-1.787,0.988-4.014,2.654-6.68,5v30.24
		c0,0.428-0.094,0.734-0.28,0.92c-0.188,0.188-0.493,0.28-0.92,0.28h-4.399C1075.15,454.28,1074.778,453.934,1074.778,453.24z"/>
	<path fill="#FFFFFF" d="M1157.657,455.08c-4.159,0-7.427-1.053-9.8-3.16c-2.373-2.105-3.56-4.92-3.56-8.439
		c0-4.267,1.8-7.626,5.399-10.08c3.601-2.452,8.812-3.893,15.641-4.32l6.24-0.479c0.906-0.106,1.359-0.507,1.359-1.2v-2.16
		c0-2.88-0.894-5.16-2.68-6.84c-1.788-1.68-4.2-2.521-7.24-2.521c-4.693,0-8.533,2.134-11.52,6.4c-0.16,0.268-0.32,0.44-0.48,0.52
		c-0.16,0.08-0.374,0.068-0.64-0.039l-4.32-1.44c-0.268-0.106-0.4-0.293-0.4-0.56c0-0.16,0.08-0.4,0.24-0.721
		c1.601-2.826,3.88-5.026,6.84-6.6c2.96-1.572,6.467-2.36,10.521-2.36c5.227,0,9.227,1.214,12,3.641
		c2.772,2.427,4.16,5.773,4.16,10.04v28.319c0,0.48-0.08,0.8-0.24,0.96s-0.454,0.24-0.88,0.24h-4c-0.641,0-1.014-0.426-1.12-1.28
		l-0.16-3.68c-0.054-0.372-0.188-0.56-0.4-0.56s-0.453,0.133-0.72,0.399C1167.79,453.107,1163.044,455.08,1157.657,455.08z
		 M1171.737,432.681l-5.199,0.479c-4.96,0.32-8.788,1.28-11.48,2.88c-2.693,1.601-4.04,3.814-4.04,6.641
		c0,2.293,0.812,4.107,2.44,5.439c1.626,1.334,3.8,2,6.52,2c1.652,0,3.28-0.292,4.88-0.88c1.601-0.586,3.013-1.386,4.24-2.4
		c1.227-0.96,2.173-1.985,2.84-3.079c0.666-1.093,1-2.146,1-3.16v-6.641C1172.938,433.107,1172.538,432.681,1171.737,432.681z"/>
	<path fill="#FFFFFF" d="M1202.297,416.84c-0.428,0-0.641,0.24-0.641,0.721v25.359c0,2.4,0.4,4.054,1.2,4.96
		c0.8,0.908,2.106,1.36,3.92,1.36h5.521c0.586,0,0.88,0.294,0.88,0.88l-0.08,2.72c0,0.534-0.32,0.881-0.96,1.04
		c-1.388,0.268-3.894,0.4-7.521,0.4c-3.359,0-5.813-0.786-7.359-2.36c-1.548-1.572-2.32-4.065-2.32-7.479v-26.72
		c0-0.587-0.268-0.881-0.8-0.881h-6.4c-0.587,0-0.88-0.266-0.88-0.8v-3.359c0-0.533,0.267-0.801,0.8-0.801h6.8
		c0.373,0,0.561-0.212,0.561-0.64l0.88-12.72c0-0.692,0.293-1.04,0.88-1.04h4c0.641,0,0.96,0.374,0.96,1.12v12.64
		c0,0.428,0.213,0.64,0.641,0.64h10.079c0.587,0,0.881,0.24,0.881,0.721v3.439c0,0.534-0.294,0.8-0.881,0.8H1202.297z"/>
	<path fill="#FFFFFF" d="M1229.097,402.761c0,0.533-0.107,0.92-0.32,1.159c-0.214,0.24-0.587,0.36-1.12,0.36h-4.64
		c-0.8,0-1.2-0.452-1.2-1.36v-6.72c0-0.853,0.373-1.28,1.12-1.28h5.04c0.32,0,0.586,0.107,0.8,0.32
		c0.213,0.214,0.32,0.508,0.32,0.88V402.761z M1228.776,452.92c0,0.534-0.107,0.895-0.32,1.08c-0.213,0.188-0.587,0.28-1.119,0.28
		h-4.08c-0.48,0-0.801-0.08-0.96-0.24c-0.16-0.16-0.24-0.452-0.24-0.88V413c0-0.746,0.32-1.12,0.96-1.12h4.88
		c0.586,0,0.88,0.348,0.88,1.04V452.92z"/>
	<path fill="#FFFFFF" d="M1248.337,452.32c-3.067-1.84-5.44-4.412-7.12-7.72c-1.681-3.307-2.521-7.066-2.521-11.28
		c0-4.32,0.866-8.16,2.601-11.521c1.732-3.359,4.132-5.985,7.2-7.88c3.065-1.893,6.572-2.84,10.52-2.84
		c3.946,0,7.452,0.947,10.52,2.84c3.066,1.895,5.44,4.521,7.12,7.88c1.681,3.36,2.521,7.174,2.521,11.44
		c0,4.214-0.854,7.974-2.561,11.28c-1.707,3.308-4.094,5.894-7.159,7.76c-3.068,1.867-6.574,2.8-10.521,2.8
		C1254.937,455.08,1251.403,454.16,1248.337,452.32z M1268.816,445.521c2.32-3.013,3.48-7.16,3.48-12.44
		c0-5.226-1.188-9.372-3.561-12.439c-2.373-3.066-5.613-4.601-9.72-4.601c-4.16,0-7.44,1.534-9.84,4.601
		c-2.4,3.067-3.601,7.214-3.601,12.439c0,5.228,1.2,9.36,3.601,12.4c2.399,3.04,5.706,4.56,9.92,4.56
		C1263.257,450.04,1266.497,448.534,1268.816,445.521z"/>
	<path fill="#FFFFFF" d="M1289.097,453.24v-40.32c0-0.692,0.292-1.04,0.88-1.04h4.8c0.586,0,0.88,0.294,0.88,0.881v4.64
		c0,0.587,0.24,0.667,0.721,0.24c2.985-2.347,5.532-4.026,7.64-5.04c2.106-1.013,4.466-1.521,7.08-1.521
		c4.053,0,7.212,1.094,9.479,3.28c2.267,2.188,3.4,5.12,3.4,8.8V453c0,0.854-0.4,1.28-1.2,1.28h-4.479
		c-0.694,0-1.04-0.347-1.04-1.04v-28.56c0-2.667-0.681-4.721-2.04-6.16c-1.36-1.44-3.454-2.16-6.28-2.16
		c-2.24,0-4.308,0.494-6.2,1.479c-1.894,0.988-4.2,2.654-6.92,5v30.24c0,0.428-0.094,0.734-0.28,0.92
		c-0.188,0.188-0.493,0.28-0.92,0.28h-4.399C1289.469,454.28,1289.097,453.934,1289.097,453.24z"/>
	<path fill="#FFFFFF" d="M1373.096,399.96c-4,0-7.147,0.88-9.44,2.641c-2.294,1.76-3.439,4.214-3.439,7.359
		c0,4.16,2.853,7.2,8.56,9.12l11.6,3.84c4.693,1.548,8.093,3.614,10.2,6.2c2.106,2.588,3.16,5.748,3.16,9.48
		c0,5.12-1.894,9.147-5.68,12.08c-3.788,2.934-8.96,4.399-15.521,4.399c-4.8,0-9.027-0.853-12.68-2.56
		c-3.653-1.706-6.6-4.187-8.84-7.44c-0.214-0.426-0.32-0.692-0.32-0.8c0-0.372,0.267-0.746,0.8-1.12l2.88-2
		c0.48-0.32,0.853-0.479,1.12-0.479c0.32,0,0.613,0.159,0.88,0.479c2.293,2.934,4.561,5.014,6.801,6.24
		c2.239,1.228,5.252,1.84,9.04,1.84c4.479,0,7.96-0.8,10.439-2.4c2.48-1.6,3.72-4.079,3.72-7.439c0-2.08-0.653-3.853-1.96-5.32
		c-1.307-1.466-3.667-2.84-7.079-4.12l-12.16-4.16c-4.214-1.439-7.32-3.506-9.32-6.199c-2-2.692-3-5.667-3-8.92
		c0-3.307,0.84-6.213,2.52-8.721c1.681-2.506,4.053-4.439,7.12-5.8c3.066-1.36,6.601-2.04,10.601-2.04
		c3.893,0,7.426,0.694,10.6,2.08c3.173,1.388,5.88,3.334,8.12,5.84c0.267,0.268,0.4,0.534,0.4,0.8c0,0.268-0.134,0.508-0.4,0.721
		l-3.68,2.88c-0.16,0.16-0.32,0.24-0.48,0.24s-0.479-0.24-0.96-0.721C1383.281,401.96,1378.748,399.96,1373.096,399.96z"/>
	<path fill="#FFFFFF" d="M1410.654,442.84c1.253,2.188,2.946,3.921,5.08,5.2c2.133,1.28,4.48,1.92,7.04,1.92
		c5.333,0,9.493-2.212,12.48-6.64c0.212-0.213,0.399-0.333,0.56-0.36c0.16-0.026,0.347,0.014,0.561,0.12l3.359,1.681
		c0.427,0.267,0.48,0.64,0.16,1.119c-2.08,3.2-4.56,5.534-7.439,7c-2.88,1.467-6.32,2.2-10.32,2.2c-3.894,0-7.388-0.906-10.48-2.72
		c-3.094-1.812-5.507-4.36-7.239-7.64c-1.734-3.28-2.601-7.026-2.601-11.24c0-4.532,0.88-8.493,2.641-11.88
		c1.76-3.387,4.172-5.986,7.239-7.801c3.066-1.812,6.521-2.72,10.36-2.72s7.213,0.854,10.12,2.561
		c2.906,1.707,5.16,4.199,6.76,7.479c1.601,3.28,2.4,7.16,2.4,11.641v0.319c0,0.48-0.08,0.84-0.24,1.08s-0.479,0.36-0.96,0.36
		h-30.64c-0.48,0-0.721,0.399-0.721,1.2C1408.774,438.28,1409.401,440.654,1410.654,442.84z M1433.255,430.12
		c0.586,0,0.96-0.066,1.12-0.2c0.16-0.132,0.24-0.439,0.24-0.92c0-2.346-0.494-4.52-1.48-6.52c-0.987-2-2.428-3.601-4.32-4.8
		c-1.894-1.2-4.094-1.801-6.6-1.801c-2.72,0-5.094,0.681-7.12,2.04c-2.027,1.36-3.573,3.12-4.64,5.28
		c-1.067,2.16-1.574,4.468-1.521,6.92H1433.255z"/>
	<path fill="#FFFFFF" d="M1450.774,453.24v-40.32c0-0.692,0.292-1.04,0.88-1.04h4.64c0.587,0,0.88,0.294,0.88,0.881v5.199
		c0,0.32,0.093,0.508,0.28,0.561c0.187,0.054,0.387-0.053,0.601-0.32c4.052-4.746,8.186-7.12,12.399-7.12
		c1.866,0,2.8,0.348,2.8,1.04v4.8c0,0.534-0.239,0.748-0.72,0.641c-0.96-0.16-2.16-0.24-3.6-0.24c-1.548,0-3.228,0.454-5.04,1.36
		c-1.814,0.907-3.334,2.08-4.561,3.52c-1.228,1.44-1.84,2.907-1.84,4.4v26.479c0,0.8-0.399,1.2-1.2,1.2h-4.399
		C1451.146,454.28,1450.774,453.934,1450.774,453.24z"/>
	<path fill="#FFFFFF" d="M1516.654,412.24c0.132,0.24,0.146,0.494,0.04,0.76l-16.24,40.08c-0.268,0.8-0.88,1.2-1.84,1.2h-2.88
		c-1.015,0-1.681-0.372-2-1.12l-16.16-40.08c-0.054-0.106-0.08-0.24-0.08-0.399c0-0.533,0.319-0.801,0.96-0.801h4.96
		c0.586,0,1.013,0.294,1.28,0.881l12.56,31.439c0.16,0.534,0.347,0.8,0.56,0.8s0.453-0.292,0.721-0.88l12.479-31.359
		c0.16-0.587,0.561-0.881,1.2-0.881h3.68C1516.267,411.88,1516.521,412,1516.654,412.24z"/>
	<path fill="#FFFFFF" d="M1532.214,402.761c0,0.533-0.107,0.92-0.32,1.159c-0.214,0.24-0.587,0.36-1.12,0.36h-4.64
		c-0.8,0-1.2-0.452-1.2-1.36v-6.72c0-0.853,0.373-1.28,1.12-1.28h5.04c0.32,0,0.586,0.107,0.8,0.32
		c0.213,0.214,0.32,0.508,0.32,0.88V402.761z M1531.894,452.92c0,0.534-0.107,0.895-0.32,1.08c-0.213,0.188-0.587,0.28-1.119,0.28
		h-4.08c-0.48,0-0.801-0.08-0.96-0.24c-0.16-0.16-0.24-0.452-0.24-0.88V413c0-0.746,0.32-1.12,0.96-1.12h4.88
		c0.586,0,0.88,0.348,0.88,1.04V452.92z"/>
	<path fill="#FFFFFF" d="M1571.854,413.8c2.746,1.814,4.946,4.214,6.601,7.2l0.16,0.641c0,0.319-0.188,0.507-0.561,0.56l-4.4,1.04
		l-0.239,0.08c-0.268,0-0.534-0.213-0.8-0.64c-1.708-2.293-3.348-3.973-4.921-5.04c-1.573-1.066-3.373-1.601-5.399-1.601
		c-4.16,0-7.468,1.534-9.92,4.601c-2.454,3.067-3.681,7.214-3.681,12.439c0,5.28,1.24,9.44,3.721,12.48
		c2.479,3.04,5.826,4.56,10.04,4.56c2.506,0,4.706-0.612,6.6-1.84c1.893-1.227,3.612-3.12,5.16-5.68
		c0.16-0.267,0.32-0.413,0.479-0.44c0.16-0.026,0.347,0.014,0.561,0.12l3.439,1.28c0.373,0.16,0.48,0.507,0.32,1.04
		c-1.653,3.094-3.92,5.613-6.8,7.56c-2.88,1.947-6.32,2.92-10.32,2.92c-3.894,0-7.359-0.92-10.399-2.76s-5.414-4.412-7.12-7.72
		c-1.708-3.307-2.561-7.093-2.561-11.36c0-4.267,0.853-8.093,2.561-11.479c1.706-3.387,4.092-6.013,7.16-7.881
		c3.065-1.866,6.52-2.8,10.359-2.8C1565.786,411.08,1569.106,411.987,1571.854,413.8z"/>
	<path fill="#FFFFFF" d="M1594.013,442.84c1.253,2.188,2.946,3.921,5.08,5.2c2.133,1.28,4.48,1.92,7.04,1.92
		c5.333,0,9.493-2.212,12.48-6.64c0.212-0.213,0.399-0.333,0.56-0.36c0.16-0.026,0.347,0.014,0.561,0.12l3.359,1.681
		c0.427,0.267,0.48,0.64,0.16,1.119c-2.08,3.2-4.56,5.534-7.439,7c-2.88,1.467-6.32,2.2-10.32,2.2c-3.894,0-7.388-0.906-10.48-2.72
		c-3.094-1.812-5.507-4.36-7.239-7.64c-1.734-3.28-2.601-7.026-2.601-11.24c0-4.532,0.88-8.493,2.641-11.88
		c1.76-3.387,4.172-5.986,7.239-7.801c3.066-1.812,6.521-2.72,10.36-2.72s7.213,0.854,10.12,2.561
		c2.906,1.707,5.16,4.199,6.76,7.479c1.601,3.28,2.4,7.16,2.4,11.641v0.319c0,0.48-0.08,0.84-0.24,1.08s-0.479,0.36-0.96,0.36
		h-30.64c-0.48,0-0.721,0.399-0.721,1.2C1592.133,438.28,1592.76,440.654,1594.013,442.84z M1616.613,430.12
		c0.586,0,0.96-0.066,1.12-0.2c0.16-0.132,0.24-0.439,0.24-0.92c0-2.346-0.494-4.52-1.48-6.52c-0.987-2-2.428-3.601-4.32-4.8
		c-1.894-1.2-4.094-1.801-6.6-1.801c-2.72,0-5.094,0.681-7.12,2.04c-2.027,1.36-3.573,3.12-4.64,5.28
		c-1.067,2.16-1.574,4.468-1.521,6.92H1616.613z"/>
</g>
</svg>
