<?xml version="1.0" encoding="utf-8"?>
<!-- Generator: Adobe Illustrator 15.1.0, SVG Export Plug-In . SVG Version: 6.00 Build 0)  -->
<!DOCTYPE svg PUBLIC "-//W3C//DTD SVG 1.1//EN" "http://www.w3.org/Graphics/SVG/1.1/DTD/svg11.dtd">
<svg version="1.1" id="Layer_1" xmlns="http://www.w3.org/2000/svg" xmlns:xlink="http://www.w3.org/1999/xlink" x="0px" y="0px"
	 width="762.5px" height="229.989px" viewBox="37.5 287.833 762.5 229.989" enable-background="new 37.5 287.833 762.5 229.989"
	 xml:space="preserve">
<g>
	<path fill="#010101" d="M350.528,367.416h-2.084v142.765c0,3.474-2.778,4.862-8.684,4.862c-5.905,0-8.684-1.736-8.684-4.862
		V368.458c0-6.252,0.695-10.768,2.432-12.852c1.389-2.432,5.21-3.474,10.768-3.474h4.863c10.073,0,17.021,1.042,20.494,3.474
		c3.474,2.431,6.252,8.336,8.684,17.368L406.8,487.949c1.39,5.211,2.433,8.685,3.821,9.726c1.042,1.39,4.168,2.085,8.684,2.085
		h2.085V356.995c0-3.474,2.778-4.863,8.684-4.863s8.685,1.737,8.685,4.863v141.723c0,6.253-0.695,10.768-2.433,12.852
		c-1.39,2.433-5.21,3.474-10.768,3.474h-4.863c-10.073,0-17.021-1.041-20.495-3.474c-3.474-2.431-6.252-8.336-8.684-17.368
		l-28.483-114.975c-1.39-5.21-2.432-8.684-3.821-9.726C358.169,367.763,355.39,367.416,350.528,367.416z"/>
	<path fill="#010101" d="M480.44,351.784h92.05c2.778,0,4.516,2.432,4.516,7.642s-1.389,7.642-4.516,7.642h-37.168v142.765
		c0,3.474-2.778,4.863-8.684,4.863c-5.904,0-8.684-1.737-8.684-4.863V367.416H480.44c-2.779,0-4.516-2.432-4.516-7.642
		S477.314,351.784,480.44,351.784z"/>
	<path fill="#010101" d="M633.625,355.953v154.228c0,3.474-2.777,4.862-8.684,4.862c-5.904,0-8.684-1.736-8.684-4.862V355.953
		c0-3.474,2.779-4.863,8.684-4.863C630.499,350.742,633.625,352.479,633.625,355.953z"/>
	<path fill="#010101" d="M768.401,484.823v-24.662c0-4.863-1.737-8.337-5.558-10.421c-3.821-2.085-10.421-4.517-19.8-6.601
		l-19.452-4.516c-9.031-2.084-15.631-4.168-20.147-6.947c-9.726-5.21-14.589-15.631-14.589-31.609v-17.021
		c0-12.158,4.168-20.842,12.853-26.399c8.684-5.558,20.146-8.337,34.389-8.337c14.241,0,25.704,2.779,34.389,8.337
		c8.684,5.558,12.852,14.242,12.852,26.399v9.726c0,3.474-2.778,4.863-8.684,4.863s-8.685-1.737-8.685-4.863v-11.81
		c0-11.463-10.072-17.021-29.872-17.021s-29.873,5.558-29.873,17.021v18.757c0,7.989,1.042,13.547,3.474,16.672
		c2.432,3.127,6.947,5.211,13.547,6.601l19.452,4.516c13.895,3.127,21.884,5.211,23.968,6.252c2.084,1.043,4.168,2.433,6.947,3.474
		c2.778,1.39,4.516,2.779,5.211,4.169c1.041,1.39,2.084,3.126,3.474,5.21c2.084,3.474,3.126,8.685,3.126,15.632v20.841
		c0,11.811-4.863,20.842-14.242,26.399c-9.726,5.558-21.536,8.337-36.126,8.337c-14.589,0-26.398-2.779-35.777-8.337
		s-13.895-14.241-13.895-26.399v-9.726c0-3.474,2.778-4.862,8.685-4.862c5.904,0,8.684,1.736,8.684,4.862v11.81
		c0,5.906,3.127,10.421,9.031,12.854c5.904,2.778,13.547,4.168,22.926,4.168s17.021-1.39,23.273-4.168
		C765.274,494.896,768.401,490.728,768.401,484.823z"/>
</g>
<rect x="51.741" y="402.519" fill="#FFFFFF" width="44.672" height="114.658"/>
<rect x="118.776" y="287.833" fill="#FFFFFF" width="44.672" height="229.316"/>
<rect x="189.699" y="350.524" fill="#FFFFFF" width="44.672" height="167.804"/>
</svg>
