<?xml version="1.0" encoding="utf-8"?>
<!-- Generator: Adobe Illustrator 19.2.1, SVG Export Plug-In . SVG Version: 6.00 Build 0)  -->
<svg version="1.1" id="Layer_1" xmlns="http://www.w3.org/2000/svg" xmlns:xlink="http://www.w3.org/1999/xlink" x="0px" y="0px"
	 viewBox="0 0 1224 792" style="enable-background:new 0 0 1224 792;" xml:space="preserve">
<style type="text/css">
	.st0{fill:#046B9A;}
	.st1{fill:#CD2128;}
</style>
<g>
	<path d="M535.2,349.3h-2.3v156.3c0,3.8-3,5.3-9.5,5.3c-6.5,0-9.5-1.9-9.5-5.3V350.4c0-6.8,0.8-11.8,2.7-14.1
		c1.5-2.7,5.7-3.8,11.8-3.8h5.3c11,0,18.6,1.1,22.4,3.8c3.8,2.7,6.8,9.1,9.5,19l31.2,125.9c1.5,5.7,2.7,9.5,4.2,10.6
		c1.1,1.5,4.6,2.3,9.5,2.3h2.3V337.8c0-3.8,3-5.3,9.5-5.3c6.5,0,9.5,1.9,9.5,5.3V493c0,6.8-0.8,11.8-2.7,14.1
		c-1.5,2.7-5.7,3.8-11.8,3.8H612c-11,0-18.6-1.1-22.4-3.8c-3.8-2.7-6.8-9.1-9.5-19l-31.2-125.9c-1.5-5.7-2.7-9.5-4.2-10.6
		C543.5,349.6,540.5,349.3,535.2,349.3z"/>
	<path d="M667.4,332.1h100.8c3,0,4.9,2.7,4.9,8.4c0,5.7-1.5,8.4-4.9,8.4h-40.7v156.3c0,3.8-3,5.3-9.5,5.3c-6.5,0-9.5-1.9-9.5-5.3
		V349.3h-40.7c-3,0-4.9-2.7-4.9-8.4C662.4,335.2,664,332.1,667.4,332.1z"/>
	<path d="M826.1,336.7v168.8c0,3.8-3,5.3-9.5,5.3s-9.5-1.9-9.5-5.3V336.7c0-3.8,3-5.3,9.5-5.3C822.6,331,826.1,332.9,826.1,336.7z"
		/>
	<path d="M962.6,477.8v-27c0-5.3-1.9-9.1-6.1-11.4c-4.2-2.3-11.4-4.9-21.7-7.2l-21.3-4.9c-9.9-2.3-17.1-4.6-22.1-7.6
		c-10.6-5.7-16-17.1-16-34.6v-18.6c0-13.3,4.6-22.8,14.1-28.9c9.5-6.1,22.1-9.1,37.6-9.1c15.6,0,28.1,3,37.6,9.1
		s14.1,15.6,14.1,28.9V377c0,3.8-3,5.3-9.5,5.3s-9.5-1.9-9.5-5.3v-12.9c0-12.5-11-18.6-32.7-18.6c-21.7,0-32.7,6.1-32.7,18.6v20.5
		c0,8.7,1.1,14.8,3.8,18.3c2.7,3.4,7.6,5.7,14.8,7.2l21.3,4.9c15.2,3.4,24,5.7,26.2,6.8c2.3,1.1,4.6,2.7,7.6,3.8
		c3,1.5,4.9,3,5.7,4.6c1.1,1.5,2.3,3.4,3.8,5.7c2.3,3.8,3.4,9.5,3.4,17.1v22.8c0,12.9-5.3,22.8-15.6,28.9
		c-10.6,6.1-23.6,9.1-39.5,9.1c-16,0-28.9-3-39.2-9.1c-10.3-6.1-15.2-15.6-15.2-28.9v-10.6c0-3.8,3-5.3,9.5-5.3s9.5,1.9,9.5,5.3
		v12.9c0,6.5,3.4,11.4,9.9,14.1c6.5,3,14.8,4.6,25.1,4.6s18.6-1.5,25.5-4.6C959.2,488.8,962.6,484.2,962.6,477.8z"/>
</g>
<rect x="242.9" y="386.1" class="st0" width="45.6" height="67.9"/>
<rect x="311.4" y="279" class="st0" width="45.6" height="234.2"/>
<rect x="383.8" y="329.8" class="st0" width="45.6" height="183.6"/>
<rect x="242.9" y="467.3" class="st1" width="45.6" height="45.6"/>
</svg>
