<svg id="Layer_1" data-name="Layer 1" xmlns="http://www.w3.org/2000/svg" viewBox="0 0 207.33 61.78"><defs><style>.cls-1{fill:#010101;}.cls-2{fill:#02bfe7;}</style></defs><title>ntis-logo</title><path class="cls-1" d="M82.1,30.1H81.5V71.2c0,1-.8,1.4-2.5,1.4s-2.5-.5-2.5-1.4V30.4c0-1.8.2-3.1,0.7-3.7s1.5-1,3.1-1h1.4c2.9,0,4.9.3,5.9,1s1.8,2.4,2.5,5l8.2,33.1c0.4,1.5.7,2.5,1.1,2.8s1.2,0.6,2.5.6h0.6V27.1c0-1,.8-1.4,2.5-1.4s2.5,0.5,2.5,1.4V67.9c0,1.8-.2,3.1-0.7,3.7s-1.5,1-3.1,1h-1.4c-2.9,0-4.9-.3-5.9-1s-1.8-2.4-2.5-5L85.7,33.5C85.3,32,85,31,84.6,30.7,84.3,30.2,83.5,30.1,82.1,30.1Z" transform="translate(0.03 -11.62)"/><path class="cls-1" d="M119.5,25.6H146c0.8,0,1.3.7,1.3,2.2S146.9,30,146,30H135.3V71.1c0,1-.8,1.4-2.5,1.4s-2.5-.5-2.5-1.4v-41H119.6c-0.8,0-1.3-.7-1.3-2.2S118.6,25.6,119.5,25.6Z" transform="translate(0.03 -11.62)"/><path class="cls-1" d="M163.6,26.8V71.2c0,1-.8,1.4-2.5,1.4s-2.5-.5-2.5-1.4V26.8c0-1,.8-1.4,2.5-1.4S163.6,25.8,163.6,26.8Z" transform="translate(0.03 -11.62)"/><path class="cls-1" d="M202.4,63.9V56.8a3.11,3.11,0,0,0-1.6-3,23,23,0,0,0-5.7-1.9l-5.6-1.3a20.18,20.18,0,0,1-5.8-2c-2.8-1.5-4.2-4.5-4.2-9.1V34.6c0-3.5,1.2-6,3.7-7.6s5.8-2.4,9.9-2.4,7.4,0.8,9.9,2.4,3.7,4.1,3.7,7.6v2.8c0,1-.8,1.4-2.5,1.4s-2.5-.5-2.5-1.4V34c0-3.3-2.9-4.9-8.6-4.9s-8.6,1.6-8.6,4.9v5.4c0,2.3.3,3.9,1,4.8s2,1.5,3.9,1.9l5.6,1.3a53.12,53.12,0,0,1,6.9,1.8,18.58,18.58,0,0,0,2,1,3.25,3.25,0,0,1,1.5,1.2c0.3,0.4.6,0.9,1,1.5a8.92,8.92,0,0,1,.9,4.5v6a8.29,8.29,0,0,1-4.1,7.6,20.52,20.52,0,0,1-10.4,2.4A19.88,19.88,0,0,1,182.5,71c-2.7-1.6-4-4.1-4-7.6V60.6c0-1,.8-1.4,2.5-1.4s2.5,0.5,2.5,1.4V64a3.83,3.83,0,0,0,2.6,3.7,15.58,15.58,0,0,0,6.6,1.2,16.39,16.39,0,0,0,6.7-1.2C201.5,66.8,202.4,65.6,202.4,63.9Z" transform="translate(0.03 -11.62)"/><rect class="cls-2" y="30.81" width="12" height="30.8"/><rect class="cls-2" x="18.01" width="12" height="61.6"/><rect class="cls-2" x="37.06" y="13.35" width="12" height="48.3"/></svg>