<?xml version="1.0" encoding="utf-8"?>
<!-- Generator: Adobe Illustrator 15.1.0, SVG Export Plug-In . SVG Version: 6.00 Build 0)  -->
<!DOCTYPE svg PUBLIC "-//W3C//DTD SVG 1.1//EN" "http://www.w3.org/Graphics/SVG/1.1/DTD/svg11.dtd">
<svg version="1.1" id="Layer_1" xmlns="http://www.w3.org/2000/svg" xmlns:xlink="http://www.w3.org/1999/xlink" x="0px" y="0px"
	 width="738.331px" height="233.368px" viewBox="19.881 -1.52 738.331 233.368"
	 enable-background="new 19.881 -1.52 738.331 233.368" xml:space="preserve">
<g>
	<path fill="#010101" d="M312.167,68.731h-2.281v156.275c0,3.801-3.042,5.322-9.505,5.322c-6.464,0-9.506-1.9-9.506-5.322V69.871
		c0-6.844,0.76-11.787,2.662-14.068c1.521-2.661,5.704-3.802,11.787-3.802h5.323c11.026,0,18.632,1.142,22.435,3.802
		c3.802,2.662,6.844,9.125,9.506,19.012l31.179,125.854c1.521,5.703,2.661,9.508,4.183,10.646c1.142,1.521,4.562,2.281,9.506,2.281
		h2.281V57.323c0-3.802,3.042-5.323,9.506-5.323s9.506,1.901,9.506,5.323v155.134c0,6.844-0.761,11.787-2.661,14.068
		c-1.521,2.662-5.704,3.803-11.787,3.803h-5.323c-11.026,0-18.632-1.141-22.434-3.803c-3.803-2.662-6.845-9.125-9.506-19.012
		L325.857,81.658c-1.521-5.704-2.661-9.506-4.184-10.646C320.532,69.11,317.49,68.731,312.167,68.731z"/>
	<path fill="#010101" d="M444.373,51.62h100.76c3.042,0,4.943,2.662,4.943,8.365c0,5.704-1.521,8.364-4.943,8.364h-40.685v156.274
		c0,3.803-3.041,5.322-9.505,5.322c-6.465,0-9.506-1.9-9.506-5.322V68.731h-40.686c-3.042,0-4.943-2.662-4.943-8.365
		C439.43,54.662,440.95,51.62,444.373,51.62z"/>
	<path fill="#010101" d="M603.054,56.183v168.823c0,3.801-3.042,5.322-9.506,5.322s-9.506-1.9-9.506-5.322V56.183
		c0-3.803,3.042-5.323,9.506-5.323C599.631,50.48,603.054,52.381,603.054,56.183z"/>
	<path fill="#010101" d="M739.582,197.248v-26.996c0-5.322-1.901-9.127-6.084-11.406c-4.183-2.281-11.407-4.943-21.673-7.227
		l-21.293-4.941c-9.886-2.281-17.11-4.562-22.055-7.604c-10.646-5.705-15.969-17.109-15.969-34.602V85.842
		c0-13.308,4.562-22.812,14.068-28.896s22.053-9.125,37.643-9.125c15.589,0,28.138,3.042,37.644,9.125s14.067,15.589,14.067,28.896
		v10.646c0,3.802-3.042,5.323-9.506,5.323s-9.506-1.901-9.506-5.323V83.56c0-12.548-11.026-18.632-32.699-18.632
		c-21.674,0-32.7,6.083-32.7,18.632v20.531c0,8.745,1.142,14.829,3.804,18.252c2.661,3.422,7.604,5.703,14.829,7.225l21.292,4.941
		c15.21,3.424,23.955,5.703,26.235,6.846c2.281,1.141,4.562,2.66,7.604,3.801c3.042,1.521,4.941,3.043,5.703,4.564
		c1.141,1.52,2.28,3.422,3.803,5.701c2.281,3.803,3.422,9.508,3.422,17.111v22.812c0,12.928-5.323,22.812-15.59,28.896
		c-10.646,6.084-23.574,9.125-39.543,9.125c-15.97,0-28.897-3.041-39.164-9.125c-10.266-6.084-15.209-15.59-15.209-28.896v-10.646
		c0-3.801,3.042-5.322,9.506-5.322s9.506,1.9,9.506,5.322v12.928c0,6.465,3.422,11.408,9.886,14.068
		c6.465,3.043,14.829,4.564,25.096,4.564s18.631-1.521,25.476-4.564C736.16,208.274,739.582,203.711,739.582,197.248z"/>
</g>
<rect x="19.881" y="115.617" fill="#FFFFFF" width="45.627" height="117.11"/>
<rect x="88.35" y="-1.52" fill="#FFFFFF" width="45.627" height="234.219"/>
<rect x="160.791" y="49.233" fill="#FFFFFF" width="45.627" height="183.65"/>
</svg>
