<?xml version="1.0" encoding="utf-8"?>
<!-- Generator: Adobe Illustrator 19.2.1, SVG Export Plug-In . SVG Version: 6.00 Build 0)  -->
<svg version="1.1" id="Layer_1" xmlns="http://www.w3.org/2000/svg" xmlns:xlink="http://www.w3.org/1999/xlink" x="0px" y="0px"
	 viewBox="0 0 1624.7 236.4" style="enable-background:new 0 0 1624.7 236.4;" xml:space="preserve">
<style type="text/css">
	.st0{fill:#010101;}
	.st1{fill:#FFFFFF;}
</style>
<title>ntis-logo</title>
<path class="st0" d="M316.8,69.2h-2.3v158.6c0,3.9-3.1,5.4-9.6,5.4s-9.6-1.9-9.6-5.4V70.4c0-6.9,0.8-12,2.7-14.3s5.8-3.9,12-3.9h5.4
	c11.2,0,18.9,1.2,22.8,3.9c3.9,2.7,6.9,9.3,9.6,19.3l31.6,127.7c1.5,5.8,2.7,9.6,4.2,10.8s4.6,2.3,9.6,2.3h2.3V57.6
	c0-3.9,3.1-5.4,9.6-5.4s9.6,1.9,9.6,5.4v157.5c0,6.9-0.8,12-2.7,14.3s-5.8,3.9-12,3.9h-5.4c-11.2,0-18.9-1.2-22.8-3.9
	c-3.9-2.7-6.9-9.3-9.6-19.3L330.7,82.3c-1.5-5.8-2.7-9.6-4.2-10.8C325.3,69.6,322.2,69.2,316.8,69.2z"/>
<path class="st0" d="M461.2,51.9h102.3c3.1,0,5,2.7,5,8.5s-1.5,8.5-5,8.5h-41.3v158.6c0,3.9-3.1,5.4-9.6,5.4s-9.6-1.9-9.6-5.4V69.2
	h-41.3c-3.1,0-5-2.7-5-8.5C456.5,54.9,457.7,51.9,461.2,51.9z"/>
<path class="st0" d="M631.4,56.5v171.3c0,3.9-3.1,5.4-9.6,5.4s-9.6-1.9-9.6-5.4V56.5c0-3.9,3.1-5.4,9.6-5.4S631.4,52.6,631.4,56.5z"
	/>
<path class="st0" d="M781.1,199.7v-27.4c0.4-4.6-1.9-9.3-6.2-11.6c-6.9-3.5-14.3-5.8-22-7.3l-21.6-5c-7.7-1.5-15.4-3.9-22.4-7.7
	c-10.8-5.8-16.2-17.4-16.2-35.1V86.6c0-13.5,4.6-23.2,14.3-29.3c9.6-6.2,22.4-9.3,38.2-9.3s28.6,3.1,38.2,9.3
	c9.6,6.2,14.3,15.8,14.3,29.3v10.8c0,3.9-3.1,5.4-9.6,5.4s-9.6-1.9-9.6-5.4V84.3c0-12.7-11.2-18.9-33.2-18.9S712,71.5,712,84.3v20.8
	c0,8.9,1.2,15,3.9,18.5c2.7,3.5,7.7,5.8,15.1,7.3l21.6,5c8.9,1.5,17.8,3.9,26.6,6.9c2.3,1.5,5,2.7,7.7,3.9c2.3,0.8,4.2,2.7,5.8,4.6
	c1.2,1.5,2.3,3.5,3.9,5.8c2.7,5.4,3.9,11.2,3.5,17.4v23.2c0.8,12-5.4,23.2-15.8,29.3c-12.3,6.6-26.2,9.6-40.1,9.3
	c-13.9,0.4-27.4-2.7-39.7-9.3c-10.4-6.2-15.4-15.8-15.4-29.3v-10.8c0-3.9,3.1-5.4,9.6-5.4s9.6,1.9,9.6,5.4V200
	c0,6.6,3.9,12.4,10,14.3c8.1,3.5,16.6,5,25.5,4.6c8.9,0.4,17.8-1.2,25.9-4.6C777.6,210.9,781.1,206.2,781.1,199.7z"/>
<polygon class="st1" points="0,117.9 46.3,118.9 46.3,235.6 0,235.6 "/>
<rect x="69.5" class="st1" width="46.3" height="235.6"/>
<rect x="143.2" y="51.7" class="st1" width="46.3" height="184.2"/>
<g>
	<path d="M943.4,61c0.3,0,0.5,0.1,0.7,0.2c0.1,0.1,0.2,0.4,0.2,0.8v57.4c0,0.6-0.3,1-1,1h-3.9c-0.4,0-0.8,0-1-0.1s-0.5-0.3-0.7-0.5
		l-30.9-44.9c-0.2-0.4-0.4-0.5-0.6-0.5c-0.2,0.1-0.3,0.2-0.3,0.6v44.4c0,0.7-0.4,1-1.1,1h-4.5c-0.7,0-1-0.3-1-1V62.1
		c0-0.4,0.1-0.7,0.2-0.9c0.1-0.2,0.4-0.2,0.8-0.2h4.6c0.4,0,0.7,0.1,1,0.2c0.2,0.1,0.5,0.3,0.7,0.6l30,43.9c0.3,0.3,0.5,0.5,0.7,0.5
		c0.3,0,0.5-0.2,0.5-0.7V62c0-0.6,0.3-1,1-1L943.4,61L943.4,61z"/>
	<path d="M968.6,121.2c-4.2,0-7.4-1.1-9.8-3.2c-2.4-2.1-3.6-4.9-3.6-8.4c0-4.3,1.8-7.6,5.4-10.1c3.6-2.5,8.8-3.9,15.6-4.3l6.2-0.5
		c0.9-0.1,1.4-0.5,1.4-1.2v-2.2c0-2.9-0.9-5.2-2.7-6.8c-1.8-1.7-4.2-2.5-7.2-2.5c-4.7,0-8.5,2.1-11.5,6.4c-0.2,0.3-0.3,0.4-0.5,0.5
		s-0.4,0.1-0.6,0l-4.3-1.4c-0.3-0.1-0.4-0.3-0.4-0.6c0-0.2,0.1-0.4,0.2-0.7c1.6-2.8,3.9-5,6.8-6.6c3-1.6,6.5-2.4,10.5-2.4
		c5.2,0,9.2,1.2,12,3.6c2.8,2.4,4.2,5.8,4.2,10v28.3c0,0.5-0.1,0.8-0.2,1c-0.2,0.2-0.5,0.2-0.9,0.2h-4c-0.6,0-1-0.4-1.1-1.3
		l-0.2-3.7c-0.1-0.4-0.2-0.6-0.4-0.6s-0.5,0.1-0.7,0.4C978.8,119.2,974,121.2,968.6,121.2z M982.7,98.8l-5.2,0.5
		c-5,0.3-8.8,1.3-11.5,2.9c-2.7,1.6-4,3.8-4,6.6c0,2.3,0.8,4.1,2.4,5.4c1.6,1.3,3.8,2,6.5,2c1.7,0,3.3-0.3,4.9-0.9
		c1.6-0.6,3-1.4,4.2-2.4c1.2-1,2.2-2,2.8-3.1c0.7-1.1,1-2.1,1-3.2V100C983.9,99.2,983.5,98.8,982.7,98.8z"/>
	<path d="M1013.3,82.9c-0.4,0-0.6,0.2-0.6,0.7V109c0,2.4,0.4,4.1,1.2,5c0.8,0.9,2.1,1.4,3.9,1.4h5.5c0.6,0,0.9,0.3,0.9,0.9l-0.1,2.7
		c0,0.5-0.3,0.9-1,1c-1.4,0.3-3.9,0.4-7.5,0.4c-3.4,0-5.8-0.8-7.4-2.4c-1.5-1.6-2.3-4.1-2.3-7.5V83.8c0-0.6-0.3-0.9-0.8-0.9h-6.4
		c-0.6,0-0.9-0.3-0.9-0.8v-3.4c0-0.5,0.3-0.8,0.8-0.8h6.8c0.4,0,0.6-0.2,0.6-0.6l0.9-12.7c0-0.7,0.3-1,0.9-1h4c0.6,0,1,0.4,1,1.1
		v12.6c0,0.4,0.2,0.6,0.6,0.6h10.1c0.6,0,0.9,0.2,0.9,0.7v3.4c0,0.5-0.3,0.8-0.9,0.8L1013.3,82.9L1013.3,82.9z"/>
	<path d="M1040.1,68.8c0,0.5-0.1,0.9-0.3,1.2c-0.2,0.2-0.6,0.4-1.1,0.4h-4.6c-0.8,0-1.2-0.5-1.2-1.4v-6.7c0-0.9,0.4-1.3,1.1-1.3h5
		c0.3,0,0.6,0.1,0.8,0.3c0.2,0.2,0.3,0.5,0.3,0.9L1040.1,68.8L1040.1,68.8z M1039.7,119c0,0.5-0.1,0.9-0.3,1.1
		c-0.2,0.2-0.6,0.3-1.1,0.3h-4.1c-0.5,0-0.8-0.1-1-0.2c-0.2-0.2-0.2-0.5-0.2-0.9V79.1c0-0.7,0.3-1.1,1-1.1h4.9c0.6,0,0.9,0.3,0.9,1
		L1039.7,119L1039.7,119z"/>
	<path d="M1059.3,118.4c-3.1-1.8-5.4-4.4-7.1-7.7c-1.7-3.3-2.5-7.1-2.5-11.3c0-4.3,0.9-8.2,2.6-11.5c1.7-3.4,4.1-6,7.2-7.9
		c3.1-1.9,6.6-2.8,10.5-2.8c3.9,0,7.5,0.9,10.5,2.8c3.1,1.9,5.4,4.5,7.1,7.9c1.7,3.4,2.5,7.2,2.5,11.4c0,4.2-0.9,8-2.6,11.3
		c-1.7,3.3-4.1,5.9-7.2,7.8c-3.1,1.9-6.6,2.8-10.5,2.8C1065.9,121.2,1062.4,120.2,1059.3,118.4z M1079.8,111.6
		c2.3-3,3.5-7.2,3.5-12.4c0-5.2-1.2-9.4-3.6-12.4c-2.4-3.1-5.6-4.6-9.7-4.6c-4.2,0-7.4,1.5-9.8,4.6c-2.4,3.1-3.6,7.2-3.6,12.4
		c0,5.2,1.2,9.4,3.6,12.4c2.4,3,5.7,4.6,9.9,4.6C1074.2,116.1,1077.5,114.6,1079.8,111.6z"/>
	<path d="M1100.1,119.3V79c0-0.7,0.3-1,0.9-1h4.8c0.6,0,0.9,0.3,0.9,0.9v4.6c0,0.6,0.2,0.7,0.7,0.2c3-2.3,5.5-4,7.6-5
		c2.1-1,4.5-1.5,7.1-1.5c4.1,0,7.2,1.1,9.5,3.3c2.3,2.2,3.4,5.1,3.4,8.8v29.8c0,0.9-0.4,1.3-1.2,1.3h-4.5c-0.7,0-1-0.3-1-1V90.8
		c0-2.7-0.7-4.7-2-6.2c-1.4-1.4-3.5-2.2-6.3-2.2c-2.2,0-4.3,0.5-6.2,1.5c-1.9,1-4.2,2.7-6.9,5v30.2c0,0.4-0.1,0.7-0.3,0.9
		c-0.2,0.2-0.5,0.3-0.9,0.3h-4.4C1100.4,120.4,1100.1,120,1100.1,119.3z"/>
	<path d="M1157.2,121.2c-4.2,0-7.4-1.1-9.8-3.2c-2.4-2.1-3.6-4.9-3.6-8.4c0-4.3,1.8-7.6,5.4-10.1c3.6-2.5,8.8-3.9,15.6-4.3l6.2-0.5
		c0.9-0.1,1.4-0.5,1.4-1.2v-2.2c0-2.9-0.9-5.2-2.7-6.8c-1.8-1.7-4.2-2.5-7.2-2.5c-4.7,0-8.5,2.1-11.5,6.4c-0.2,0.3-0.3,0.4-0.5,0.5
		s-0.4,0.1-0.6,0l-4.3-1.4c-0.3-0.1-0.4-0.3-0.4-0.6c0-0.2,0.1-0.4,0.2-0.7c1.6-2.8,3.9-5,6.8-6.6c3-1.6,6.5-2.4,10.5-2.4
		c5.2,0,9.2,1.2,12,3.6c2.8,2.4,4.2,5.8,4.2,10v28.3c0,0.5-0.1,0.8-0.2,1c-0.2,0.2-0.5,0.2-0.9,0.2h-4c-0.6,0-1-0.4-1.1-1.3
		l-0.2-3.7c-0.1-0.4-0.2-0.6-0.4-0.6s-0.5,0.1-0.7,0.4C1167.3,119.2,1162.6,121.2,1157.2,121.2z M1171.3,98.8l-5.2,0.5
		c-5,0.3-8.8,1.3-11.5,2.9c-2.7,1.6-4,3.8-4,6.6c0,2.3,0.8,4.1,2.4,5.4c1.6,1.3,3.8,2,6.5,2c1.7,0,3.3-0.3,4.9-0.9
		c1.6-0.6,3-1.4,4.2-2.4c1.2-1,2.2-2,2.8-3.1c0.7-1.1,1-2.1,1-3.2V100C1172.5,99.2,1172.1,98.8,1171.3,98.8z"/>
	<path d="M1197.4,119c0,0.5-0.1,0.9-0.3,1.1c-0.2,0.2-0.6,0.3-1.1,0.3h-4.2c-0.5,0-0.8-0.1-1-0.2c-0.2-0.2-0.2-0.5-0.2-0.9l0.1-57.1
		c0-0.7,0.3-1.1,1-1.1h4.8c0.6,0,1,0.3,1,1L1197.4,119L1197.4,119z"/>
	<path d="M1224.1,61.9c0-0.6,0.3-0.9,1-0.9h43c0.6,0,1,0.3,1,0.9V66c0,0.3-0.1,0.5-0.2,0.6c-0.2,0.1-0.4,0.2-0.7,0.2h-16.2
		c-0.3,0-0.5,0.1-0.7,0.2c-0.1,0.1-0.2,0.3-0.2,0.6v51.7c0,0.7-0.3,1-1,1h-5.8c-0.6,0-1-0.3-1-1V67.7c0-0.4-0.1-0.6-0.2-0.7
		c-0.1-0.1-0.3-0.2-0.6-0.2h-17.4c-0.3,0-0.6-0.1-0.7-0.2c-0.2-0.1-0.2-0.3-0.2-0.6L1224.1,61.9L1224.1,61.9z"/>
	<path d="M1276.4,108.9c1.3,2.2,2.9,3.9,5.1,5.2c2.1,1.3,4.5,1.9,7,1.9c5.3,0,9.5-2.2,12.5-6.6c0.2-0.2,0.4-0.3,0.6-0.4
		c0.2,0,0.3,0,0.6,0.1l3.4,1.7c0.4,0.3,0.5,0.6,0.2,1.1c-2.1,3.2-4.6,5.5-7.4,7c-2.9,1.5-6.3,2.2-10.3,2.2c-3.9,0-7.4-0.9-10.5-2.7
		c-3.1-1.8-5.5-4.4-7.2-7.6c-1.7-3.3-2.6-7-2.6-11.2c0-4.5,0.9-8.5,2.6-11.9c1.8-3.4,4.2-6,7.2-7.8c3.1-1.8,6.5-2.7,10.4-2.7
		s7.2,0.9,10.1,2.6c2.9,1.7,5.2,4.2,6.8,7.5c1.6,3.3,2.4,7.2,2.4,11.6v0.3c0,0.5-0.1,0.8-0.2,1.1s-0.5,0.4-1,0.4h-30.6
		c-0.5,0-0.7,0.4-0.7,1.2C1274.5,104.4,1275.2,106.7,1276.4,108.9z M1299,96.2c0.6,0,1-0.1,1.1-0.2c0.2-0.1,0.2-0.4,0.2-0.9
		c0-2.3-0.5-4.5-1.5-6.5c-1-2-2.4-3.6-4.3-4.8c-1.9-1.2-4.1-1.8-6.6-1.8c-2.7,0-5.1,0.7-7.1,2c-2,1.4-3.6,3.1-4.6,5.3
		s-1.6,4.5-1.5,6.9L1299,96.2L1299,96.2z"/>
	<path d="M1344.1,79.9c2.7,1.8,4.9,4.2,6.6,7.2l0.2,0.6c0,0.3-0.2,0.5-0.6,0.6l-4.4,1l-0.2,0.1c-0.3,0-0.5-0.2-0.8-0.6
		c-1.7-2.3-3.3-4-4.9-5c-1.6-1.1-3.4-1.6-5.4-1.6c-4.2,0-7.5,1.5-9.9,4.6c-2.5,3.1-3.7,7.2-3.7,12.4c0,5.3,1.2,9.4,3.7,12.5
		c2.5,3,5.8,4.6,10,4.6c2.5,0,4.7-0.6,6.6-1.8c1.9-1.2,3.6-3.1,5.2-5.7c0.2-0.3,0.3-0.4,0.5-0.4c0.2,0,0.3,0,0.6,0.1l3.4,1.3
		c0.4,0.2,0.5,0.5,0.3,1c-1.7,3.1-3.9,5.6-6.8,7.6c-2.9,1.9-6.3,2.9-10.3,2.9c-3.9,0-7.4-0.9-10.4-2.8s-5.4-4.4-7.1-7.7
		c-1.7-3.3-2.6-7.1-2.6-11.4c0-4.3,0.9-8.1,2.6-11.5c1.7-3.4,4.1-6,7.2-7.9c3.1-1.9,6.5-2.8,10.4-2.8
		C1338,77.2,1341.3,78.1,1344.1,79.9z"/>
	<path d="M1360,119.3V62c0-0.7,0.3-1,0.9-1h4.7c0.6,0,0.9,0.3,0.9,1v21.4c0,0.6,0.2,0.7,0.7,0.2c3-2.3,5.6-4,7.8-5
		c2.1-1,4.5-1.4,7-1.4c4.1,0,7.3,1.1,9.5,3.3c2.2,2.2,3.3,5.1,3.3,8.9v29.8c0,0.9-0.4,1.3-1.2,1.3h-4.5c-0.7,0-1-0.3-1-1V90.8
		c0-2.7-0.7-4.7-2-6.2c-1.4-1.4-3.5-2.2-6.3-2.2c-2.2,0-4.3,0.5-6.1,1.5c-1.8,1-4.1,2.7-6.9,5v30.2c0,0.8-0.4,1.2-1.3,1.2h-4.4
		C1360.3,120.4,1360,120,1360,119.3z"/>
	<path d="M1406.6,119.3V79c0-0.7,0.3-1,0.9-1h4.8c0.6,0,0.9,0.3,0.9,0.9v4.6c0,0.6,0.2,0.7,0.7,0.2c3-2.3,5.5-4,7.6-5
		c2.1-1,4.5-1.5,7.1-1.5c4.1,0,7.2,1.1,9.5,3.3c2.3,2.2,3.4,5.1,3.4,8.8v29.8c0,0.9-0.4,1.3-1.2,1.3h-4.5c-0.7,0-1-0.3-1-1V90.8
		c0-2.7-0.7-4.7-2-6.2c-1.4-1.4-3.5-2.2-6.3-2.2c-2.2,0-4.3,0.5-6.2,1.5c-1.9,1-4.2,2.7-6.9,5v30.2c0,0.4-0.1,0.7-0.3,0.9
		c-0.2,0.2-0.5,0.3-0.9,0.3h-4.4C1407,120.4,1406.6,120,1406.6,119.3z"/>
	<path d="M1460.4,68.8c0,0.5-0.1,0.9-0.3,1.2c-0.2,0.2-0.6,0.4-1.1,0.4h-4.6c-0.8,0-1.2-0.5-1.2-1.4v-6.7c0-0.9,0.4-1.3,1.1-1.3h5
		c0.3,0,0.6,0.1,0.8,0.3c0.2,0.2,0.3,0.5,0.3,0.9L1460.4,68.8L1460.4,68.8z M1460.1,119c0,0.5-0.1,0.9-0.3,1.1
		c-0.2,0.2-0.6,0.3-1.1,0.3h-4.1c-0.5,0-0.8-0.1-1-0.2c-0.2-0.2-0.2-0.5-0.2-0.9V79.1c0-0.7,0.3-1.1,1-1.1h4.9c0.6,0,0.9,0.3,0.9,1
		L1460.1,119L1460.1,119z"/>
	<path d="M1500,79.9c2.7,1.8,4.9,4.2,6.6,7.2l0.2,0.6c0,0.3-0.2,0.5-0.6,0.6l-4.4,1l-0.2,0.1c-0.3,0-0.5-0.2-0.8-0.6
		c-1.7-2.3-3.3-4-4.9-5c-1.6-1.1-3.4-1.6-5.4-1.6c-4.2,0-7.5,1.5-9.9,4.6c-2.5,3.1-3.7,7.2-3.7,12.4c0,5.3,1.2,9.4,3.7,12.5
		c2.5,3,5.8,4.6,10,4.6c2.5,0,4.7-0.6,6.6-1.8c1.9-1.2,3.6-3.1,5.2-5.7c0.2-0.3,0.3-0.4,0.5-0.4c0.2,0,0.3,0,0.6,0.1l3.4,1.3
		c0.4,0.2,0.5,0.5,0.3,1c-1.7,3.1-3.9,5.6-6.8,7.6c-2.9,1.9-6.3,2.9-10.3,2.9c-3.9,0-7.4-0.9-10.4-2.8s-5.4-4.4-7.1-7.7
		c-1.7-3.3-2.6-7.1-2.6-11.4c0-4.3,0.9-8.1,2.6-11.5c1.7-3.4,4.1-6,7.2-7.9c3.1-1.9,6.5-2.8,10.4-2.8
		C1493.9,77.2,1497.3,78.1,1500,79.9z"/>
	<path d="M1526.2,121.2c-4.2,0-7.4-1.1-9.8-3.2c-2.4-2.1-3.6-4.9-3.6-8.4c0-4.3,1.8-7.6,5.4-10.1c3.6-2.5,8.8-3.9,15.6-4.3l6.2-0.5
		c0.9-0.1,1.4-0.5,1.4-1.2v-2.2c0-2.9-0.9-5.2-2.7-6.8c-1.8-1.7-4.2-2.5-7.2-2.5c-4.7,0-8.5,2.1-11.5,6.4c-0.2,0.3-0.3,0.4-0.5,0.5
		s-0.4,0.1-0.6,0l-4.3-1.4c-0.3-0.1-0.4-0.3-0.4-0.6c0-0.2,0.1-0.4,0.2-0.7c1.6-2.8,3.9-5,6.8-6.6c3-1.6,6.5-2.4,10.5-2.4
		c5.2,0,9.2,1.2,12,3.6c2.8,2.4,4.2,5.8,4.2,10v28.3c0,0.5-0.1,0.8-0.2,1c-0.2,0.2-0.5,0.2-0.9,0.2h-4c-0.6,0-1-0.4-1.1-1.3
		l-0.2-3.7c-0.1-0.4-0.2-0.6-0.4-0.6s-0.5,0.1-0.7,0.4C1536.3,119.2,1531.6,121.2,1526.2,121.2z M1540.3,98.8l-5.2,0.5
		c-5,0.3-8.8,1.3-11.5,2.9c-2.7,1.6-4,3.8-4,6.6c0,2.3,0.8,4.1,2.4,5.4c1.6,1.3,3.8,2,6.5,2c1.7,0,3.3-0.3,4.9-0.9
		c1.6-0.6,3-1.4,4.2-2.4c1.2-1,2.2-2,2.8-3.1c0.7-1.1,1-2.1,1-3.2V100C1541.5,99.2,1541.1,98.8,1540.3,98.8z"/>
	<path d="M1566.5,119c0,0.5-0.1,0.9-0.3,1.1c-0.2,0.2-0.6,0.3-1.1,0.3h-4.2c-0.5,0-0.8-0.1-1-0.2c-0.2-0.2-0.2-0.5-0.2-0.9l0.1-57.1
		c0-0.7,0.3-1.1,1-1.1h4.8c0.6,0,1,0.3,1,1L1566.5,119L1566.5,119z"/>
	<path d="M906,165c0.6,0,1,0.3,1,1v57c0,0.5-0.1,0.9-0.3,1.1c-0.2,0.2-0.6,0.3-1.1,0.3h-5c-0.5,0-0.8-0.1-1-0.2s-0.2-0.5-0.2-0.9
		v-57.1c0-0.7,0.3-1.1,1-1.1H906z"/>
	<path d="M920.9,223.3V183c0-0.7,0.3-1,0.9-1h4.8c0.6,0,0.9,0.3,0.9,0.9v4.6c0,0.6,0.2,0.7,0.7,0.2c3-2.3,5.5-4,7.6-5
		c2.1-1,4.5-1.5,7.1-1.5c4.1,0,7.2,1.1,9.5,3.3c2.3,2.2,3.4,5.1,3.4,8.8v29.8c0,0.9-0.4,1.3-1.2,1.3h-4.5c-0.7,0-1-0.3-1-1v-28.6
		c0-2.7-0.7-4.7-2-6.2c-1.4-1.4-3.5-2.2-6.3-2.2c-2.2,0-4.3,0.5-6.2,1.5c-1.9,1-4.2,2.7-6.9,5v30.2c0,0.4-0.1,0.7-0.3,0.9
		c-0.2,0.2-0.5,0.3-0.9,0.3H922C921.2,224.4,920.9,224,920.9,223.3z"/>
	<path d="M989.8,182.8v3.4c0,0.5-0.3,0.7-0.8,0.7h-9.1c-0.4,0-0.6,0.2-0.6,0.7v35.6c0,0.7-0.3,1.1-1,1.1h-4.9c-0.6,0-0.9-0.3-0.9-1
		v-35.8c0-0.4-0.2-0.6-0.6-0.6h-7.8c-0.5,0-0.8-0.2-0.8-0.7v-3.4c0-0.5,0.3-0.8,0.9-0.8h7.6c0.5,0,0.7-0.3,0.7-0.8v-5.8
		c0-6.9,3.3-10.3,10-10.3h6.6c0.7,0,1,0.3,1,1v3.1c0,0.5-0.3,0.8-0.9,0.8h-5.6c-3.1,0-4.6,1.9-4.6,5.8v5.6c0,0.5,0.2,0.7,0.7,0.7
		h9.2C989.6,182,989.8,182.2,989.8,182.8z"/>
	<path d="M1003.4,222.4c-3.1-1.8-5.4-4.4-7.1-7.7c-1.7-3.3-2.5-7.1-2.5-11.3c0-4.3,0.9-8.2,2.6-11.5c1.7-3.4,4.1-6,7.2-7.9
		c3.1-1.9,6.6-2.8,10.5-2.8c3.9,0,7.5,0.9,10.5,2.8c3.1,1.9,5.4,4.5,7.1,7.9c1.7,3.4,2.5,7.2,2.5,11.4c0,4.2-0.9,8-2.6,11.3
		c-1.7,3.3-4.1,5.9-7.2,7.8c-3.1,1.9-6.6,2.8-10.5,2.8C1010,225.2,1006.4,224.2,1003.4,222.4z M1023.9,215.6c2.3-3,3.5-7.2,3.5-12.4
		c0-5.2-1.2-9.4-3.6-12.4c-2.4-3.1-5.6-4.6-9.7-4.6c-4.2,0-7.4,1.5-9.8,4.6c-2.4,3.1-3.6,7.2-3.6,12.4c0,5.2,1.2,9.4,3.6,12.4
		c2.4,3,5.7,4.6,9.9,4.6C1018.3,220.1,1021.5,218.6,1023.9,215.6z"/>
	<path d="M1044.1,223.3V183c0-0.7,0.3-1,0.9-1h4.6c0.6,0,0.9,0.3,0.9,0.9v5.2c0,0.3,0.1,0.5,0.3,0.6c0.2,0.1,0.4-0.1,0.6-0.3
		c4.1-4.7,8.2-7.1,12.4-7.1c1.9,0,2.8,0.3,2.8,1v4.8c0,0.5-0.2,0.7-0.7,0.6c-1-0.2-2.2-0.2-3.6-0.2c-1.5,0-3.2,0.5-5,1.4
		c-1.8,0.9-3.3,2.1-4.6,3.5c-1.2,1.4-1.8,2.9-1.8,4.4v26.5c0,0.8-0.4,1.2-1.2,1.2h-4.4C1044.5,224.4,1044.1,224,1044.1,223.3z"/>
	<path d="M1074.8,223.3V183c0-0.7,0.3-1,0.9-1h4.8c0.5,0,0.8,0.3,0.8,0.9v4.6c0,0.6,0.3,0.7,0.8,0.2c2.9-2.3,5.3-4,7.4-5
		c2-1,4.3-1.5,6.8-1.5c3,0,5.5,0.7,7.4,2c1.9,1.3,3.3,3,4,5c0.1,0.2,0.2,0.2,0.3,0.2c0.2,0,0.4-0.1,0.8-0.4c2.8-2.3,5.3-4.1,7.5-5.2
		c2.2-1.1,4.5-1.7,7-1.7c3.8,0,6.8,1.1,9,3.3c2.2,2.2,3.2,5.1,3.2,8.9v29.8c0,0.9-0.4,1.3-1.2,1.3h-4.5c-0.7,0-1-0.3-1-1v-28.6
		c0-2.7-0.6-4.7-1.9-6.2c-1.3-1.4-3.2-2.2-5.8-2.2c-2.1,0-4.1,0.5-6,1.6c-1.9,1-3.7,2.3-5.4,3.9c-0.4,0.4-0.7,0.8-0.9,1.1
		c-0.2,0.3-0.2,0.7-0.2,1.2v28.9c0,0.9-0.4,1.3-1.2,1.3h-4.5c-0.7,0-1-0.3-1-1v-28.6c0-5.5-2.6-8.3-7.7-8.3c-2.1,0-4.1,0.5-5.9,1.5
		c-1.8,1-4,2.7-6.7,5v30.2c0,0.4-0.1,0.7-0.3,0.9c-0.2,0.2-0.5,0.3-0.9,0.3h-4.4C1075.2,224.4,1074.8,224,1074.8,223.3z"/>
	<path d="M1157.7,225.2c-4.2,0-7.4-1.1-9.8-3.2c-2.4-2.1-3.6-4.9-3.6-8.4c0-4.3,1.8-7.6,5.4-10.1c3.6-2.5,8.8-3.9,15.6-4.3l6.2-0.5
		c0.9-0.1,1.4-0.5,1.4-1.2v-2.2c0-2.9-0.9-5.2-2.7-6.8c-1.8-1.7-4.2-2.5-7.2-2.5c-4.7,0-8.5,2.1-11.5,6.4c-0.2,0.3-0.3,0.4-0.5,0.5
		s-0.4,0.1-0.6,0l-4.3-1.4c-0.3-0.1-0.4-0.3-0.4-0.6c0-0.2,0.1-0.4,0.2-0.7c1.6-2.8,3.9-5,6.8-6.6c3-1.6,6.5-2.4,10.5-2.4
		c5.2,0,9.2,1.2,12,3.6c2.8,2.4,4.2,5.8,4.2,10v28.3c0,0.5-0.1,0.8-0.2,1s-0.5,0.2-0.9,0.2h-4c-0.6,0-1-0.4-1.1-1.3l-0.2-3.7
		c-0.1-0.4-0.2-0.6-0.4-0.6s-0.5,0.1-0.7,0.4C1167.8,223.2,1163,225.2,1157.7,225.2z M1171.7,202.8l-5.2,0.5
		c-5,0.3-8.8,1.3-11.5,2.9c-2.7,1.6-4,3.8-4,6.6c0,2.3,0.8,4.1,2.4,5.4c1.6,1.3,3.8,2,6.5,2c1.7,0,3.3-0.3,4.9-0.9
		c1.6-0.6,3-1.4,4.2-2.4c1.2-1,2.2-2,2.8-3.1c0.7-1.1,1-2.1,1-3.2V204C1172.9,203.2,1172.5,202.8,1171.7,202.8z"/>
	<path d="M1202.3,186.9c-0.4,0-0.6,0.2-0.6,0.7V213c0,2.4,0.4,4.1,1.2,5c0.8,0.9,2.1,1.4,3.9,1.4h5.5c0.6,0,0.9,0.3,0.9,0.9
		l-0.1,2.7c0,0.5-0.3,0.9-1,1c-1.4,0.3-3.9,0.4-7.5,0.4c-3.4,0-5.8-0.8-7.4-2.4c-1.5-1.6-2.3-4.1-2.3-7.5v-26.7
		c0-0.6-0.3-0.9-0.8-0.9h-6.4c-0.6,0-0.9-0.3-0.9-0.8v-3.4c0-0.5,0.3-0.8,0.8-0.8h6.8c0.4,0,0.6-0.2,0.6-0.6l0.9-12.7
		c0-0.7,0.3-1,0.9-1h4c0.6,0,1,0.4,1,1.1v12.6c0,0.4,0.2,0.6,0.6,0.6h10.1c0.6,0,0.9,0.2,0.9,0.7v3.4c0,0.5-0.3,0.8-0.9,0.8H1202.3z
		"/>
	<path d="M1229.1,172.8c0,0.5-0.1,0.9-0.3,1.2c-0.2,0.2-0.6,0.4-1.1,0.4h-4.6c-0.8,0-1.2-0.5-1.2-1.4v-6.7c0-0.9,0.4-1.3,1.1-1.3h5
		c0.3,0,0.6,0.1,0.8,0.3c0.2,0.2,0.3,0.5,0.3,0.9L1229.1,172.8L1229.1,172.8z M1228.8,223c0,0.5-0.1,0.9-0.3,1.1
		c-0.2,0.2-0.6,0.3-1.1,0.3h-4.1c-0.5,0-0.8-0.1-1-0.2c-0.2-0.2-0.2-0.5-0.2-0.9v-40.2c0-0.7,0.3-1.1,1-1.1h4.9c0.6,0,0.9,0.3,0.9,1
		L1228.8,223L1228.8,223z"/>
	<path d="M1248.3,222.4c-3.1-1.8-5.4-4.4-7.1-7.7c-1.7-3.3-2.5-7.1-2.5-11.3c0-4.3,0.9-8.2,2.6-11.5c1.7-3.4,4.1-6,7.2-7.9
		c3.1-1.9,6.6-2.8,10.5-2.8c3.9,0,7.5,0.9,10.5,2.8c3.1,1.9,5.4,4.5,7.1,7.9c1.7,3.4,2.5,7.2,2.5,11.4c0,4.2-0.9,8-2.6,11.3
		c-1.7,3.3-4.1,5.9-7.2,7.8c-3.1,1.9-6.6,2.8-10.5,2.8C1254.9,225.2,1251.4,224.2,1248.3,222.4z M1268.8,215.6
		c2.3-3,3.5-7.2,3.5-12.4c0-5.2-1.2-9.4-3.6-12.4c-2.4-3.1-5.6-4.6-9.7-4.6c-4.2,0-7.4,1.5-9.8,4.6c-2.4,3.1-3.6,7.2-3.6,12.4
		c0,5.2,1.2,9.4,3.6,12.4c2.4,3,5.7,4.6,9.9,4.6C1263.3,220.1,1266.5,218.6,1268.8,215.6z"/>
	<path d="M1289.1,223.3V183c0-0.7,0.3-1,0.9-1h4.8c0.6,0,0.9,0.3,0.9,0.9v4.6c0,0.6,0.2,0.7,0.7,0.2c3-2.3,5.5-4,7.6-5
		c2.1-1,4.5-1.5,7.1-1.5c4.1,0,7.2,1.1,9.5,3.3c2.3,2.2,3.4,5.1,3.4,8.8v29.8c0,0.9-0.4,1.3-1.2,1.3h-4.5c-0.7,0-1-0.3-1-1v-28.6
		c0-2.7-0.7-4.7-2-6.2c-1.4-1.4-3.5-2.2-6.3-2.2c-2.2,0-4.3,0.5-6.2,1.5c-1.9,1-4.2,2.7-6.9,5v30.2c0,0.4-0.1,0.7-0.3,0.9
		c-0.2,0.2-0.5,0.3-0.9,0.3h-4.4C1289.5,224.4,1289.1,224,1289.1,223.3z"/>
	<path d="M1373.1,170c-4,0-7.1,0.9-9.4,2.6c-2.3,1.8-3.4,4.2-3.4,7.4c0,4.2,2.9,7.2,8.6,9.1l11.6,3.8c4.7,1.5,8.1,3.6,10.2,6.2
		c2.1,2.6,3.2,5.7,3.2,9.5c0,5.1-1.9,9.1-5.7,12.1c-3.8,2.9-9,4.4-15.5,4.4c-4.8,0-9-0.9-12.7-2.6c-3.7-1.7-6.6-4.2-8.8-7.4
		c-0.2-0.4-0.3-0.7-0.3-0.8c0-0.4,0.3-0.7,0.8-1.1l2.9-2c0.5-0.3,0.9-0.5,1.1-0.5c0.3,0,0.6,0.2,0.9,0.5c2.3,2.9,4.6,5,6.8,6.2
		c2.2,1.2,5.3,1.8,9,1.8c4.5,0,8-0.8,10.4-2.4c2.5-1.6,3.7-4.1,3.7-7.4c0-2.1-0.7-3.9-2-5.3c-1.3-1.5-3.7-2.8-7.1-4.1l-12.2-4.2
		c-4.2-1.4-7.3-3.5-9.3-6.2c-2-2.7-3-5.7-3-8.9c0-3.3,0.8-6.2,2.5-8.7c1.7-2.5,4.1-4.4,7.1-5.8c3.1-1.4,6.6-2,10.6-2
		c3.9,0,7.4,0.7,10.6,2.1c3.2,1.4,5.9,3.3,8.1,5.8c0.3,0.3,0.4,0.5,0.4,0.8c0,0.3-0.1,0.5-0.4,0.7l-3.7,2.9
		c-0.2,0.2-0.3,0.2-0.5,0.2s-0.5-0.2-1-0.7C1383.3,172,1378.7,170,1373.1,170z"/>
	<path d="M1410.7,212.9c1.3,2.2,2.9,3.9,5.1,5.2c2.1,1.3,4.5,1.9,7,1.9c5.3,0,9.5-2.2,12.5-6.6c0.2-0.2,0.4-0.3,0.6-0.4
		c0.2,0,0.3,0,0.6,0.1l3.4,1.7c0.4,0.3,0.5,0.6,0.2,1.1c-2.1,3.2-4.6,5.5-7.4,7c-2.9,1.5-6.3,2.2-10.3,2.2c-3.9,0-7.4-0.9-10.5-2.7
		c-3.1-1.8-5.5-4.4-7.2-7.6c-1.7-3.3-2.6-7-2.6-11.2c0-4.5,0.9-8.5,2.6-11.9c1.8-3.4,4.2-6,7.2-7.8c3.1-1.8,6.5-2.7,10.4-2.7
		s7.2,0.9,10.1,2.6c2.9,1.7,5.2,4.2,6.8,7.5c1.6,3.3,2.4,7.2,2.4,11.6v0.3c0,0.5-0.1,0.8-0.2,1.1s-0.5,0.4-1,0.4h-30.6
		c-0.5,0-0.7,0.4-0.7,1.2C1408.8,208.4,1409.4,210.7,1410.7,212.9z M1433.3,200.2c0.6,0,1-0.1,1.1-0.2c0.2-0.1,0.2-0.4,0.2-0.9
		c0-2.3-0.5-4.5-1.5-6.5c-1-2-2.4-3.6-4.3-4.8c-1.9-1.2-4.1-1.8-6.6-1.8c-2.7,0-5.1,0.7-7.1,2c-2,1.4-3.6,3.1-4.6,5.3
		s-1.6,4.5-1.5,6.9L1433.3,200.2L1433.3,200.2z"/>
	<path d="M1450.8,223.3V183c0-0.7,0.3-1,0.9-1h4.6c0.6,0,0.9,0.3,0.9,0.9v5.2c0,0.3,0.1,0.5,0.3,0.6c0.2,0.1,0.4-0.1,0.6-0.3
		c4.1-4.7,8.2-7.1,12.4-7.1c1.9,0,2.8,0.3,2.8,1v4.8c0,0.5-0.2,0.7-0.7,0.6c-1-0.2-2.2-0.2-3.6-0.2c-1.5,0-3.2,0.5-5,1.4
		c-1.8,0.9-3.3,2.1-4.6,3.5c-1.2,1.4-1.8,2.9-1.8,4.4v26.5c0,0.8-0.4,1.2-1.2,1.2h-4.4C1451.1,224.4,1450.8,224,1450.8,223.3z"/>
	<path d="M1516.7,182.3c0.1,0.2,0.1,0.5,0,0.8l-16.2,40.1c-0.3,0.8-0.9,1.2-1.8,1.2h-2.9c-1,0-1.7-0.4-2-1.1l-16.2-40.1
		c-0.1-0.1-0.1-0.2-0.1-0.4c0-0.5,0.3-0.8,1-0.8h5c0.6,0,1,0.3,1.3,0.9l12.6,31.4c0.2,0.5,0.3,0.8,0.6,0.8s0.5-0.3,0.7-0.9
		l12.5-31.4c0.2-0.6,0.6-0.9,1.2-0.9h3.7C1516.3,182,1516.5,182.1,1516.7,182.3z"/>
	<path d="M1532.2,172.8c0,0.5-0.1,0.9-0.3,1.2c-0.2,0.2-0.6,0.4-1.1,0.4h-4.6c-0.8,0-1.2-0.5-1.2-1.4v-6.7c0-0.9,0.4-1.3,1.1-1.3h5
		c0.3,0,0.6,0.1,0.8,0.3c0.2,0.2,0.3,0.5,0.3,0.9L1532.2,172.8L1532.2,172.8z M1531.9,223c0,0.5-0.1,0.9-0.3,1.1
		c-0.2,0.2-0.6,0.3-1.1,0.3h-4.1c-0.5,0-0.8-0.1-1-0.2c-0.2-0.2-0.2-0.5-0.2-0.9v-40.2c0-0.7,0.3-1.1,1-1.1h4.9c0.6,0,0.9,0.3,0.9,1
		L1531.9,223L1531.9,223z"/>
	<path d="M1571.9,183.9c2.7,1.8,4.9,4.2,6.6,7.2l0.2,0.6c0,0.3-0.2,0.5-0.6,0.6l-4.4,1l-0.2,0.1c-0.3,0-0.5-0.2-0.8-0.6
		c-1.7-2.3-3.3-4-4.9-5c-1.6-1.1-3.4-1.6-5.4-1.6c-4.2,0-7.5,1.5-9.9,4.6c-2.5,3.1-3.7,7.2-3.7,12.4c0,5.3,1.2,9.4,3.7,12.5
		c2.5,3,5.8,4.6,10,4.6c2.5,0,4.7-0.6,6.6-1.8c1.9-1.2,3.6-3.1,5.2-5.7c0.2-0.3,0.3-0.4,0.5-0.4c0.2,0,0.3,0,0.6,0.1l3.4,1.3
		c0.4,0.2,0.5,0.5,0.3,1c-1.7,3.1-3.9,5.6-6.8,7.6s-6.3,2.9-10.3,2.9c-3.9,0-7.4-0.9-10.4-2.8s-5.4-4.4-7.1-7.7
		c-1.7-3.3-2.6-7.1-2.6-11.4s0.9-8.1,2.6-11.5c1.7-3.4,4.1-6,7.2-7.9c3.1-1.9,6.5-2.8,10.4-2.8
		C1565.8,181.2,1569.1,182.1,1571.9,183.9z"/>
	<path d="M1594,212.9c1.3,2.2,2.9,3.9,5.1,5.2c2.1,1.3,4.5,1.9,7,1.9c5.3,0,9.5-2.2,12.5-6.6c0.2-0.2,0.4-0.3,0.6-0.4
		c0.2,0,0.3,0,0.6,0.1l3.4,1.7c0.4,0.3,0.5,0.6,0.2,1.1c-2.1,3.2-4.6,5.5-7.4,7c-2.9,1.5-6.3,2.2-10.3,2.2c-3.9,0-7.4-0.9-10.5-2.7
		c-3.1-1.8-5.5-4.4-7.2-7.6c-1.7-3.3-2.6-7-2.6-11.2c0-4.5,0.9-8.5,2.6-11.9c1.8-3.4,4.2-6,7.2-7.8c3.1-1.8,6.5-2.7,10.4-2.7
		s7.2,0.9,10.1,2.6c2.9,1.7,5.2,4.2,6.8,7.5c1.6,3.3,2.4,7.2,2.4,11.6v0.3c0,0.5-0.1,0.8-0.2,1.1s-0.5,0.4-1,0.4h-30.6
		c-0.5,0-0.7,0.4-0.7,1.2C1592.1,208.4,1592.8,210.7,1594,212.9z M1616.6,200.2c0.6,0,1-0.1,1.1-0.2c0.2-0.1,0.2-0.4,0.2-0.9
		c0-2.3-0.5-4.5-1.5-6.5c-1-2-2.4-3.6-4.3-4.8c-1.9-1.2-4.1-1.8-6.6-1.8c-2.7,0-5.1,0.7-7.1,2c-2,1.4-3.6,3.1-4.6,5.3
		s-1.6,4.5-1.5,6.9L1616.6,200.2L1616.6,200.2z"/>
</g>
</svg>
