<?xml version="1.0" encoding="utf-8"?>
<!-- Generator: Adobe Illustrator 15.1.0, SVG Export Plug-In . SVG Version: 6.00 Build 0)  -->
<!DOCTYPE svg PUBLIC "-//W3C//DTD SVG 1.1//EN" "http://www.w3.org/Graphics/SVG/1.1/DTD/svg11.dtd">
<svg version="1.1" id="Layer_1" xmlns="http://www.w3.org/2000/svg" xmlns:xlink="http://www.w3.org/1999/xlink" x="0px" y="0px"
	 width="482.418px" height="151.568px" viewBox="158.758 323.529 482.418 151.568"
	 enable-background="new 158.758 323.529 482.418 151.568" xml:space="preserve">
<g>
	<path d="M349.804,369.477h-1.503v102.157c0,2.483-1.961,3.464-6.209,3.464c-4.249,0-6.209-1.241-6.209-3.464V370.196
		c0-4.445,0.522-7.713,1.765-9.216c0.98-1.765,3.726-2.484,7.712-2.484h3.464c7.189,0,12.157,0.719,14.641,2.484
		s4.444,5.948,6.209,12.418l20.393,82.288c0.98,3.726,1.765,6.209,2.745,6.928c0.719,0.98,3.007,1.503,6.209,1.503h1.503V361.961
		c0-2.484,1.961-3.464,6.21-3.464c4.248,0,6.209,1.242,6.209,3.464v101.438c0,4.444-0.523,7.713-1.765,9.216
		c-0.98,1.765-3.726,2.483-7.713,2.483H400c-7.189,0-12.157-0.719-14.641-2.483s-4.444-5.947-6.209-12.418l-20.393-82.288
		c-0.98-3.726-1.765-6.209-2.745-6.928C355.229,369.673,353.268,369.477,349.804,369.477z"/>
	<path d="M436.209,358.235h65.883c1.961,0,3.202,1.765,3.202,5.49s-0.98,5.49-3.202,5.49H475.49v102.157
		c0,2.483-1.961,3.464-6.209,3.464s-6.209-1.242-6.209-3.464V369.477h-26.602c-1.961,0-3.203-1.765-3.203-5.49
		C432.941,360.261,433.987,358.235,436.209,358.235z"/>
	<path d="M539.935,361.242v110.327c0,2.484-1.961,3.464-6.209,3.464s-6.209-1.241-6.209-3.464V361.242
		c0-2.483,1.961-3.464,6.209-3.464C537.647,357.516,539.935,358.758,539.935,361.242z"/>
	<path d="M629.15,453.464v-17.646c0-3.465-1.242-5.948-3.987-7.451c-2.745-1.504-7.45-3.203-14.183-4.706l-13.922-3.203
		c-6.471-1.503-11.176-3.006-14.444-4.967c-6.928-3.726-10.457-11.177-10.457-22.614v-12.157c0-8.692,3.006-14.902,9.216-18.889
		c6.209-3.987,14.444-5.948,24.574-5.948c10.196,0,18.366,1.961,24.575,5.948c6.21,3.987,9.216,10.196,9.216,18.889v6.863
		c0,2.484-1.961,3.464-6.209,3.464s-6.209-1.242-6.209-3.464v-8.431c0-8.17-7.189-12.157-21.373-12.157
		c-14.183,0-21.372,3.987-21.372,12.157v13.398c0,5.687,0.719,9.674,2.483,11.961c1.765,2.223,4.968,3.726,9.674,4.706l13.921,3.202
		c9.935,2.223,15.687,3.726,17.124,4.444c1.504,0.72,3.007,1.765,4.968,2.484c1.961,0.98,3.202,1.961,3.726,3.006
		c0.719,0.98,1.503,2.223,2.483,3.726c1.503,2.484,2.223,6.209,2.223,11.177v14.902c0,8.431-3.465,14.901-10.196,18.889
		c-6.928,3.986-15.425,5.947-25.817,5.947c-10.457,0-18.889-1.961-25.621-5.947c-6.731-3.987-9.935-10.196-9.935-18.889v-6.929
		c0-2.483,1.961-3.464,6.21-3.464c4.248,0,6.209,1.242,6.209,3.464v8.432c0,4.248,2.222,7.451,6.471,9.216
		c4.248,1.961,9.673,3.007,16.405,3.007c6.731,0,12.156-0.98,16.666-3.007C626.928,460.653,629.15,457.647,629.15,453.464z"/>
</g>
<rect x="158.758" y="393.529" fill="#046B9A" width="29.804" height="44.379"/>
<rect x="203.529" y="323.529" fill="#046B9A" width="29.804" height="153.072"/>
<rect x="250.85" y="356.732" fill="#046B9A" width="29.804" height="120"/>
<rect x="158.758" y="446.602" fill="#CD2128" width="29.804" height="29.804"/>
</svg>
