<?xml version="1.0" encoding="utf-8"?>
<!-- Generator: Adobe Illustrator 19.2.1, SVG Export Plug-In . SVG Version: 6.00 Build 0)  -->
<svg version="1.1" id="Layer_1" xmlns="http://www.w3.org/2000/svg" xmlns:xlink="http://www.w3.org/1999/xlink" x="0px" y="0px"
	 viewBox="0 0 758.2 233.4" style="enable-background:new 0 0 758.2 233.4;" xml:space="preserve">
<style type="text/css">
	.st0{fill:#FFFFFF;}
	.st1{fill:#9BDAF1;}
</style>
<g>
	<path class="st0" d="M312.2,68.7h-2.3V225c0,3.8-3,5.3-9.5,5.3c-6.5,0-9.5-1.9-9.5-5.3V69.9c0-6.8,0.8-11.8,2.7-14.1
		c1.5-2.7,5.7-3.8,11.8-3.8h5.3c11,0,18.6,1.1,22.4,3.8c3.8,2.7,6.8,9.1,9.5,19l31.2,125.9c1.5,5.7,2.7,9.5,4.2,10.6
		c1.1,1.5,4.6,2.3,9.5,2.3h2.3V57.3c0-3.8,3-5.3,9.5-5.3c6.5,0,9.5,1.9,9.5,5.3v155.1c0,6.8-0.8,11.8-2.7,14.1
		c-1.5,2.7-5.7,3.8-11.8,3.8H389c-11,0-18.6-1.1-22.4-3.8c-3.8-2.7-6.8-9.1-9.5-19L325.9,81.7c-1.5-5.7-2.7-9.5-4.2-10.6
		C320.5,69.1,317.5,68.7,312.2,68.7z"/>
	<path class="st0" d="M444.4,51.6h100.8c3,0,4.9,2.7,4.9,8.4c0,5.7-1.5,8.4-4.9,8.4h-40.7v156.3c0,3.8-3,5.3-9.5,5.3
		s-9.5-1.9-9.5-5.3V68.7h-40.7c-3,0-4.9-2.7-4.9-8.4C439.4,54.7,441,51.6,444.4,51.6z"/>
	<path class="st0" d="M603.1,56.2V225c0,3.8-3,5.3-9.5,5.3c-6.5,0-9.5-1.9-9.5-5.3V56.2c0-3.8,3-5.3,9.5-5.3
		C599.6,50.5,603.1,52.4,603.1,56.2z"/>
	<path class="st0" d="M739.6,197.2v-27c0-5.3-1.9-9.1-6.1-11.4c-4.2-2.3-11.4-4.9-21.7-7.2l-21.3-4.9c-9.9-2.3-17.1-4.6-22.1-7.6
		c-10.6-5.7-16-17.1-16-34.6V85.8c0-13.3,4.6-22.8,14.1-28.9s22.1-9.1,37.6-9.1s28.1,3,37.6,9.1s14.1,15.6,14.1,28.9v10.6
		c0,3.8-3,5.3-9.5,5.3c-6.5,0-9.5-1.9-9.5-5.3V83.6c0-12.5-11-18.6-32.7-18.6s-32.7,6.1-32.7,18.6v20.5c0,8.7,1.1,14.8,3.8,18.3
		c2.7,3.4,7.6,5.7,14.8,7.2l21.3,4.9c15.2,3.4,24,5.7,26.2,6.8c2.3,1.1,4.6,2.7,7.6,3.8c3,1.5,4.9,3,5.7,4.6
		c1.1,1.5,2.3,3.4,3.8,5.7c2.3,3.8,3.4,9.5,3.4,17.1v22.8c0,12.9-5.3,22.8-15.6,28.9c-10.6,6.1-23.6,9.1-39.5,9.1s-28.9-3-39.2-9.1
		c-10.3-6.1-15.2-15.6-15.2-28.9v-10.6c0-3.8,3-5.3,9.5-5.3c6.5,0,9.5,1.9,9.5,5.3v12.9c0,6.5,3.4,11.4,9.9,14.1
		c6.5,3,14.8,4.6,25.1,4.6s18.6-1.5,25.5-4.6C736.2,208.3,739.6,203.7,739.6,197.2z"/>
</g>
<rect x="19.9" y="115.6" class="st1" width="45.6" height="117.1"/>
<rect x="88.3" y="-1.5" class="st1" width="45.6" height="234.2"/>
<rect x="160.8" y="49.2" class="st1" width="45.6" height="183.6"/>
</svg>
