<?xml version="1.0" encoding="utf-8"?>
<!-- Generator: Adobe Illustrator 19.2.1, SVG Export Plug-In . SVG Version: 6.00 Build 0)  -->
<svg version="1.1" id="Layer_1" xmlns="http://www.w3.org/2000/svg" xmlns:xlink="http://www.w3.org/1999/xlink" x="0px" y="0px"
	 viewBox="0 0 210.4 83.5" style="enable-background:new 0 0 210.4 83.5;" xml:space="preserve">
<style type="text/css">
	.st0{fill:#010101;}
	.st1{fill:#FFFFFF;}
</style>
<g>
	<path class="st0" d="M82.1,30.1h-0.6v41.1c0,1-0.8,1.4-2.5,1.4c-1.7,0-2.5-0.5-2.5-1.4V30.4c0-1.8,0.2-3.1,0.7-3.7
		c0.4-0.7,1.5-1,3.1-1h1.4c2.9,0,4.9,0.3,5.9,1c1,0.7,1.8,2.4,2.5,5l8.2,33.1c0.4,1.5,0.7,2.5,1.1,2.8c0.3,0.4,1.2,0.6,2.5,0.6h0.6
		V27.1c0-1,0.8-1.4,2.5-1.4c1.7,0,2.5,0.5,2.5,1.4v40.8c0,1.8-0.2,3.1-0.7,3.7c-0.4,0.7-1.5,1-3.1,1h-1.4c-2.9,0-4.9-0.3-5.9-1
		c-1-0.7-1.8-2.4-2.5-5l-8.2-33.1c-0.4-1.5-0.7-2.5-1.1-2.8C84.3,30.2,83.5,30.1,82.1,30.1z"/>
	<path class="st0" d="M119.5,25.6h26.5c0.8,0,1.3,0.7,1.3,2.2c0,1.5-0.4,2.2-1.3,2.2h-10.7v41.1c0,1-0.8,1.4-2.5,1.4
		c-1.7,0-2.5-0.5-2.5-1.4V30.1h-10.7c-0.8,0-1.3-0.7-1.3-2.2C118.2,26.4,118.6,25.6,119.5,25.6z"/>
	<path class="st0" d="M163.6,26.8v44.4c0,1-0.8,1.4-2.5,1.4c-1.7,0-2.5-0.5-2.5-1.4V26.8c0-1,0.8-1.4,2.5-1.4
		C162.7,25.3,163.6,25.8,163.6,26.8z"/>
	<path class="st0" d="M202.4,63.9v-7.1c0-1.4-0.5-2.4-1.6-3c-1.1-0.6-3-1.3-5.7-1.9l-5.6-1.3c-2.6-0.6-4.5-1.2-5.8-2
		c-2.8-1.5-4.2-4.5-4.2-9.1v-4.9c0-3.5,1.2-6,3.7-7.6c2.5-1.6,5.8-2.4,9.9-2.4c4.1,0,7.4,0.8,9.9,2.4c2.5,1.6,3.7,4.1,3.7,7.6v2.8
		c0,1-0.8,1.4-2.5,1.4c-1.7,0-2.5-0.5-2.5-1.4V34c0-3.3-2.9-4.9-8.6-4.9s-8.6,1.6-8.6,4.9v5.4c0,2.3,0.3,3.9,1,4.8
		c0.7,0.9,2,1.5,3.9,1.9l5.6,1.3c4,0.9,6.3,1.5,6.9,1.8c0.6,0.3,1.2,0.7,2,1c0.8,0.4,1.3,0.8,1.5,1.2c0.3,0.4,0.6,0.9,1,1.5
		c0.6,1,0.9,2.5,0.9,4.5v6c0,3.4-1.4,6-4.1,7.6c-2.8,1.6-6.2,2.4-10.4,2.4c-4.2,0-7.6-0.8-10.3-2.4c-2.7-1.6-4-4.1-4-7.6v-2.8
		c0-1,0.8-1.4,2.5-1.4c1.7,0,2.5,0.5,2.5,1.4v3.4c0,1.7,0.9,3,2.6,3.7c1.7,0.8,3.9,1.2,6.6,1.2c2.7,0,4.9-0.4,6.7-1.2
		C201.5,66.8,202.4,65.6,202.4,63.9z"/>
</g>
<rect x="-9.4" y="51.8" transform="matrix(8.742346e-11 -1 1 8.742346e-11 -51.8312 63.8312)" class="st1" width="30.8" height="12"/>
<rect x="-6.8" y="36.4" transform="matrix(8.742346e-11 -1 1 8.742346e-11 -18.424 66.424)" class="st1" width="61.6" height="12"/>
<rect x="18.8" y="43.1" transform="matrix(8.381213e-11 -1 1 8.381213e-11 -6.0721 92.0721)" class="st1" width="48.3" height="12"/>
</svg>
