<?xml version="1.0" encoding="utf-8"?>
<!-- Generator: Adobe Illustrator 19.2.1, SVG Export Plug-In . SVG Version: 6.00 Build 0)  -->
<svg version="1.1" id="Layer_1" xmlns="http://www.w3.org/2000/svg" xmlns:xlink="http://www.w3.org/1999/xlink" x="0px" y="0px"
	 viewBox="0 0 58.2 76" style="enable-background:new 0 0 58.2 76;" xml:space="preserve">
<style type="text/css">
	.st0{fill:none;stroke:#FFF2D3;stroke-width:2.5;stroke-linecap:round;stroke-linejoin:round;stroke-miterlimit:10;}
	.st1{fill:#FFF2D3;}
	.st2{fill:#FFFFFF;stroke:#FFF2D3;stroke-width:2.5;stroke-linecap:round;stroke-linejoin:round;stroke-miterlimit:10;}
</style>
<polyline class="st0" points="14.6,46.1 14.6,56.8 45.3,56.8 45.3,25.5 37.4,17.6 37.4,17.7 37.4,17.6 14.6,17.6 14.6,34.3 "/>
<path class="st1" d="M35,46.4H9.3V33.7H35V46.4z M13,43.9h1.2v-3.2H16c0.8,0,1.4-0.3,1.8-0.8c0.4-0.5,0.6-1,0.6-1.6
	c0-0.4-0.1-0.8-0.2-1.2c-0.2-0.3-0.4-0.6-0.6-0.8c-0.3-0.2-0.6-0.4-0.9-0.5c-0.3-0.1-0.6-0.1-0.9-0.1H13V43.9z M14.2,36.9h1.7
	c0.3,0,0.6,0.1,0.9,0.2c0.2,0.1,0.3,0.2,0.4,0.4c0.1,0.2,0.1,0.4,0.1,0.7c0,0.3-0.1,0.6-0.3,0.9c-0.2,0.3-0.6,0.4-1,0.4h-1.8V36.9z
	 M19.9,43.9h2.7c0.6,0,1.1-0.1,1.5-0.4c0.4-0.2,0.7-0.6,1-0.9c0.1-0.1,0.2-0.3,0.2-0.4c0.1-0.1,0.1-0.3,0.1-0.5
	c0.1-0.3,0.1-1,0.1-1.8c0-0.8,0-1.4-0.1-1.7c0-0.3-0.2-0.7-0.4-1c-0.5-0.9-1.3-1.4-2.4-1.4h-2.7V43.9z M21.1,36.9h1.4
	c0.6,0,1.1,0.2,1.4,0.7c0.2,0.2,0.3,0.4,0.3,0.7c0,0.3,0,0.8,0,1.5c0,0.7,0,1.2,0,1.5c0,0.3-0.1,0.5-0.3,0.7
	c-0.3,0.5-0.8,0.7-1.5,0.7h-1.4V36.9z M27.3,43.9h1.2v-3.5h3.3v-1.1h-3.3v-2.4h3.8v-1.2h-5V43.9z"/>
<polygon class="st2" points="45.3,25.5 37.4,25.5 37.4,17.6 "/>
</svg>
